G75*
G70*
%OFA0B0*%
%FSLAX24Y24*%
%IPPOS*%
%LPD*%
%AMOC8*
5,1,8,0,0,1.08239X$1,22.5*
%
%ADD10C,0.0000*%
%ADD11C,0.0160*%
%ADD12C,0.0030*%
%ADD13C,0.0050*%
%ADD14C,0.0040*%
%ADD15C,0.0080*%
%ADD16C,0.0070*%
%ADD17C,0.0060*%
D10*
X011180Y009430D02*
X011180Y029430D01*
X011182Y029525D01*
X011189Y029620D01*
X011200Y029715D01*
X011216Y029809D01*
X011236Y029902D01*
X011261Y029993D01*
X011290Y030084D01*
X011323Y030173D01*
X011361Y030261D01*
X011402Y030346D01*
X011448Y030430D01*
X011497Y030511D01*
X011551Y030590D01*
X011608Y030666D01*
X011669Y030740D01*
X011733Y030810D01*
X011800Y030877D01*
X011870Y030941D01*
X011944Y031002D01*
X012020Y031059D01*
X012099Y031113D01*
X012180Y031162D01*
X012264Y031208D01*
X012349Y031249D01*
X012437Y031287D01*
X012526Y031320D01*
X012617Y031349D01*
X012708Y031374D01*
X012801Y031394D01*
X012895Y031410D01*
X012990Y031421D01*
X013085Y031428D01*
X013180Y031430D01*
X040679Y031430D01*
X040774Y031428D01*
X040869Y031421D01*
X040964Y031410D01*
X041057Y031394D01*
X041150Y031374D01*
X041242Y031349D01*
X041333Y031320D01*
X041422Y031287D01*
X041510Y031249D01*
X041596Y031208D01*
X041679Y031162D01*
X041760Y031112D01*
X041839Y031059D01*
X041915Y031002D01*
X041989Y030941D01*
X042059Y030877D01*
X042127Y030810D01*
X042191Y030740D01*
X042251Y030666D01*
X042308Y030590D01*
X042362Y030511D01*
X042411Y030430D01*
X042457Y030346D01*
X042498Y030261D01*
X042536Y030173D01*
X042569Y030084D01*
X042598Y029993D01*
X042623Y029901D01*
X042643Y029808D01*
X042659Y029714D01*
X042670Y029620D01*
X042677Y029525D01*
X042679Y029429D01*
X042679Y029430D02*
X042673Y009430D01*
X042671Y009335D01*
X042664Y009240D01*
X042653Y009146D01*
X042637Y009052D01*
X042617Y008959D01*
X042592Y008867D01*
X042563Y008776D01*
X042530Y008687D01*
X042492Y008599D01*
X042451Y008514D01*
X042405Y008430D01*
X042356Y008349D01*
X042302Y008270D01*
X042245Y008194D01*
X042185Y008120D01*
X042121Y008050D01*
X042053Y007983D01*
X041983Y007919D01*
X041909Y007858D01*
X041833Y007801D01*
X041754Y007748D01*
X041673Y007698D01*
X041590Y007652D01*
X041504Y007611D01*
X041416Y007573D01*
X041327Y007540D01*
X041237Y007511D01*
X041145Y007486D01*
X041052Y007466D01*
X040958Y007450D01*
X040863Y007439D01*
X040768Y007432D01*
X040673Y007430D01*
X013180Y007430D01*
X013085Y007432D01*
X012990Y007439D01*
X012895Y007450D01*
X012801Y007466D01*
X012708Y007486D01*
X012617Y007511D01*
X012526Y007540D01*
X012437Y007573D01*
X012349Y007611D01*
X012264Y007652D01*
X012180Y007698D01*
X012099Y007747D01*
X012020Y007801D01*
X011944Y007858D01*
X011870Y007919D01*
X011800Y007983D01*
X011733Y008050D01*
X011669Y008120D01*
X011608Y008194D01*
X011551Y008270D01*
X011497Y008349D01*
X011448Y008430D01*
X011402Y008514D01*
X011361Y008599D01*
X011323Y008687D01*
X011290Y008776D01*
X011261Y008867D01*
X011236Y008958D01*
X011216Y009051D01*
X011200Y009145D01*
X011189Y009240D01*
X011182Y009335D01*
X011180Y009430D01*
X011629Y014930D02*
X011631Y014977D01*
X011637Y015023D01*
X011647Y015069D01*
X011660Y015114D01*
X011678Y015157D01*
X011699Y015199D01*
X011723Y015239D01*
X011751Y015276D01*
X011782Y015311D01*
X011816Y015344D01*
X011852Y015373D01*
X011891Y015399D01*
X011932Y015422D01*
X011975Y015441D01*
X012019Y015457D01*
X012064Y015469D01*
X012110Y015477D01*
X012157Y015481D01*
X012203Y015481D01*
X012250Y015477D01*
X012296Y015469D01*
X012341Y015457D01*
X012385Y015441D01*
X012428Y015422D01*
X012469Y015399D01*
X012508Y015373D01*
X012544Y015344D01*
X012578Y015311D01*
X012609Y015276D01*
X012637Y015239D01*
X012661Y015199D01*
X012682Y015157D01*
X012700Y015114D01*
X012713Y015069D01*
X012723Y015023D01*
X012729Y014977D01*
X012731Y014930D01*
X012729Y014883D01*
X012723Y014837D01*
X012713Y014791D01*
X012700Y014746D01*
X012682Y014703D01*
X012661Y014661D01*
X012637Y014621D01*
X012609Y014584D01*
X012578Y014549D01*
X012544Y014516D01*
X012508Y014487D01*
X012469Y014461D01*
X012428Y014438D01*
X012385Y014419D01*
X012341Y014403D01*
X012296Y014391D01*
X012250Y014383D01*
X012203Y014379D01*
X012157Y014379D01*
X012110Y014383D01*
X012064Y014391D01*
X012019Y014403D01*
X011975Y014419D01*
X011932Y014438D01*
X011891Y014461D01*
X011852Y014487D01*
X011816Y014516D01*
X011782Y014549D01*
X011751Y014584D01*
X011723Y014621D01*
X011699Y014661D01*
X011678Y014703D01*
X011660Y014746D01*
X011647Y014791D01*
X011637Y014837D01*
X011631Y014883D01*
X011629Y014930D01*
X011629Y027103D02*
X011631Y027150D01*
X011637Y027196D01*
X011647Y027242D01*
X011660Y027287D01*
X011678Y027330D01*
X011699Y027372D01*
X011723Y027412D01*
X011751Y027449D01*
X011782Y027484D01*
X011816Y027517D01*
X011852Y027546D01*
X011891Y027572D01*
X011932Y027595D01*
X011975Y027614D01*
X012019Y027630D01*
X012064Y027642D01*
X012110Y027650D01*
X012157Y027654D01*
X012203Y027654D01*
X012250Y027650D01*
X012296Y027642D01*
X012341Y027630D01*
X012385Y027614D01*
X012428Y027595D01*
X012469Y027572D01*
X012508Y027546D01*
X012544Y027517D01*
X012578Y027484D01*
X012609Y027449D01*
X012637Y027412D01*
X012661Y027372D01*
X012682Y027330D01*
X012700Y027287D01*
X012713Y027242D01*
X012723Y027196D01*
X012729Y027150D01*
X012731Y027103D01*
X012729Y027056D01*
X012723Y027010D01*
X012713Y026964D01*
X012700Y026919D01*
X012682Y026876D01*
X012661Y026834D01*
X012637Y026794D01*
X012609Y026757D01*
X012578Y026722D01*
X012544Y026689D01*
X012508Y026660D01*
X012469Y026634D01*
X012428Y026611D01*
X012385Y026592D01*
X012341Y026576D01*
X012296Y026564D01*
X012250Y026556D01*
X012203Y026552D01*
X012157Y026552D01*
X012110Y026556D01*
X012064Y026564D01*
X012019Y026576D01*
X011975Y026592D01*
X011932Y026611D01*
X011891Y026634D01*
X011852Y026660D01*
X011816Y026689D01*
X011782Y026722D01*
X011751Y026757D01*
X011723Y026794D01*
X011699Y026834D01*
X011678Y026876D01*
X011660Y026919D01*
X011647Y026964D01*
X011637Y027010D01*
X011631Y027056D01*
X011629Y027103D01*
X041125Y027103D02*
X041127Y027150D01*
X041133Y027196D01*
X041143Y027242D01*
X041156Y027287D01*
X041174Y027330D01*
X041195Y027372D01*
X041219Y027412D01*
X041247Y027449D01*
X041278Y027484D01*
X041312Y027517D01*
X041348Y027546D01*
X041387Y027572D01*
X041428Y027595D01*
X041471Y027614D01*
X041515Y027630D01*
X041560Y027642D01*
X041606Y027650D01*
X041653Y027654D01*
X041699Y027654D01*
X041746Y027650D01*
X041792Y027642D01*
X041837Y027630D01*
X041881Y027614D01*
X041924Y027595D01*
X041965Y027572D01*
X042004Y027546D01*
X042040Y027517D01*
X042074Y027484D01*
X042105Y027449D01*
X042133Y027412D01*
X042157Y027372D01*
X042178Y027330D01*
X042196Y027287D01*
X042209Y027242D01*
X042219Y027196D01*
X042225Y027150D01*
X042227Y027103D01*
X042225Y027056D01*
X042219Y027010D01*
X042209Y026964D01*
X042196Y026919D01*
X042178Y026876D01*
X042157Y026834D01*
X042133Y026794D01*
X042105Y026757D01*
X042074Y026722D01*
X042040Y026689D01*
X042004Y026660D01*
X041965Y026634D01*
X041924Y026611D01*
X041881Y026592D01*
X041837Y026576D01*
X041792Y026564D01*
X041746Y026556D01*
X041699Y026552D01*
X041653Y026552D01*
X041606Y026556D01*
X041560Y026564D01*
X041515Y026576D01*
X041471Y026592D01*
X041428Y026611D01*
X041387Y026634D01*
X041348Y026660D01*
X041312Y026689D01*
X041278Y026722D01*
X041247Y026757D01*
X041219Y026794D01*
X041195Y026834D01*
X041174Y026876D01*
X041156Y026919D01*
X041143Y026964D01*
X041133Y027010D01*
X041127Y027056D01*
X041125Y027103D01*
X041125Y014930D02*
X041127Y014977D01*
X041133Y015023D01*
X041143Y015069D01*
X041156Y015114D01*
X041174Y015157D01*
X041195Y015199D01*
X041219Y015239D01*
X041247Y015276D01*
X041278Y015311D01*
X041312Y015344D01*
X041348Y015373D01*
X041387Y015399D01*
X041428Y015422D01*
X041471Y015441D01*
X041515Y015457D01*
X041560Y015469D01*
X041606Y015477D01*
X041653Y015481D01*
X041699Y015481D01*
X041746Y015477D01*
X041792Y015469D01*
X041837Y015457D01*
X041881Y015441D01*
X041924Y015422D01*
X041965Y015399D01*
X042004Y015373D01*
X042040Y015344D01*
X042074Y015311D01*
X042105Y015276D01*
X042133Y015239D01*
X042157Y015199D01*
X042178Y015157D01*
X042196Y015114D01*
X042209Y015069D01*
X042219Y015023D01*
X042225Y014977D01*
X042227Y014930D01*
X042225Y014883D01*
X042219Y014837D01*
X042209Y014791D01*
X042196Y014746D01*
X042178Y014703D01*
X042157Y014661D01*
X042133Y014621D01*
X042105Y014584D01*
X042074Y014549D01*
X042040Y014516D01*
X042004Y014487D01*
X041965Y014461D01*
X041924Y014438D01*
X041881Y014419D01*
X041837Y014403D01*
X041792Y014391D01*
X041746Y014383D01*
X041699Y014379D01*
X041653Y014379D01*
X041606Y014383D01*
X041560Y014391D01*
X041515Y014403D01*
X041471Y014419D01*
X041428Y014438D01*
X041387Y014461D01*
X041348Y014487D01*
X041312Y014516D01*
X041278Y014549D01*
X041247Y014584D01*
X041219Y014621D01*
X041195Y014661D01*
X041174Y014703D01*
X041156Y014746D01*
X041143Y014791D01*
X041133Y014837D01*
X041127Y014883D01*
X041125Y014930D01*
D11*
X040996Y012430D02*
X040548Y012430D01*
X040154Y012430D02*
X039706Y012430D01*
X039312Y012430D02*
X038864Y012430D01*
X038470Y012430D02*
X038022Y012430D01*
X037628Y012430D02*
X037180Y012430D01*
X036930Y012680D01*
X036930Y013197D01*
X036930Y013591D02*
X036930Y014108D01*
X036930Y014502D02*
X036930Y015019D01*
X036930Y015413D02*
X036930Y015930D01*
X036382Y016478D01*
X036103Y016757D02*
X035555Y017305D01*
X034877Y017305D01*
X034483Y017305D02*
X033805Y017305D01*
X033514Y017014D01*
X033235Y016735D02*
X032944Y016444D01*
X032666Y016166D02*
X032375Y015875D01*
X032096Y015596D02*
X031805Y015305D01*
X031409Y015305D01*
X031016Y015305D02*
X030620Y015305D01*
X030226Y015305D02*
X029831Y015305D01*
X029437Y015305D02*
X029041Y015305D01*
X028648Y015305D02*
X028252Y015305D01*
X027858Y015305D02*
X027462Y015305D01*
X027069Y015305D02*
X026673Y015305D01*
X026279Y015305D02*
X025884Y015305D01*
X025490Y015305D02*
X025094Y015305D01*
X024701Y015305D02*
X024305Y015305D01*
X023866Y015744D01*
X023587Y016023D02*
X023148Y016462D01*
X022869Y016741D02*
X022430Y017180D01*
X021920Y017180D01*
X021526Y017180D02*
X021016Y017180D01*
X020623Y017180D02*
X020112Y017180D01*
X019719Y017180D02*
X019209Y017180D01*
X018815Y017180D02*
X018305Y017180D01*
X017995Y016870D01*
X017717Y016592D02*
X017407Y016282D01*
X017129Y016004D02*
X016819Y015694D01*
X016541Y015416D02*
X016231Y015106D01*
X015953Y014828D02*
X015643Y014518D01*
X015365Y014240D02*
X015055Y013930D01*
X014595Y013930D01*
X014201Y013930D02*
X013741Y013930D01*
X013348Y013930D02*
X012887Y013930D01*
X012494Y013930D02*
X012034Y013930D01*
X011640Y013930D02*
X011180Y013930D01*
X041390Y012430D02*
X041838Y012430D01*
X042232Y012430D02*
X042680Y012430D01*
D12*
X036590Y013895D02*
X036590Y014080D01*
X036529Y014142D01*
X036405Y014142D01*
X036343Y014080D01*
X036343Y013895D01*
X036220Y013895D02*
X036590Y013895D01*
X036343Y014018D02*
X036220Y014142D01*
X036220Y014263D02*
X036467Y014510D01*
X036529Y014510D01*
X036590Y014448D01*
X036590Y014325D01*
X036529Y014263D01*
X036220Y014263D02*
X036220Y014510D01*
X036282Y014632D02*
X036220Y014693D01*
X036220Y014817D01*
X036282Y014879D01*
X036529Y014879D01*
X036590Y014817D01*
X036590Y014693D01*
X036529Y014632D01*
X036467Y014632D01*
X036405Y014693D01*
X036405Y014879D01*
X035915Y015345D02*
X035915Y015530D01*
X035854Y015592D01*
X035607Y015592D01*
X035545Y015530D01*
X035545Y015345D01*
X035915Y015345D01*
X035730Y015713D02*
X035730Y015960D01*
X035545Y015898D02*
X035915Y015898D01*
X035730Y015713D01*
X033420Y014454D02*
X033420Y014207D01*
X033358Y014145D01*
X033235Y014145D01*
X033173Y014207D01*
X033052Y014207D02*
X032990Y014145D01*
X032866Y014145D01*
X032805Y014207D01*
X032805Y014268D01*
X032866Y014330D01*
X032928Y014330D01*
X032866Y014330D02*
X032805Y014392D01*
X032805Y014454D01*
X032866Y014515D01*
X032990Y014515D01*
X033052Y014454D01*
X033173Y014454D02*
X033235Y014515D01*
X033358Y014515D01*
X033420Y014454D01*
X032683Y014392D02*
X032560Y014515D01*
X032560Y014145D01*
X032683Y014145D02*
X032436Y014145D01*
X031515Y013924D02*
X031454Y013800D01*
X031330Y013677D01*
X031330Y013862D01*
X031268Y013924D01*
X031207Y013924D01*
X031145Y013862D01*
X031145Y013738D01*
X031207Y013677D01*
X031330Y013677D01*
X031392Y013555D02*
X031454Y013555D01*
X031515Y013494D01*
X031515Y013370D01*
X031454Y013308D01*
X031454Y013187D02*
X031515Y013125D01*
X031515Y013002D01*
X031454Y012940D01*
X031207Y012940D01*
X031145Y013002D01*
X031145Y013125D01*
X031207Y013187D01*
X031145Y013308D02*
X031392Y013555D01*
X031145Y013555D02*
X031145Y013308D01*
X032731Y013215D02*
X032978Y013215D01*
X032978Y013030D01*
X032855Y013092D01*
X032793Y013092D01*
X032731Y013030D01*
X032731Y012907D01*
X032793Y012845D01*
X032917Y012845D01*
X032978Y012907D01*
X033100Y012845D02*
X033347Y012845D01*
X033468Y012845D02*
X033592Y012968D01*
X033530Y012968D02*
X033715Y012968D01*
X033715Y012845D02*
X033715Y013215D01*
X033530Y013215D01*
X033468Y013154D01*
X033468Y013030D01*
X033530Y012968D01*
X033347Y013092D02*
X033223Y013215D01*
X033223Y012845D01*
X035225Y012907D02*
X035225Y013154D01*
X035287Y013215D01*
X035410Y013215D01*
X035472Y013154D01*
X035472Y013092D01*
X035410Y013030D01*
X035225Y013030D01*
X035225Y012907D02*
X035287Y012845D01*
X035410Y012845D01*
X035472Y012907D01*
X035593Y012845D02*
X035717Y012968D01*
X035655Y012968D02*
X035840Y012968D01*
X035840Y012845D02*
X035840Y013215D01*
X035655Y013215D01*
X035593Y013154D01*
X035593Y013030D01*
X035655Y012968D01*
X032987Y017127D02*
X032944Y017171D01*
X032595Y017171D01*
X032551Y017215D01*
X032726Y017389D01*
X032855Y017431D02*
X032855Y017519D01*
X032942Y017606D01*
X033030Y017606D01*
X033204Y017431D01*
X033204Y017344D01*
X033117Y017257D01*
X033030Y017257D01*
X032682Y017955D02*
X032594Y017955D01*
X032551Y017999D01*
X032551Y018086D01*
X032682Y018217D01*
X032769Y018130D01*
X032769Y018043D01*
X032682Y017955D01*
X032682Y018217D02*
X032507Y018217D01*
X032376Y018174D01*
X032680Y018390D02*
X032680Y018478D01*
X032768Y018565D01*
X032855Y018565D01*
X033029Y018390D01*
X033029Y018303D01*
X032942Y018216D01*
X032855Y018216D01*
X033595Y020270D02*
X033965Y020270D01*
X033965Y020455D01*
X033904Y020517D01*
X033780Y020517D01*
X033718Y020455D01*
X033718Y020270D01*
X033718Y020393D02*
X033595Y020517D01*
X033595Y020638D02*
X033595Y020885D01*
X033595Y020762D02*
X033965Y020762D01*
X033842Y020638D01*
X033904Y021007D02*
X033657Y021007D01*
X033904Y021254D01*
X033657Y021254D01*
X033595Y021192D01*
X033595Y021068D01*
X033657Y021007D01*
X033904Y021007D02*
X033965Y021068D01*
X033965Y021192D01*
X033904Y021254D01*
X036436Y021265D02*
X036436Y021204D01*
X036683Y020957D01*
X036683Y020895D01*
X036805Y020895D02*
X037052Y020895D01*
X036928Y020895D02*
X036928Y021265D01*
X037052Y021142D01*
X037173Y021204D02*
X037235Y021265D01*
X037358Y021265D01*
X037420Y021204D01*
X037420Y020957D01*
X037358Y020895D01*
X037235Y020895D01*
X037173Y020957D01*
X037235Y020515D02*
X037358Y020515D01*
X037420Y020454D01*
X037420Y020207D01*
X037358Y020145D01*
X037235Y020145D01*
X037173Y020207D01*
X037052Y020145D02*
X036805Y020145D01*
X036928Y020145D02*
X036928Y020515D01*
X037052Y020392D01*
X037173Y020454D02*
X037235Y020515D01*
X036683Y020454D02*
X036683Y020392D01*
X036622Y020330D01*
X036498Y020330D01*
X036436Y020268D01*
X036436Y020207D01*
X036498Y020145D01*
X036622Y020145D01*
X036683Y020207D01*
X036683Y020268D01*
X036622Y020330D01*
X036498Y020330D02*
X036436Y020392D01*
X036436Y020454D01*
X036498Y020515D01*
X036622Y020515D01*
X036683Y020454D01*
X036683Y021265D02*
X036436Y021265D01*
X040320Y023007D02*
X040382Y022945D01*
X040320Y023007D02*
X040320Y023130D01*
X040382Y023192D01*
X040443Y023192D01*
X040505Y023130D01*
X040505Y023007D01*
X040567Y022945D01*
X040629Y022945D01*
X040690Y023007D01*
X040690Y023130D01*
X040629Y023192D01*
X040690Y023437D02*
X040690Y023560D01*
X040690Y023498D02*
X040382Y023498D01*
X040320Y023437D01*
X040320Y023375D01*
X040382Y023313D01*
X040382Y023682D02*
X040320Y023743D01*
X040320Y023867D01*
X040382Y023929D01*
X040443Y023929D01*
X040505Y023867D01*
X040505Y023805D01*
X040505Y023867D02*
X040567Y023929D01*
X040629Y023929D01*
X040690Y023867D01*
X040690Y023743D01*
X040629Y023682D01*
X040657Y019760D02*
X040595Y019698D01*
X040595Y019575D01*
X040657Y019513D01*
X040780Y019513D02*
X040842Y019637D01*
X040842Y019698D01*
X040780Y019760D01*
X040657Y019760D01*
X040780Y019513D02*
X040965Y019513D01*
X040965Y019760D01*
X040904Y019392D02*
X040780Y019392D01*
X040718Y019330D01*
X040718Y019145D01*
X040595Y019145D02*
X040965Y019145D01*
X040965Y019330D01*
X040904Y019392D01*
X040718Y019268D02*
X040595Y019392D01*
X031415Y021507D02*
X031353Y021445D01*
X031230Y021445D01*
X031168Y021507D01*
X031168Y021568D01*
X031230Y021630D01*
X031353Y021630D01*
X031415Y021692D01*
X031415Y021754D01*
X031353Y021815D01*
X031230Y021815D01*
X031168Y021754D01*
X031047Y021630D02*
X030985Y021692D01*
X030862Y021692D01*
X030800Y021630D01*
X030800Y021568D01*
X031047Y021568D01*
X031047Y021507D02*
X031047Y021630D01*
X031047Y021507D02*
X030985Y021445D01*
X030862Y021445D01*
X030617Y021445D02*
X030617Y021754D01*
X030555Y021815D01*
X030555Y021630D02*
X030678Y021630D01*
X030433Y021507D02*
X030371Y021568D01*
X030186Y021568D01*
X030186Y021630D02*
X030186Y021445D01*
X030371Y021445D01*
X030433Y021507D01*
X030371Y021692D02*
X030248Y021692D01*
X030186Y021630D01*
X030050Y021315D02*
X030297Y020945D01*
X030480Y020945D02*
X030480Y021315D01*
X030665Y021130D01*
X030418Y021130D01*
X029928Y021254D02*
X029867Y021315D01*
X029743Y021315D01*
X029681Y021254D01*
X029681Y021192D01*
X029928Y020945D01*
X029681Y020945D01*
X029560Y021007D02*
X029313Y021254D01*
X029313Y021007D01*
X029375Y020945D01*
X029498Y020945D01*
X029560Y021007D01*
X029560Y021254D01*
X029498Y021315D01*
X029375Y021315D01*
X029313Y021254D01*
X029192Y021192D02*
X029068Y021315D01*
X029068Y020945D01*
X028945Y020945D02*
X029192Y020945D01*
X028823Y021130D02*
X028577Y021130D01*
X028638Y020945D02*
X028638Y021315D01*
X028823Y021130D01*
X028898Y021445D02*
X028960Y021507D01*
X028898Y021568D01*
X028713Y021568D01*
X028713Y021630D02*
X028713Y021445D01*
X028898Y021445D01*
X029081Y021445D02*
X029081Y021630D01*
X029143Y021692D01*
X029328Y021692D01*
X029328Y021445D01*
X029449Y021507D02*
X029449Y021815D01*
X029696Y021815D02*
X029696Y021507D01*
X029634Y021445D01*
X029511Y021445D01*
X029449Y021507D01*
X028898Y021692D02*
X028774Y021692D01*
X028713Y021630D01*
X028591Y021445D02*
X028468Y021445D01*
X028530Y021445D02*
X028530Y021815D01*
X028591Y021815D01*
X026824Y020388D02*
X026736Y020475D01*
X026649Y020475D01*
X026649Y020126D01*
X026562Y020126D01*
X026474Y020214D01*
X026474Y020301D01*
X026649Y020475D01*
X026824Y020388D02*
X026824Y020301D01*
X026649Y020126D01*
X026691Y019997D02*
X026866Y019822D01*
X026866Y020171D01*
X026909Y020215D01*
X026997Y020215D01*
X027084Y020128D01*
X027084Y020040D01*
X027170Y019955D02*
X027257Y019955D01*
X027344Y019867D01*
X027344Y019780D01*
X027170Y019605D01*
X027083Y019605D01*
X026995Y019693D01*
X026995Y019780D01*
X028128Y018568D02*
X028303Y018394D01*
X028303Y018655D01*
X028041Y018394D01*
X028302Y018220D02*
X028302Y018133D01*
X028389Y018046D01*
X028476Y018046D01*
X028651Y018220D01*
X028651Y018308D01*
X028563Y018395D01*
X028476Y018395D01*
X027956Y017640D02*
X028043Y017553D01*
X028043Y017465D01*
X027999Y017422D01*
X027912Y017422D01*
X027781Y017553D01*
X027869Y017640D02*
X027956Y017640D01*
X027869Y017640D02*
X027694Y017465D01*
X027694Y017378D01*
X027781Y017291D01*
X027869Y017291D01*
X027954Y017205D02*
X027954Y017117D01*
X028042Y017030D01*
X028129Y017030D01*
X028304Y017205D01*
X028304Y017292D01*
X028216Y017379D01*
X028129Y017379D01*
X025810Y017839D02*
X025548Y017577D01*
X025635Y017664D02*
X025504Y017795D01*
X025504Y017882D01*
X025592Y017970D01*
X025679Y017970D01*
X025810Y017839D01*
X025548Y017751D02*
X025373Y017751D01*
X025288Y017837D02*
X025113Y018012D01*
X025200Y017925D02*
X025462Y018186D01*
X025462Y018012D01*
X025604Y018270D02*
X025517Y018358D01*
X025517Y018445D01*
X025388Y018487D02*
X025388Y018836D01*
X025431Y018880D01*
X025519Y018880D01*
X025606Y018793D01*
X025606Y018705D01*
X025692Y018619D02*
X025779Y018619D01*
X025866Y018532D01*
X025866Y018445D01*
X025692Y018270D01*
X025604Y018270D01*
X025388Y018487D02*
X025213Y018662D01*
X025127Y018748D02*
X024953Y018922D01*
X025040Y018835D02*
X025302Y019097D01*
X025302Y018922D01*
X024954Y020815D02*
X024707Y020815D01*
X024645Y020877D01*
X024645Y021000D01*
X024707Y021062D01*
X024645Y021183D02*
X024892Y021430D01*
X024954Y021430D01*
X025015Y021369D01*
X025015Y021245D01*
X024954Y021183D01*
X024954Y021062D02*
X025015Y021000D01*
X025015Y020877D01*
X024954Y020815D01*
X024645Y021183D02*
X024645Y021430D01*
X024830Y021552D02*
X024830Y021799D01*
X024645Y021737D02*
X025015Y021737D01*
X024830Y021552D01*
X024140Y021613D02*
X024140Y021737D01*
X024079Y021799D01*
X024017Y021799D01*
X023955Y021737D01*
X023893Y021799D01*
X023832Y021799D01*
X023770Y021737D01*
X023770Y021613D01*
X023832Y021552D01*
X023770Y021430D02*
X023770Y021183D01*
X024017Y021430D01*
X024079Y021430D01*
X024140Y021369D01*
X024140Y021245D01*
X024079Y021183D01*
X024079Y021062D02*
X024140Y021000D01*
X024140Y020877D01*
X024079Y020815D01*
X023832Y020815D01*
X023770Y020877D01*
X023770Y021000D01*
X023832Y021062D01*
X024079Y021552D02*
X024140Y021613D01*
X023955Y021675D02*
X023955Y021737D01*
X020772Y020040D02*
X020649Y020040D01*
X020710Y020040D02*
X020710Y019670D01*
X020649Y019670D02*
X020772Y019670D01*
X020527Y019732D02*
X020465Y019670D01*
X020341Y019670D01*
X020280Y019732D01*
X020158Y019670D02*
X019911Y019670D01*
X020035Y019670D02*
X020035Y020040D01*
X020158Y019917D01*
X020280Y019979D02*
X020341Y020040D01*
X020465Y020040D01*
X020527Y019979D01*
X020527Y019732D01*
X023231Y017841D02*
X023318Y017929D01*
X023405Y017929D01*
X023580Y017754D01*
X023580Y017667D01*
X023493Y017579D01*
X023405Y017579D01*
X023363Y017450D02*
X023014Y017450D01*
X022970Y017494D01*
X022970Y017581D01*
X023058Y017668D01*
X023145Y017668D01*
X023231Y017754D02*
X023231Y017841D01*
X023363Y017450D02*
X023188Y017275D01*
X024014Y016624D02*
X024276Y016363D01*
X024363Y016450D02*
X024188Y016275D01*
X024188Y016624D02*
X024014Y016624D01*
X024231Y016754D02*
X024231Y016841D01*
X024318Y016929D01*
X024405Y016929D01*
X024580Y016754D01*
X024580Y016667D01*
X024493Y016579D01*
X024405Y016579D01*
X023215Y015954D02*
X023215Y015707D01*
X023154Y015585D02*
X023215Y015523D01*
X023215Y015400D01*
X023154Y015338D01*
X023154Y015217D02*
X023215Y015155D01*
X023215Y015032D01*
X023154Y014970D01*
X022907Y014970D01*
X022845Y015032D01*
X022845Y015155D01*
X022907Y015217D01*
X022845Y015338D02*
X023092Y015585D01*
X023154Y015585D01*
X022907Y015707D02*
X023154Y015954D01*
X023215Y015954D01*
X022907Y015707D02*
X022845Y015707D01*
X022845Y015585D02*
X022845Y015338D01*
X022165Y015273D02*
X022165Y015150D01*
X022104Y015088D01*
X022104Y014967D02*
X021857Y014967D01*
X021795Y014905D01*
X021795Y014720D01*
X022165Y014720D01*
X022165Y014905D01*
X022104Y014967D01*
X022165Y015273D02*
X022104Y015335D01*
X022042Y015335D01*
X021795Y015088D01*
X021795Y015335D01*
X023281Y014029D02*
X023281Y013967D01*
X023343Y013905D01*
X023467Y013905D01*
X023528Y013967D01*
X023528Y014029D01*
X023467Y014090D01*
X023343Y014090D01*
X023281Y014029D01*
X023343Y013905D02*
X023281Y013843D01*
X023281Y013782D01*
X023343Y013720D01*
X023467Y013720D01*
X023528Y013782D01*
X023528Y013843D01*
X023467Y013905D01*
X023650Y013967D02*
X023650Y014029D01*
X023712Y014090D01*
X023835Y014090D01*
X023897Y014029D01*
X024018Y014029D02*
X024080Y014090D01*
X024203Y014090D01*
X024265Y014029D01*
X024265Y013782D01*
X024203Y013720D01*
X024080Y013720D01*
X024018Y013782D01*
X023897Y013720D02*
X023650Y013967D01*
X023650Y013720D02*
X023897Y013720D01*
X023965Y013215D02*
X023780Y013215D01*
X023718Y013154D01*
X023718Y013030D01*
X023780Y012968D01*
X023965Y012968D01*
X023965Y012845D02*
X023965Y013215D01*
X023842Y012968D02*
X023718Y012845D01*
X023597Y012907D02*
X023597Y012968D01*
X023535Y013030D01*
X023412Y013030D01*
X023350Y012968D01*
X023350Y012907D01*
X023412Y012845D01*
X023535Y012845D01*
X023597Y012907D01*
X023535Y013030D02*
X023597Y013092D01*
X023597Y013154D01*
X023535Y013215D01*
X023412Y013215D01*
X023350Y013154D01*
X023350Y013092D01*
X023412Y013030D01*
X022215Y012968D02*
X022030Y012968D01*
X021968Y013030D01*
X021968Y013154D01*
X022030Y013215D01*
X022215Y013215D01*
X022215Y012845D01*
X022092Y012968D02*
X021968Y012845D01*
X021847Y012845D02*
X021600Y013092D01*
X021600Y013154D01*
X021662Y013215D01*
X021785Y013215D01*
X021847Y013154D01*
X021847Y012845D02*
X021600Y012845D01*
X021478Y012907D02*
X021417Y012845D01*
X021293Y012845D01*
X021231Y012907D01*
X021231Y013030D01*
X021293Y013092D01*
X021355Y013092D01*
X021478Y013030D01*
X021478Y013215D01*
X021231Y013215D01*
X019515Y013307D02*
X019145Y013307D01*
X019145Y013430D02*
X019145Y013183D01*
X019207Y013062D02*
X019145Y013000D01*
X019145Y012877D01*
X019207Y012815D01*
X019454Y012815D01*
X019515Y012877D01*
X019515Y013000D01*
X019454Y013062D01*
X019392Y013183D02*
X019515Y013307D01*
X019515Y013552D02*
X019330Y013552D01*
X019392Y013675D01*
X019392Y013737D01*
X019330Y013799D01*
X019207Y013799D01*
X019145Y013737D01*
X019145Y013613D01*
X019207Y013552D01*
X019515Y013552D02*
X019515Y013799D01*
X018515Y014107D02*
X018515Y014415D01*
X018268Y014415D02*
X018268Y014107D01*
X018330Y014045D01*
X018453Y014045D01*
X018515Y014107D01*
X018147Y014045D02*
X017900Y014292D01*
X017900Y014354D01*
X017962Y014415D01*
X018085Y014415D01*
X018147Y014354D01*
X018147Y014045D02*
X017900Y014045D01*
X018030Y012565D02*
X017968Y012504D01*
X017968Y012380D01*
X018030Y012318D01*
X018215Y012318D01*
X018215Y012195D02*
X018215Y012565D01*
X018030Y012565D01*
X018092Y012318D02*
X017968Y012195D01*
X017847Y012257D02*
X017785Y012195D01*
X017662Y012195D01*
X017600Y012257D01*
X017600Y012318D01*
X017662Y012380D01*
X017847Y012380D01*
X017847Y012257D01*
X017847Y012380D02*
X017723Y012504D01*
X017600Y012565D01*
X015765Y013002D02*
X015704Y012940D01*
X015457Y012940D01*
X015395Y013002D01*
X015395Y013125D01*
X015457Y013187D01*
X015395Y013308D02*
X015395Y013555D01*
X015395Y013432D02*
X015765Y013432D01*
X015642Y013308D01*
X015704Y013187D02*
X015765Y013125D01*
X015765Y013002D01*
X015580Y013677D02*
X015580Y013862D01*
X015518Y013924D01*
X015457Y013924D01*
X015395Y013862D01*
X015395Y013738D01*
X015457Y013677D01*
X015580Y013677D01*
X015704Y013800D01*
X015765Y013924D01*
X013965Y013944D02*
X013965Y013820D01*
X013904Y013758D01*
X013904Y013637D02*
X013780Y013637D01*
X013718Y013575D01*
X013718Y013390D01*
X013595Y013390D02*
X013965Y013390D01*
X013965Y013575D01*
X013904Y013637D01*
X013718Y013513D02*
X013595Y013637D01*
X013657Y013758D02*
X013595Y013820D01*
X013595Y013944D01*
X013657Y014005D01*
X013718Y014005D01*
X013780Y013944D01*
X013780Y013882D01*
X013780Y013944D02*
X013842Y014005D01*
X013904Y014005D01*
X013965Y013944D01*
X013842Y014127D02*
X013965Y014250D01*
X013595Y014250D01*
X013595Y014127D02*
X013595Y014374D01*
X025436Y012129D02*
X025436Y012067D01*
X025498Y012005D01*
X025436Y011943D01*
X025436Y011882D01*
X025498Y011820D01*
X025622Y011820D01*
X025683Y011882D01*
X025805Y011882D02*
X025805Y012129D01*
X025866Y012190D01*
X026052Y012190D01*
X026052Y011820D01*
X025866Y011820D01*
X025805Y011882D01*
X025560Y012005D02*
X025498Y012005D01*
X025436Y012129D02*
X025498Y012190D01*
X025622Y012190D01*
X025683Y012129D01*
X026895Y012120D02*
X026895Y012244D01*
X026957Y012305D01*
X026957Y012427D02*
X026895Y012488D01*
X026895Y012612D01*
X026957Y012674D01*
X027018Y012674D01*
X027080Y012612D01*
X027080Y012550D01*
X027080Y012612D02*
X027142Y012674D01*
X027204Y012674D01*
X027265Y012612D01*
X027265Y012488D01*
X027204Y012427D01*
X027204Y012305D02*
X027265Y012244D01*
X027265Y012120D01*
X027204Y012058D01*
X026957Y012058D01*
X026895Y012120D01*
X028231Y012504D02*
X028478Y012257D01*
X028478Y012195D01*
X028600Y012195D02*
X028847Y012195D01*
X028968Y012195D02*
X029092Y012318D01*
X029030Y012318D02*
X029215Y012318D01*
X029215Y012195D02*
X029215Y012565D01*
X029030Y012565D01*
X028968Y012504D01*
X028968Y012380D01*
X029030Y012318D01*
X028847Y012442D02*
X028723Y012565D01*
X028723Y012195D01*
X028478Y012565D02*
X028231Y012565D01*
X028231Y012504D01*
X028962Y014045D02*
X029085Y014045D01*
X029147Y014107D01*
X029268Y014107D02*
X029268Y014415D01*
X029147Y014354D02*
X029085Y014415D01*
X028962Y014415D01*
X028900Y014354D01*
X028900Y014292D01*
X028962Y014230D01*
X028900Y014168D01*
X028900Y014107D01*
X028962Y014045D01*
X028962Y014230D02*
X029023Y014230D01*
X029268Y014107D02*
X029330Y014045D01*
X029453Y014045D01*
X029515Y014107D01*
X029515Y014415D01*
X019095Y023520D02*
X019095Y023890D01*
X018910Y023890D01*
X018848Y023829D01*
X018848Y023705D01*
X018910Y023643D01*
X019095Y023643D01*
X018972Y023643D02*
X018848Y023520D01*
X018727Y023520D02*
X018480Y023520D01*
X018603Y023520D02*
X018603Y023890D01*
X018727Y023767D01*
X018358Y023829D02*
X018297Y023890D01*
X018173Y023890D01*
X018111Y023829D01*
X018111Y023767D01*
X018173Y023705D01*
X018111Y023643D01*
X018111Y023582D01*
X018173Y023520D01*
X018297Y023520D01*
X018358Y023582D01*
X018235Y023705D02*
X018173Y023705D01*
X018173Y024270D02*
X018173Y024640D01*
X018358Y024455D01*
X018111Y024455D01*
X018480Y024270D02*
X018727Y024270D01*
X018848Y024270D02*
X018972Y024393D01*
X018910Y024393D02*
X019095Y024393D01*
X019095Y024270D02*
X019095Y024640D01*
X018910Y024640D01*
X018848Y024579D01*
X018848Y024455D01*
X018910Y024393D01*
X018727Y024517D02*
X018603Y024640D01*
X018603Y024270D01*
X017083Y025795D02*
X017145Y025857D01*
X017083Y025795D02*
X016960Y025795D01*
X016898Y025857D01*
X016898Y025918D01*
X016960Y025980D01*
X017083Y025980D01*
X017145Y026042D01*
X017145Y026104D01*
X017083Y026165D01*
X016960Y026165D01*
X016898Y026104D01*
X016653Y026165D02*
X016530Y026165D01*
X016591Y026165D02*
X016591Y025857D01*
X016653Y025795D01*
X016715Y025795D01*
X016777Y025857D01*
X016408Y025795D02*
X016161Y026042D01*
X016161Y026104D01*
X016223Y026165D01*
X016347Y026165D01*
X016408Y026104D01*
X016408Y025795D02*
X016161Y025795D01*
X023156Y024779D02*
X023218Y024840D01*
X023342Y024840D01*
X023403Y024779D01*
X023525Y024779D02*
X023587Y024840D01*
X023710Y024840D01*
X023772Y024779D01*
X023893Y024779D02*
X023955Y024840D01*
X024078Y024840D01*
X024140Y024779D01*
X024140Y024532D01*
X024078Y024470D01*
X023955Y024470D01*
X023893Y024532D01*
X023772Y024470D02*
X023525Y024717D01*
X023525Y024779D01*
X023525Y024470D02*
X023772Y024470D01*
X023403Y024470D02*
X023156Y024717D01*
X023156Y024779D01*
X023156Y024470D02*
X023403Y024470D01*
X026056Y027945D02*
X026303Y027945D01*
X026180Y027945D02*
X026180Y028315D01*
X026303Y028192D01*
X026425Y028315D02*
X026548Y028315D01*
X026487Y028315D02*
X026487Y028007D01*
X026548Y027945D01*
X026610Y027945D01*
X026672Y028007D01*
X026793Y028007D02*
X026855Y027945D01*
X026978Y027945D01*
X027040Y028007D01*
X026978Y028130D02*
X026855Y028130D01*
X026793Y028068D01*
X026793Y028007D01*
X026978Y028130D02*
X027040Y028192D01*
X027040Y028254D01*
X026978Y028315D01*
X026855Y028315D01*
X026793Y028254D01*
X027531Y028782D02*
X027531Y029029D01*
X027593Y029090D01*
X027717Y029090D01*
X027778Y029029D01*
X027778Y028967D01*
X027717Y028905D01*
X027531Y028905D01*
X027531Y028782D02*
X027593Y028720D01*
X027717Y028720D01*
X027778Y028782D01*
X027900Y028720D02*
X028147Y028720D01*
X027900Y028967D01*
X027900Y029029D01*
X027962Y029090D01*
X028085Y029090D01*
X028147Y029029D01*
X028268Y029029D02*
X028330Y029090D01*
X028453Y029090D01*
X028515Y029029D01*
X028515Y028782D01*
X028453Y028720D01*
X028330Y028720D01*
X028268Y028782D01*
X027715Y030845D02*
X027715Y031215D01*
X027530Y031215D01*
X027468Y031154D01*
X027468Y031030D01*
X027530Y030968D01*
X027715Y030968D01*
X027592Y030968D02*
X027468Y030845D01*
X027347Y030845D02*
X027100Y031092D01*
X027100Y031154D01*
X027162Y031215D01*
X027285Y031215D01*
X027347Y031154D01*
X027347Y030845D02*
X027100Y030845D01*
X026978Y030845D02*
X026978Y030907D01*
X026731Y031154D01*
X026731Y031215D01*
X026978Y031215D01*
X024470Y031140D02*
X024470Y030770D01*
X024470Y030893D02*
X024285Y030893D01*
X024223Y030955D01*
X024223Y031079D01*
X024285Y031140D01*
X024470Y031140D01*
X024347Y030893D02*
X024223Y030770D01*
X024102Y030770D02*
X023855Y031017D01*
X023855Y031079D01*
X023916Y031140D01*
X024040Y031140D01*
X024102Y031079D01*
X024102Y030770D02*
X023855Y030770D01*
X023733Y030832D02*
X023733Y030893D01*
X023672Y030955D01*
X023548Y030955D01*
X023486Y030893D01*
X023486Y030832D01*
X023548Y030770D01*
X023672Y030770D01*
X023733Y030832D01*
X023672Y030955D02*
X023733Y031017D01*
X023733Y031079D01*
X023672Y031140D01*
X023548Y031140D01*
X023486Y031079D01*
X023486Y031017D01*
X023548Y030955D01*
X024093Y029090D02*
X024031Y029029D01*
X024278Y028782D01*
X024217Y028720D01*
X024093Y028720D01*
X024031Y028782D01*
X024031Y029029D01*
X024093Y029090D02*
X024217Y029090D01*
X024278Y029029D01*
X024278Y028782D01*
X024400Y028782D02*
X024462Y028720D01*
X024585Y028720D01*
X024647Y028782D01*
X024768Y028782D02*
X024830Y028720D01*
X024953Y028720D01*
X025015Y028782D01*
X025015Y029029D01*
X024953Y029090D01*
X024830Y029090D01*
X024768Y029029D01*
X024647Y029029D02*
X024585Y029090D01*
X024462Y029090D01*
X024400Y029029D01*
X024400Y028967D01*
X024462Y028905D01*
X024400Y028843D01*
X024400Y028782D01*
X024462Y028905D02*
X024523Y028905D01*
X028685Y025420D02*
X028772Y025508D01*
X028859Y025508D01*
X028945Y025594D02*
X029033Y025506D01*
X029120Y025506D01*
X029251Y025637D01*
X029338Y025550D02*
X029076Y025812D01*
X028945Y025681D01*
X028945Y025594D01*
X029164Y025550D02*
X029164Y025375D01*
X029078Y025290D02*
X028729Y025290D01*
X028685Y025333D01*
X028685Y025420D01*
X028599Y025247D02*
X028512Y025247D01*
X028424Y025160D01*
X028424Y025073D01*
X028468Y025029D01*
X028555Y025029D01*
X028555Y024942D01*
X028599Y024898D01*
X028686Y024898D01*
X028774Y024985D01*
X028774Y025073D01*
X028903Y025115D02*
X029078Y025290D01*
X028599Y025073D02*
X028555Y025029D01*
X031093Y028720D02*
X031093Y029090D01*
X031278Y028905D01*
X031031Y028905D01*
X031400Y028720D02*
X031647Y028720D01*
X031523Y028720D02*
X031523Y029090D01*
X031647Y028967D01*
X031768Y029029D02*
X031830Y029090D01*
X031953Y029090D01*
X032015Y029029D01*
X032015Y028782D01*
X031953Y028720D01*
X031830Y028720D01*
X031768Y028782D01*
X031340Y030845D02*
X031340Y031215D01*
X031155Y031215D01*
X031093Y031154D01*
X031093Y031030D01*
X031155Y030968D01*
X031340Y030968D01*
X031217Y030968D02*
X031093Y030845D01*
X030972Y030845D02*
X030725Y030845D01*
X030848Y030845D02*
X030848Y031215D01*
X030972Y031092D01*
X030603Y031092D02*
X030603Y031154D01*
X030542Y031215D01*
X030418Y031215D01*
X030356Y031154D01*
X030356Y031092D01*
X030418Y031030D01*
X030542Y031030D01*
X030603Y031092D01*
X030542Y031030D02*
X030603Y030968D01*
X030603Y030907D01*
X030542Y030845D01*
X030418Y030845D01*
X030356Y030907D01*
X030356Y030968D01*
X030418Y031030D01*
X033856Y030907D02*
X033918Y030845D01*
X034042Y030845D01*
X034103Y030907D01*
X033856Y031154D01*
X033856Y030907D01*
X033856Y031154D02*
X033918Y031215D01*
X034042Y031215D01*
X034103Y031154D01*
X034103Y030907D01*
X034225Y030845D02*
X034472Y030845D01*
X034225Y031092D01*
X034225Y031154D01*
X034287Y031215D01*
X034410Y031215D01*
X034472Y031154D01*
X034593Y031154D02*
X034593Y031030D01*
X034655Y030968D01*
X034840Y030968D01*
X034840Y030845D02*
X034840Y031215D01*
X034655Y031215D01*
X034593Y031154D01*
X034717Y030968D02*
X034593Y030845D01*
X034531Y029090D02*
X034778Y029090D01*
X034778Y028905D01*
X034655Y028967D01*
X034593Y028967D01*
X034531Y028905D01*
X034531Y028782D01*
X034593Y028720D01*
X034717Y028720D01*
X034778Y028782D01*
X034900Y028720D02*
X035147Y028720D01*
X034900Y028967D01*
X034900Y029029D01*
X034962Y029090D01*
X035085Y029090D01*
X035147Y029029D01*
X035268Y029029D02*
X035330Y029090D01*
X035453Y029090D01*
X035515Y029029D01*
X035515Y028782D01*
X035453Y028720D01*
X035330Y028720D01*
X035268Y028782D01*
X037656Y030907D02*
X037718Y030845D01*
X037842Y030845D01*
X037903Y030907D01*
X038025Y030845D02*
X038272Y030845D01*
X038148Y030845D02*
X038148Y031215D01*
X038272Y031092D01*
X038393Y031154D02*
X038455Y031215D01*
X038578Y031215D01*
X038640Y031154D01*
X038640Y030907D01*
X038578Y030845D01*
X038455Y030845D01*
X038393Y030907D01*
X037903Y031092D02*
X037842Y031030D01*
X037656Y031030D01*
X037656Y030907D02*
X037656Y031154D01*
X037718Y031215D01*
X037842Y031215D01*
X037903Y031154D01*
X037903Y031092D01*
D13*
X030180Y024214D02*
X032964Y021430D01*
X030180Y018646D01*
X027396Y021430D01*
X030180Y024214D01*
X030077Y018990D02*
X030079Y019011D01*
X030085Y019030D01*
X030094Y019049D01*
X030106Y019065D01*
X030122Y019079D01*
X030139Y019090D01*
X030158Y019098D01*
X030179Y019102D01*
X030199Y019102D01*
X030220Y019098D01*
X030239Y019090D01*
X030256Y019079D01*
X030272Y019065D01*
X030284Y019049D01*
X030293Y019030D01*
X030299Y019011D01*
X030301Y018990D01*
X030299Y018969D01*
X030293Y018950D01*
X030284Y018931D01*
X030272Y018915D01*
X030256Y018901D01*
X030239Y018890D01*
X030220Y018882D01*
X030199Y018878D01*
X030179Y018878D01*
X030158Y018882D01*
X030139Y018890D01*
X030122Y018901D01*
X030106Y018915D01*
X030094Y018931D01*
X030085Y018950D01*
X030079Y018969D01*
X030077Y018990D01*
D14*
X031109Y018232D02*
X031194Y018317D01*
X031279Y018317D01*
X031370Y018408D02*
X031370Y018493D01*
X031454Y018577D01*
X031539Y018577D01*
X031709Y018408D01*
X031709Y018323D01*
X031624Y018238D01*
X031539Y018238D01*
X031491Y018105D02*
X031152Y018105D01*
X031109Y018147D01*
X031109Y018232D01*
X031321Y017935D02*
X031491Y018105D01*
X031840Y018454D02*
X031925Y018539D01*
X031883Y018496D02*
X031628Y018751D01*
X031586Y018709D02*
X031671Y018794D01*
X033930Y016820D02*
X033930Y015040D01*
X035430Y015040D02*
X035430Y016820D01*
X026555Y014570D02*
X026555Y012790D01*
X025055Y012790D02*
X025055Y014570D01*
X021680Y014665D02*
X021680Y016445D01*
X020180Y016445D02*
X020180Y014665D01*
X017838Y015963D02*
X017675Y016126D01*
X017566Y016126D01*
X017458Y016017D01*
X017458Y015909D01*
X017621Y015746D01*
X017512Y015638D02*
X017838Y015963D01*
X017512Y015855D02*
X017295Y015855D01*
X017241Y016017D02*
X017132Y016017D01*
X017024Y016126D01*
X017024Y016234D01*
X017078Y016289D01*
X017187Y016289D01*
X017241Y016234D01*
X017187Y016289D02*
X017187Y016397D01*
X017241Y016451D01*
X017349Y016451D01*
X017458Y016343D01*
X017458Y016234D01*
X017132Y016560D02*
X017132Y016668D01*
X017024Y016777D01*
X016915Y016777D01*
X016915Y016343D01*
X016807Y016343D01*
X016698Y016451D01*
X016698Y016560D01*
X016915Y016777D01*
X017132Y016560D02*
X016915Y016343D01*
D15*
X017511Y013990D02*
X017849Y013990D01*
X017361Y013536D02*
X017361Y013324D01*
X017511Y012870D02*
X017849Y012870D01*
X020536Y015631D02*
X020930Y015228D01*
X021324Y015631D01*
X020536Y015631D01*
X025411Y013604D02*
X026199Y013604D01*
X025805Y014007D01*
X025411Y013604D01*
X028361Y013536D02*
X028361Y013324D01*
X028511Y012870D02*
X028849Y012870D01*
X028849Y013990D02*
X028511Y013990D01*
X030556Y016928D02*
X029553Y017931D01*
X030054Y018432D01*
X031057Y017429D01*
X030556Y016928D01*
X034286Y016006D02*
X035074Y016006D01*
X034680Y015603D01*
X034286Y016006D01*
D16*
X029688Y018493D02*
X029532Y018649D01*
X029427Y018754D02*
X029310Y018871D01*
X029232Y018871D01*
X029194Y018832D01*
X029194Y018754D01*
X029310Y018637D01*
X029194Y018520D02*
X029427Y018754D01*
X029194Y018754D02*
X029116Y018754D01*
X029077Y018715D01*
X029077Y018637D01*
X029194Y018520D01*
X029493Y018454D02*
X029571Y018377D01*
X029688Y018493D02*
X029454Y018260D01*
X028933Y018781D02*
X028777Y018936D01*
X028855Y018859D02*
X029089Y019092D01*
X029089Y018936D01*
D17*
X022082Y020383D02*
X019778Y020383D01*
X019778Y024477D01*
X022082Y024477D01*
X022082Y020383D01*
X019981Y020767D02*
X019983Y020793D01*
X019989Y020819D01*
X019998Y020844D01*
X020011Y020867D01*
X020027Y020888D01*
X020046Y020906D01*
X020068Y020922D01*
X020091Y020934D01*
X020116Y020942D01*
X020142Y020947D01*
X020169Y020948D01*
X020195Y020945D01*
X020220Y020938D01*
X020245Y020928D01*
X020267Y020914D01*
X020288Y020897D01*
X020305Y020878D01*
X020320Y020856D01*
X020331Y020832D01*
X020339Y020806D01*
X020343Y020780D01*
X020343Y020754D01*
X020339Y020728D01*
X020331Y020702D01*
X020320Y020678D01*
X020305Y020656D01*
X020288Y020637D01*
X020267Y020620D01*
X020245Y020606D01*
X020220Y020596D01*
X020195Y020589D01*
X020169Y020586D01*
X020142Y020587D01*
X020116Y020592D01*
X020091Y020600D01*
X020068Y020612D01*
X020046Y020628D01*
X020027Y020646D01*
X020011Y020667D01*
X019998Y020690D01*
X019989Y020715D01*
X019983Y020741D01*
X019981Y020767D01*
X015805Y025655D02*
X014805Y025655D01*
X014788Y025657D01*
X014771Y025661D01*
X014755Y025668D01*
X014741Y025678D01*
X014728Y025691D01*
X014718Y025705D01*
X014711Y025721D01*
X014707Y025738D01*
X014705Y025755D01*
X014705Y026355D01*
X014707Y026372D01*
X014711Y026389D01*
X014718Y026405D01*
X014728Y026419D01*
X014741Y026432D01*
X014755Y026442D01*
X014771Y026449D01*
X014788Y026453D01*
X014805Y026455D01*
X015805Y026455D01*
X015822Y026453D01*
X015839Y026449D01*
X015855Y026442D01*
X015869Y026432D01*
X015882Y026419D01*
X015892Y026405D01*
X015899Y026389D01*
X015903Y026372D01*
X015905Y026355D01*
X015905Y025755D01*
X015903Y025738D01*
X015899Y025721D01*
X015892Y025705D01*
X015882Y025691D01*
X015869Y025678D01*
X015855Y025668D01*
X015839Y025661D01*
X015822Y025657D01*
X015805Y025655D01*
X027205Y027755D02*
X027205Y028355D01*
X027207Y028372D01*
X027211Y028389D01*
X027218Y028405D01*
X027228Y028419D01*
X027241Y028432D01*
X027255Y028442D01*
X027271Y028449D01*
X027288Y028453D01*
X027305Y028455D01*
X028305Y028455D01*
X028322Y028453D01*
X028339Y028449D01*
X028355Y028442D01*
X028369Y028432D01*
X028382Y028419D01*
X028392Y028405D01*
X028399Y028389D01*
X028403Y028372D01*
X028405Y028355D01*
X028405Y027755D01*
X028403Y027738D01*
X028399Y027721D01*
X028392Y027705D01*
X028382Y027691D01*
X028369Y027678D01*
X028355Y027668D01*
X028339Y027661D01*
X028322Y027657D01*
X028305Y027655D01*
X027305Y027655D01*
X027288Y027657D01*
X027271Y027661D01*
X027255Y027668D01*
X027241Y027678D01*
X027228Y027691D01*
X027218Y027705D01*
X027211Y027721D01*
X027207Y027738D01*
X027205Y027755D01*
X039405Y023930D02*
X039405Y022930D01*
X039407Y022913D01*
X039411Y022896D01*
X039418Y022880D01*
X039428Y022866D01*
X039441Y022853D01*
X039455Y022843D01*
X039471Y022836D01*
X039488Y022832D01*
X039505Y022830D01*
X040105Y022830D01*
X040122Y022832D01*
X040139Y022836D01*
X040155Y022843D01*
X040169Y022853D01*
X040182Y022866D01*
X040192Y022880D01*
X040199Y022896D01*
X040203Y022913D01*
X040205Y022930D01*
X040205Y023930D01*
X040203Y023947D01*
X040199Y023964D01*
X040192Y023980D01*
X040182Y023994D01*
X040169Y024007D01*
X040155Y024017D01*
X040139Y024024D01*
X040122Y024028D01*
X040105Y024030D01*
X039505Y024030D01*
X039488Y024028D01*
X039471Y024024D01*
X039455Y024017D01*
X039441Y024007D01*
X039428Y023994D01*
X039418Y023980D01*
X039411Y023964D01*
X039407Y023947D01*
X039405Y023930D01*
X029260Y012010D02*
X028090Y012010D01*
X028090Y010850D02*
X029260Y010850D01*
X018260Y010850D02*
X017090Y010850D01*
X017090Y012010D02*
X018260Y012010D01*
M02*
