G75*
G70*
%OFA0B0*%
%FSLAX24Y24*%
%IPPOS*%
%LPD*%
%AMOC8*
5,1,8,0,0,1.08239X$1,22.5*
%
%ADD10C,0.0000*%
%ADD11R,0.9000X0.1000*%
%ADD12R,0.1250X0.3500*%
%ADD13R,0.6000X0.1000*%
%ADD14R,0.0158X0.0591*%
%ADD15C,0.0520*%
%ADD16R,0.0886X0.0749*%
%ADD17R,0.0552X0.0631*%
%ADD18OC8,0.0580*%
%ADD19R,0.0540X0.0290*%
%ADD20R,0.0512X0.0257*%
%ADD21C,0.0780*%
%ADD22R,0.0631X0.0552*%
%ADD23C,0.0512*%
%ADD24C,0.1142*%
%ADD25C,0.1440*%
%ADD26R,0.0590X0.0177*%
%ADD27R,0.0768X0.0768*%
%ADD28C,0.0768*%
%ADD29C,0.0400*%
%ADD30C,0.0700*%
%ADD31C,0.1340*%
%ADD32R,0.0749X0.1300*%
%ADD33C,0.0740*%
%ADD34R,0.0985X0.0985*%
%ADD35C,0.0640*%
%ADD36R,0.0290X0.0540*%
%ADD37C,0.0434*%
%ADD38R,0.0670X0.0750*%
%ADD39R,0.0750X0.0670*%
%ADD40C,0.0600*%
D10*
X011180Y009430D02*
X011180Y029430D01*
X011182Y029525D01*
X011189Y029620D01*
X011200Y029715D01*
X011216Y029809D01*
X011236Y029902D01*
X011261Y029993D01*
X011290Y030084D01*
X011323Y030173D01*
X011361Y030261D01*
X011402Y030346D01*
X011448Y030430D01*
X011497Y030511D01*
X011551Y030590D01*
X011608Y030666D01*
X011669Y030740D01*
X011733Y030810D01*
X011800Y030877D01*
X011870Y030941D01*
X011944Y031002D01*
X012020Y031059D01*
X012099Y031113D01*
X012180Y031162D01*
X012264Y031208D01*
X012349Y031249D01*
X012437Y031287D01*
X012526Y031320D01*
X012617Y031349D01*
X012708Y031374D01*
X012801Y031394D01*
X012895Y031410D01*
X012990Y031421D01*
X013085Y031428D01*
X013180Y031430D01*
X040679Y031430D01*
X040774Y031428D01*
X040869Y031421D01*
X040964Y031410D01*
X041057Y031394D01*
X041150Y031374D01*
X041242Y031349D01*
X041333Y031320D01*
X041422Y031287D01*
X041510Y031249D01*
X041596Y031208D01*
X041679Y031162D01*
X041760Y031112D01*
X041839Y031059D01*
X041915Y031002D01*
X041989Y030941D01*
X042059Y030877D01*
X042127Y030810D01*
X042191Y030740D01*
X042251Y030666D01*
X042308Y030590D01*
X042362Y030511D01*
X042411Y030430D01*
X042457Y030346D01*
X042498Y030261D01*
X042536Y030173D01*
X042569Y030084D01*
X042598Y029993D01*
X042623Y029901D01*
X042643Y029808D01*
X042659Y029714D01*
X042670Y029620D01*
X042677Y029525D01*
X042679Y029429D01*
X042679Y029430D02*
X042673Y009430D01*
X042671Y009335D01*
X042664Y009240D01*
X042653Y009146D01*
X042637Y009052D01*
X042617Y008959D01*
X042592Y008867D01*
X042563Y008776D01*
X042530Y008687D01*
X042492Y008599D01*
X042451Y008514D01*
X042405Y008430D01*
X042356Y008349D01*
X042302Y008270D01*
X042245Y008194D01*
X042185Y008120D01*
X042121Y008050D01*
X042053Y007983D01*
X041983Y007919D01*
X041909Y007858D01*
X041833Y007801D01*
X041754Y007748D01*
X041673Y007698D01*
X041590Y007652D01*
X041504Y007611D01*
X041416Y007573D01*
X041327Y007540D01*
X041237Y007511D01*
X041145Y007486D01*
X041052Y007466D01*
X040958Y007450D01*
X040863Y007439D01*
X040768Y007432D01*
X040673Y007430D01*
X013180Y007430D01*
X013085Y007432D01*
X012990Y007439D01*
X012895Y007450D01*
X012801Y007466D01*
X012708Y007486D01*
X012617Y007511D01*
X012526Y007540D01*
X012437Y007573D01*
X012349Y007611D01*
X012264Y007652D01*
X012180Y007698D01*
X012099Y007747D01*
X012020Y007801D01*
X011944Y007858D01*
X011870Y007919D01*
X011800Y007983D01*
X011733Y008050D01*
X011669Y008120D01*
X011608Y008194D01*
X011551Y008270D01*
X011497Y008349D01*
X011448Y008430D01*
X011402Y008514D01*
X011361Y008599D01*
X011323Y008687D01*
X011290Y008776D01*
X011261Y008867D01*
X011236Y008958D01*
X011216Y009051D01*
X011200Y009145D01*
X011189Y009240D01*
X011182Y009335D01*
X011180Y009430D01*
X011629Y014930D02*
X011631Y014977D01*
X011637Y015023D01*
X011647Y015069D01*
X011660Y015114D01*
X011678Y015157D01*
X011699Y015199D01*
X011723Y015239D01*
X011751Y015276D01*
X011782Y015311D01*
X011816Y015344D01*
X011852Y015373D01*
X011891Y015399D01*
X011932Y015422D01*
X011975Y015441D01*
X012019Y015457D01*
X012064Y015469D01*
X012110Y015477D01*
X012157Y015481D01*
X012203Y015481D01*
X012250Y015477D01*
X012296Y015469D01*
X012341Y015457D01*
X012385Y015441D01*
X012428Y015422D01*
X012469Y015399D01*
X012508Y015373D01*
X012544Y015344D01*
X012578Y015311D01*
X012609Y015276D01*
X012637Y015239D01*
X012661Y015199D01*
X012682Y015157D01*
X012700Y015114D01*
X012713Y015069D01*
X012723Y015023D01*
X012729Y014977D01*
X012731Y014930D01*
X012729Y014883D01*
X012723Y014837D01*
X012713Y014791D01*
X012700Y014746D01*
X012682Y014703D01*
X012661Y014661D01*
X012637Y014621D01*
X012609Y014584D01*
X012578Y014549D01*
X012544Y014516D01*
X012508Y014487D01*
X012469Y014461D01*
X012428Y014438D01*
X012385Y014419D01*
X012341Y014403D01*
X012296Y014391D01*
X012250Y014383D01*
X012203Y014379D01*
X012157Y014379D01*
X012110Y014383D01*
X012064Y014391D01*
X012019Y014403D01*
X011975Y014419D01*
X011932Y014438D01*
X011891Y014461D01*
X011852Y014487D01*
X011816Y014516D01*
X011782Y014549D01*
X011751Y014584D01*
X011723Y014621D01*
X011699Y014661D01*
X011678Y014703D01*
X011660Y014746D01*
X011647Y014791D01*
X011637Y014837D01*
X011631Y014883D01*
X011629Y014930D01*
X011629Y027103D02*
X011631Y027150D01*
X011637Y027196D01*
X011647Y027242D01*
X011660Y027287D01*
X011678Y027330D01*
X011699Y027372D01*
X011723Y027412D01*
X011751Y027449D01*
X011782Y027484D01*
X011816Y027517D01*
X011852Y027546D01*
X011891Y027572D01*
X011932Y027595D01*
X011975Y027614D01*
X012019Y027630D01*
X012064Y027642D01*
X012110Y027650D01*
X012157Y027654D01*
X012203Y027654D01*
X012250Y027650D01*
X012296Y027642D01*
X012341Y027630D01*
X012385Y027614D01*
X012428Y027595D01*
X012469Y027572D01*
X012508Y027546D01*
X012544Y027517D01*
X012578Y027484D01*
X012609Y027449D01*
X012637Y027412D01*
X012661Y027372D01*
X012682Y027330D01*
X012700Y027287D01*
X012713Y027242D01*
X012723Y027196D01*
X012729Y027150D01*
X012731Y027103D01*
X012729Y027056D01*
X012723Y027010D01*
X012713Y026964D01*
X012700Y026919D01*
X012682Y026876D01*
X012661Y026834D01*
X012637Y026794D01*
X012609Y026757D01*
X012578Y026722D01*
X012544Y026689D01*
X012508Y026660D01*
X012469Y026634D01*
X012428Y026611D01*
X012385Y026592D01*
X012341Y026576D01*
X012296Y026564D01*
X012250Y026556D01*
X012203Y026552D01*
X012157Y026552D01*
X012110Y026556D01*
X012064Y026564D01*
X012019Y026576D01*
X011975Y026592D01*
X011932Y026611D01*
X011891Y026634D01*
X011852Y026660D01*
X011816Y026689D01*
X011782Y026722D01*
X011751Y026757D01*
X011723Y026794D01*
X011699Y026834D01*
X011678Y026876D01*
X011660Y026919D01*
X011647Y026964D01*
X011637Y027010D01*
X011631Y027056D01*
X011629Y027103D01*
X041125Y027103D02*
X041127Y027150D01*
X041133Y027196D01*
X041143Y027242D01*
X041156Y027287D01*
X041174Y027330D01*
X041195Y027372D01*
X041219Y027412D01*
X041247Y027449D01*
X041278Y027484D01*
X041312Y027517D01*
X041348Y027546D01*
X041387Y027572D01*
X041428Y027595D01*
X041471Y027614D01*
X041515Y027630D01*
X041560Y027642D01*
X041606Y027650D01*
X041653Y027654D01*
X041699Y027654D01*
X041746Y027650D01*
X041792Y027642D01*
X041837Y027630D01*
X041881Y027614D01*
X041924Y027595D01*
X041965Y027572D01*
X042004Y027546D01*
X042040Y027517D01*
X042074Y027484D01*
X042105Y027449D01*
X042133Y027412D01*
X042157Y027372D01*
X042178Y027330D01*
X042196Y027287D01*
X042209Y027242D01*
X042219Y027196D01*
X042225Y027150D01*
X042227Y027103D01*
X042225Y027056D01*
X042219Y027010D01*
X042209Y026964D01*
X042196Y026919D01*
X042178Y026876D01*
X042157Y026834D01*
X042133Y026794D01*
X042105Y026757D01*
X042074Y026722D01*
X042040Y026689D01*
X042004Y026660D01*
X041965Y026634D01*
X041924Y026611D01*
X041881Y026592D01*
X041837Y026576D01*
X041792Y026564D01*
X041746Y026556D01*
X041699Y026552D01*
X041653Y026552D01*
X041606Y026556D01*
X041560Y026564D01*
X041515Y026576D01*
X041471Y026592D01*
X041428Y026611D01*
X041387Y026634D01*
X041348Y026660D01*
X041312Y026689D01*
X041278Y026722D01*
X041247Y026757D01*
X041219Y026794D01*
X041195Y026834D01*
X041174Y026876D01*
X041156Y026919D01*
X041143Y026964D01*
X041133Y027010D01*
X041127Y027056D01*
X041125Y027103D01*
X041125Y014930D02*
X041127Y014977D01*
X041133Y015023D01*
X041143Y015069D01*
X041156Y015114D01*
X041174Y015157D01*
X041195Y015199D01*
X041219Y015239D01*
X041247Y015276D01*
X041278Y015311D01*
X041312Y015344D01*
X041348Y015373D01*
X041387Y015399D01*
X041428Y015422D01*
X041471Y015441D01*
X041515Y015457D01*
X041560Y015469D01*
X041606Y015477D01*
X041653Y015481D01*
X041699Y015481D01*
X041746Y015477D01*
X041792Y015469D01*
X041837Y015457D01*
X041881Y015441D01*
X041924Y015422D01*
X041965Y015399D01*
X042004Y015373D01*
X042040Y015344D01*
X042074Y015311D01*
X042105Y015276D01*
X042133Y015239D01*
X042157Y015199D01*
X042178Y015157D01*
X042196Y015114D01*
X042209Y015069D01*
X042219Y015023D01*
X042225Y014977D01*
X042227Y014930D01*
X042225Y014883D01*
X042219Y014837D01*
X042209Y014791D01*
X042196Y014746D01*
X042178Y014703D01*
X042157Y014661D01*
X042133Y014621D01*
X042105Y014584D01*
X042074Y014549D01*
X042040Y014516D01*
X042004Y014487D01*
X041965Y014461D01*
X041924Y014438D01*
X041881Y014419D01*
X041837Y014403D01*
X041792Y014391D01*
X041746Y014383D01*
X041699Y014379D01*
X041653Y014379D01*
X041606Y014383D01*
X041560Y014391D01*
X041515Y014403D01*
X041471Y014419D01*
X041428Y014438D01*
X041387Y014461D01*
X041348Y014487D01*
X041312Y014516D01*
X041278Y014549D01*
X041247Y014584D01*
X041219Y014621D01*
X041195Y014661D01*
X041174Y014703D01*
X041156Y014746D01*
X041143Y014791D01*
X041133Y014837D01*
X041127Y014883D01*
X041125Y014930D01*
D11*
X029180Y011430D03*
X017180Y011430D03*
D12*
X015055Y010180D03*
X019805Y010180D03*
X026055Y010180D03*
X030805Y010180D03*
D13*
X028430Y008930D03*
X017430Y008930D03*
D14*
G36*
X029318Y018647D02*
X029206Y018759D01*
X029622Y019175D01*
X029734Y019063D01*
X029318Y018647D01*
G37*
G36*
X029457Y018507D02*
X029345Y018619D01*
X029761Y019035D01*
X029873Y018923D01*
X029457Y018507D01*
G37*
G36*
X029179Y018786D02*
X029067Y018898D01*
X029483Y019314D01*
X029595Y019202D01*
X029179Y018786D01*
G37*
G36*
X029040Y018925D02*
X028928Y019037D01*
X029344Y019453D01*
X029456Y019341D01*
X029040Y018925D01*
G37*
G36*
X028901Y019064D02*
X028789Y019176D01*
X029205Y019592D01*
X029317Y019480D01*
X028901Y019064D01*
G37*
G36*
X028761Y019203D02*
X028649Y019315D01*
X029065Y019731D01*
X029177Y019619D01*
X028761Y019203D01*
G37*
G36*
X028622Y019343D02*
X028510Y019455D01*
X028926Y019871D01*
X029038Y019759D01*
X028622Y019343D01*
G37*
G36*
X028483Y019482D02*
X028371Y019594D01*
X028787Y020010D01*
X028899Y019898D01*
X028483Y019482D01*
G37*
G36*
X028344Y019621D02*
X028232Y019733D01*
X028648Y020149D01*
X028760Y020037D01*
X028344Y019621D01*
G37*
G36*
X028205Y019760D02*
X028093Y019872D01*
X028509Y020288D01*
X028621Y020176D01*
X028205Y019760D01*
G37*
G36*
X028065Y019899D02*
X027953Y020011D01*
X028369Y020427D01*
X028481Y020315D01*
X028065Y019899D01*
G37*
G36*
X027926Y020039D02*
X027814Y020151D01*
X028230Y020567D01*
X028342Y020455D01*
X027926Y020039D01*
G37*
G36*
X027787Y020178D02*
X027675Y020290D01*
X028091Y020706D01*
X028203Y020594D01*
X027787Y020178D01*
G37*
G36*
X027648Y020317D02*
X027536Y020429D01*
X027952Y020845D01*
X028064Y020733D01*
X027648Y020317D01*
G37*
G36*
X027509Y020456D02*
X027397Y020568D01*
X027813Y020984D01*
X027925Y020872D01*
X027509Y020456D01*
G37*
G36*
X027369Y020595D02*
X027257Y020707D01*
X027673Y021123D01*
X027785Y021011D01*
X027369Y020595D01*
G37*
G36*
X027785Y021849D02*
X027673Y021737D01*
X027257Y022153D01*
X027369Y022265D01*
X027785Y021849D01*
G37*
G36*
X027925Y021988D02*
X027813Y021876D01*
X027397Y022292D01*
X027509Y022404D01*
X027925Y021988D01*
G37*
G36*
X028064Y022127D02*
X027952Y022015D01*
X027536Y022431D01*
X027648Y022543D01*
X028064Y022127D01*
G37*
G36*
X028203Y022266D02*
X028091Y022154D01*
X027675Y022570D01*
X027787Y022682D01*
X028203Y022266D01*
G37*
G36*
X028342Y022405D02*
X028230Y022293D01*
X027814Y022709D01*
X027926Y022821D01*
X028342Y022405D01*
G37*
G36*
X028481Y022545D02*
X028369Y022433D01*
X027953Y022849D01*
X028065Y022961D01*
X028481Y022545D01*
G37*
G36*
X028621Y022684D02*
X028509Y022572D01*
X028093Y022988D01*
X028205Y023100D01*
X028621Y022684D01*
G37*
G36*
X028760Y022823D02*
X028648Y022711D01*
X028232Y023127D01*
X028344Y023239D01*
X028760Y022823D01*
G37*
G36*
X028899Y022962D02*
X028787Y022850D01*
X028371Y023266D01*
X028483Y023378D01*
X028899Y022962D01*
G37*
G36*
X029038Y023101D02*
X028926Y022989D01*
X028510Y023405D01*
X028622Y023517D01*
X029038Y023101D01*
G37*
G36*
X029177Y023241D02*
X029065Y023129D01*
X028649Y023545D01*
X028761Y023657D01*
X029177Y023241D01*
G37*
G36*
X029317Y023380D02*
X029205Y023268D01*
X028789Y023684D01*
X028901Y023796D01*
X029317Y023380D01*
G37*
G36*
X029456Y023519D02*
X029344Y023407D01*
X028928Y023823D01*
X029040Y023935D01*
X029456Y023519D01*
G37*
G36*
X029595Y023658D02*
X029483Y023546D01*
X029067Y023962D01*
X029179Y024074D01*
X029595Y023658D01*
G37*
G36*
X029734Y023797D02*
X029622Y023685D01*
X029206Y024101D01*
X029318Y024213D01*
X029734Y023797D01*
G37*
G36*
X029873Y023937D02*
X029761Y023825D01*
X029345Y024241D01*
X029457Y024353D01*
X029873Y023937D01*
G37*
G36*
X030599Y023825D02*
X030487Y023937D01*
X030903Y024353D01*
X031015Y024241D01*
X030599Y023825D01*
G37*
G36*
X030738Y023685D02*
X030626Y023797D01*
X031042Y024213D01*
X031154Y024101D01*
X030738Y023685D01*
G37*
G36*
X030877Y023546D02*
X030765Y023658D01*
X031181Y024074D01*
X031293Y023962D01*
X030877Y023546D01*
G37*
G36*
X031016Y023407D02*
X030904Y023519D01*
X031320Y023935D01*
X031432Y023823D01*
X031016Y023407D01*
G37*
G36*
X031155Y023268D02*
X031043Y023380D01*
X031459Y023796D01*
X031571Y023684D01*
X031155Y023268D01*
G37*
G36*
X031295Y023129D02*
X031183Y023241D01*
X031599Y023657D01*
X031711Y023545D01*
X031295Y023129D01*
G37*
G36*
X031434Y022989D02*
X031322Y023101D01*
X031738Y023517D01*
X031850Y023405D01*
X031434Y022989D01*
G37*
G36*
X031573Y022850D02*
X031461Y022962D01*
X031877Y023378D01*
X031989Y023266D01*
X031573Y022850D01*
G37*
G36*
X031712Y022711D02*
X031600Y022823D01*
X032016Y023239D01*
X032128Y023127D01*
X031712Y022711D01*
G37*
G36*
X031851Y022572D02*
X031739Y022684D01*
X032155Y023100D01*
X032267Y022988D01*
X031851Y022572D01*
G37*
G36*
X031991Y022433D02*
X031879Y022545D01*
X032295Y022961D01*
X032407Y022849D01*
X031991Y022433D01*
G37*
G36*
X032130Y022293D02*
X032018Y022405D01*
X032434Y022821D01*
X032546Y022709D01*
X032130Y022293D01*
G37*
G36*
X032269Y022154D02*
X032157Y022266D01*
X032573Y022682D01*
X032685Y022570D01*
X032269Y022154D01*
G37*
G36*
X032408Y022015D02*
X032296Y022127D01*
X032712Y022543D01*
X032824Y022431D01*
X032408Y022015D01*
G37*
G36*
X032547Y021876D02*
X032435Y021988D01*
X032851Y022404D01*
X032963Y022292D01*
X032547Y021876D01*
G37*
G36*
X032687Y021737D02*
X032575Y021849D01*
X032991Y022265D01*
X033103Y022153D01*
X032687Y021737D01*
G37*
G36*
X033103Y020707D02*
X032991Y020595D01*
X032575Y021011D01*
X032687Y021123D01*
X033103Y020707D01*
G37*
G36*
X032963Y020568D02*
X032851Y020456D01*
X032435Y020872D01*
X032547Y020984D01*
X032963Y020568D01*
G37*
G36*
X032824Y020429D02*
X032712Y020317D01*
X032296Y020733D01*
X032408Y020845D01*
X032824Y020429D01*
G37*
G36*
X032685Y020290D02*
X032573Y020178D01*
X032157Y020594D01*
X032269Y020706D01*
X032685Y020290D01*
G37*
G36*
X032546Y020151D02*
X032434Y020039D01*
X032018Y020455D01*
X032130Y020567D01*
X032546Y020151D01*
G37*
G36*
X032407Y020011D02*
X032295Y019899D01*
X031879Y020315D01*
X031991Y020427D01*
X032407Y020011D01*
G37*
G36*
X032267Y019872D02*
X032155Y019760D01*
X031739Y020176D01*
X031851Y020288D01*
X032267Y019872D01*
G37*
G36*
X032128Y019733D02*
X032016Y019621D01*
X031600Y020037D01*
X031712Y020149D01*
X032128Y019733D01*
G37*
G36*
X031989Y019594D02*
X031877Y019482D01*
X031461Y019898D01*
X031573Y020010D01*
X031989Y019594D01*
G37*
G36*
X031850Y019455D02*
X031738Y019343D01*
X031322Y019759D01*
X031434Y019871D01*
X031850Y019455D01*
G37*
G36*
X031711Y019315D02*
X031599Y019203D01*
X031183Y019619D01*
X031295Y019731D01*
X031711Y019315D01*
G37*
G36*
X031571Y019176D02*
X031459Y019064D01*
X031043Y019480D01*
X031155Y019592D01*
X031571Y019176D01*
G37*
G36*
X031432Y019037D02*
X031320Y018925D01*
X030904Y019341D01*
X031016Y019453D01*
X031432Y019037D01*
G37*
G36*
X031293Y018898D02*
X031181Y018786D01*
X030765Y019202D01*
X030877Y019314D01*
X031293Y018898D01*
G37*
G36*
X031154Y018759D02*
X031042Y018647D01*
X030626Y019063D01*
X030738Y019175D01*
X031154Y018759D01*
G37*
G36*
X031015Y018619D02*
X030903Y018507D01*
X030487Y018923D01*
X030599Y019035D01*
X031015Y018619D01*
G37*
D15*
X034430Y019855D03*
X034430Y021755D03*
X025909Y017701D03*
X025727Y016883D03*
X025201Y018409D03*
X024383Y018227D03*
D16*
G36*
X025846Y020793D02*
X026471Y020168D01*
X025942Y019639D01*
X025317Y020264D01*
X025846Y020793D01*
G37*
G36*
X026668Y019971D02*
X027293Y019346D01*
X026764Y018817D01*
X026139Y019442D01*
X026668Y019971D01*
G37*
G36*
X029040Y018227D02*
X029665Y017602D01*
X029136Y017073D01*
X028511Y017698D01*
X029040Y018227D01*
G37*
G36*
X029861Y017406D02*
X030486Y016781D01*
X029957Y016252D01*
X029332Y016877D01*
X029861Y017406D01*
G37*
G36*
X030442Y016596D02*
X031067Y017221D01*
X031596Y016692D01*
X030971Y016067D01*
X030442Y016596D01*
G37*
G36*
X031264Y017418D02*
X031889Y018043D01*
X032418Y017514D01*
X031793Y016889D01*
X031264Y017418D01*
G37*
D17*
G36*
X030542Y016999D02*
X030152Y017389D01*
X030596Y017833D01*
X030986Y017443D01*
X030542Y016999D01*
G37*
G36*
X030014Y017527D02*
X029624Y017917D01*
X030068Y018361D01*
X030458Y017971D01*
X030014Y017527D01*
G37*
G36*
X029015Y016026D02*
X028625Y016416D01*
X029069Y016860D01*
X029459Y016470D01*
X029015Y016026D01*
G37*
G36*
X028541Y016500D02*
X028151Y016890D01*
X028595Y017334D01*
X028985Y016944D01*
X028541Y016500D01*
G37*
G36*
X032110Y016166D02*
X031720Y015776D01*
X031276Y016220D01*
X031666Y016610D01*
X032110Y016166D01*
G37*
G36*
X032584Y016640D02*
X032194Y016250D01*
X031750Y016694D01*
X032140Y017084D01*
X032584Y016640D01*
G37*
X035220Y020430D03*
X035890Y020430D03*
X035890Y021180D03*
X035220Y021180D03*
G36*
X028250Y026069D02*
X028640Y026459D01*
X029084Y026015D01*
X028694Y025625D01*
X028250Y026069D01*
G37*
G36*
X027776Y025595D02*
X028166Y025985D01*
X028610Y025541D01*
X028220Y025151D01*
X027776Y025595D01*
G37*
X024015Y023930D03*
X023345Y023930D03*
G36*
X025416Y019125D02*
X025026Y019515D01*
X025470Y019959D01*
X025860Y019569D01*
X025416Y019125D01*
G37*
G36*
X025890Y018651D02*
X025500Y019041D01*
X025944Y019485D01*
X026334Y019095D01*
X025890Y018651D01*
G37*
G36*
X024791Y017375D02*
X024401Y017765D01*
X024845Y018209D01*
X025235Y017819D01*
X024791Y017375D01*
G37*
G36*
X025265Y016901D02*
X024875Y017291D01*
X025319Y017735D01*
X025709Y017345D01*
X025265Y016901D01*
G37*
G36*
X024500Y016444D02*
X024890Y016834D01*
X025334Y016390D01*
X024944Y016000D01*
X024500Y016444D01*
G37*
G36*
X024026Y015970D02*
X024416Y016360D01*
X024860Y015916D01*
X024470Y015526D01*
X024026Y015970D01*
G37*
G36*
X023026Y016970D02*
X023416Y017360D01*
X023860Y016916D01*
X023470Y016526D01*
X023026Y016970D01*
G37*
G36*
X023500Y017444D02*
X023890Y017834D01*
X024334Y017390D01*
X023944Y017000D01*
X023500Y017444D01*
G37*
X023345Y012430D03*
X024015Y012430D03*
X022015Y012430D03*
X021345Y012430D03*
X032845Y012430D03*
X033515Y012430D03*
X034970Y012430D03*
X035640Y012430D03*
X017515Y023805D03*
X016845Y023805D03*
X016845Y024555D03*
X017515Y024555D03*
D18*
X037680Y023930D03*
X037680Y022930D03*
X038680Y022930D03*
X038680Y023930D03*
X038680Y021930D03*
X038680Y020930D03*
X037680Y020930D03*
X037680Y021930D03*
X037680Y019930D03*
X037680Y018930D03*
X038680Y018930D03*
X038680Y019930D03*
X038680Y017930D03*
X037680Y017930D03*
D19*
X039805Y023080D03*
X039805Y023430D03*
X039805Y023780D03*
D20*
X029192Y013804D03*
X029192Y013430D03*
X029192Y013056D03*
X028168Y013056D03*
X028168Y013804D03*
X018192Y013804D03*
X018192Y013430D03*
X018192Y013056D03*
X017168Y013056D03*
X017168Y013804D03*
D21*
X013180Y011430D03*
X021180Y011430D03*
X025180Y011430D03*
X033180Y011430D03*
X033400Y029040D03*
X032460Y029040D03*
X032460Y030820D03*
X033400Y030820D03*
X035960Y030820D03*
X036900Y030820D03*
X036900Y029040D03*
X035960Y029040D03*
X039460Y029040D03*
X039460Y030820D03*
X029900Y030820D03*
X028960Y030820D03*
X028960Y029040D03*
X029900Y029040D03*
X026400Y029040D03*
X025460Y029040D03*
X025460Y030820D03*
X026400Y030820D03*
X022900Y030820D03*
X022900Y029040D03*
D22*
X023680Y029595D03*
X023680Y030265D03*
X024680Y030265D03*
X024680Y029595D03*
X027180Y029595D03*
X027180Y030265D03*
X028180Y030265D03*
X028180Y029595D03*
X030680Y029595D03*
X030680Y030265D03*
X031680Y030265D03*
X031680Y029595D03*
X034180Y029595D03*
X034180Y030265D03*
X035180Y030265D03*
X035180Y029595D03*
X038180Y029595D03*
X038180Y030265D03*
X034430Y021140D03*
X034430Y020470D03*
X040180Y019765D03*
X040180Y019095D03*
X035805Y014515D03*
X035805Y013845D03*
X033180Y015095D03*
X033180Y015765D03*
X030680Y013765D03*
X030680Y013095D03*
X027180Y013095D03*
X027180Y013765D03*
X024555Y014015D03*
X024555Y013345D03*
X022430Y014970D03*
X022430Y015640D03*
X019930Y013640D03*
X019930Y012970D03*
X016180Y013095D03*
X016180Y013765D03*
X023930Y022345D03*
X023930Y023015D03*
X024805Y023015D03*
X024805Y022345D03*
D23*
X024330Y026867D02*
X024330Y027339D01*
X025330Y027339D02*
X025330Y026867D01*
X026330Y026867D02*
X026330Y027339D01*
X027330Y027339D02*
X027330Y026867D01*
X028330Y026867D02*
X028330Y027339D01*
X029330Y027339D02*
X029330Y026867D01*
X023330Y026867D02*
X023330Y027339D01*
X022330Y027339D02*
X022330Y026867D01*
X021330Y026867D02*
X021330Y027339D01*
X020330Y027339D02*
X020330Y026867D01*
X019330Y026867D02*
X019330Y027339D01*
X018330Y027339D02*
X018330Y026867D01*
X017330Y026867D02*
X017330Y027339D01*
X016330Y027339D02*
X016330Y026867D01*
X015330Y026867D02*
X015330Y027339D01*
X014330Y027339D02*
X014330Y026867D01*
D24*
X012180Y027103D03*
X012180Y014930D03*
X041676Y014930D03*
X041676Y027103D03*
D25*
X041680Y027055D03*
X040680Y029430D03*
X041680Y014930D03*
X040680Y009430D03*
X013180Y009430D03*
X012180Y014930D03*
X012180Y027055D03*
X013180Y029430D03*
D26*
X019491Y024093D03*
X019491Y023837D03*
X019491Y023582D03*
X019491Y023326D03*
X019491Y023070D03*
X019491Y022814D03*
X019491Y022558D03*
X019491Y022302D03*
X019491Y022046D03*
X019491Y021790D03*
X019491Y021534D03*
X019491Y021278D03*
X019491Y021023D03*
X019491Y020767D03*
X022369Y020767D03*
X022369Y021023D03*
X022369Y021278D03*
X022369Y021534D03*
X022369Y021790D03*
X022369Y022046D03*
X022369Y022302D03*
X022369Y022558D03*
X022369Y022814D03*
X022369Y023070D03*
X022369Y023326D03*
X022369Y023582D03*
X022369Y023837D03*
X022369Y024093D03*
D27*
X025991Y008930D03*
X029491Y008930D03*
X037491Y008930D03*
X018491Y008930D03*
X014991Y008930D03*
D28*
X016369Y008930D03*
X019869Y008930D03*
X027369Y008930D03*
X030869Y008930D03*
X038869Y008930D03*
D29*
X039180Y011430D03*
X038180Y011430D03*
X037180Y011430D03*
X034680Y010430D03*
X034680Y009430D03*
X034680Y008430D03*
X032680Y008430D03*
X032680Y009430D03*
X032680Y010430D03*
X023680Y010430D03*
X023680Y009430D03*
X023680Y008430D03*
X021680Y008430D03*
X021680Y009430D03*
X021680Y010430D03*
D30*
X015460Y021938D03*
X014680Y021938D03*
X014680Y022922D03*
X015460Y022922D03*
D31*
X013610Y024800D03*
X013610Y020060D03*
D32*
X016578Y011430D03*
X018782Y011430D03*
X027578Y011430D03*
X029782Y011430D03*
D33*
X026585Y022025D03*
X024775Y023835D03*
D34*
X020930Y016421D03*
X020930Y014689D03*
X025805Y014546D03*
X025805Y012814D03*
X034680Y015064D03*
X034680Y016796D03*
D35*
X037547Y013450D02*
X037547Y012850D01*
X038547Y012850D02*
X038547Y013450D01*
X039547Y013450D02*
X039547Y012850D01*
X040547Y012850D02*
X040547Y013450D01*
X041547Y013450D02*
X041547Y012850D01*
X033337Y026814D02*
X033337Y027414D01*
X032337Y027414D02*
X032337Y026814D01*
X031337Y026814D02*
X031337Y027414D01*
X030337Y027414D02*
X030337Y026814D01*
X014480Y018430D02*
X013880Y018430D01*
X013880Y017430D02*
X014480Y017430D01*
X014480Y016430D02*
X013880Y016430D01*
D36*
X014955Y026055D03*
X015305Y026055D03*
X015655Y026055D03*
X027455Y028055D03*
X027805Y028055D03*
X028155Y028055D03*
D37*
X030680Y025180D03*
X031180Y025180D03*
X031680Y025180D03*
X032180Y025180D03*
X035180Y026055D03*
X035680Y026055D03*
X036180Y026055D03*
X036680Y026055D03*
X036680Y026680D03*
X036180Y026680D03*
X035680Y026680D03*
X035180Y026680D03*
X035180Y024055D03*
X035680Y024055D03*
X036180Y024055D03*
X036680Y024055D03*
X036680Y023430D03*
X036180Y023430D03*
X035680Y023430D03*
X035180Y023430D03*
D38*
G36*
X017229Y015786D02*
X017703Y015312D01*
X017173Y014782D01*
X016699Y015256D01*
X017229Y015786D01*
G37*
G36*
X016437Y016578D02*
X016911Y016104D01*
X016381Y015574D01*
X015907Y016048D01*
X016437Y016578D01*
G37*
D39*
X014430Y014490D03*
X014430Y013370D03*
D40*
X015430Y012555D03*
X016805Y014305D03*
X012305Y016680D03*
X016430Y020055D03*
X016430Y021305D03*
X017305Y021305D03*
X018680Y021555D03*
X020305Y022680D03*
X020305Y023555D03*
X021555Y023305D03*
X020805Y021555D03*
X023555Y019430D03*
X024305Y021180D03*
X026680Y020680D03*
X026680Y018805D03*
X028055Y016430D03*
X028180Y014305D03*
X027180Y014305D03*
X024805Y012430D03*
X022180Y014430D03*
X023305Y014930D03*
X030305Y015930D03*
X032305Y015180D03*
X032805Y017180D03*
X030180Y020430D03*
X031055Y020555D03*
X030430Y022305D03*
X031180Y022430D03*
X030555Y023055D03*
X035805Y021930D03*
X039930Y020805D03*
X039055Y016930D03*
X041555Y016930D03*
X041805Y025305D03*
X039555Y027680D03*
X038305Y026430D03*
X036930Y029930D03*
X033430Y029930D03*
X029930Y029930D03*
X028805Y028055D03*
X026430Y029930D03*
X022930Y029930D03*
X022055Y030805D03*
X022805Y028055D03*
X014305Y025930D03*
X013555Y027930D03*
X012305Y023680D03*
X013305Y021430D03*
X024680Y008305D03*
X036180Y008305D03*
M02*
