G75*
G70*
%OFA0B0*%
%FSLAX24Y24*%
%IPPOS*%
%LPD*%
%AMOC8*
5,1,8,0,0,1.08239X$1,22.5*
%
%ADD10C,0.0000*%
%ADD11C,0.0480*%
%ADD12R,0.0880X0.0480*%
%ADD13R,0.0866X0.1417*%
%ADD14R,0.0472X0.0472*%
%ADD15R,0.0600X0.0660*%
%ADD16OC8,0.0540*%
%ADD17R,0.0984X0.1378*%
%ADD18R,0.1280X0.0984*%
%ADD19C,0.0740*%
%ADD20C,0.0472*%
%ADD21C,0.1400*%
%ADD22R,0.0728X0.0728*%
%ADD23C,0.0728*%
%ADD24C,0.0360*%
%ADD25C,0.0660*%
%ADD26C,0.1300*%
%ADD27C,0.0700*%
%ADD28R,0.0768X0.0984*%
%ADD29R,0.0709X0.0846*%
%ADD30R,0.0591X0.0512*%
%ADD31R,0.0551X0.0394*%
%ADD32R,0.0394X0.0709*%
%ADD33R,0.0354X0.0787*%
%ADD34R,0.0512X0.0787*%
%ADD35C,0.0600*%
%ADD36C,0.0394*%
%ADD37C,0.0400*%
%ADD38C,0.0560*%
%ADD39C,0.0120*%
%ADD40C,0.0240*%
%ADD41C,0.0160*%
D10*
X011180Y009430D02*
X011180Y029430D01*
X011182Y029525D01*
X011189Y029620D01*
X011200Y029715D01*
X011216Y029809D01*
X011236Y029902D01*
X011261Y029993D01*
X011290Y030084D01*
X011323Y030173D01*
X011361Y030261D01*
X011402Y030346D01*
X011448Y030430D01*
X011497Y030511D01*
X011551Y030590D01*
X011608Y030666D01*
X011669Y030740D01*
X011733Y030810D01*
X011800Y030877D01*
X011870Y030941D01*
X011944Y031002D01*
X012020Y031059D01*
X012099Y031113D01*
X012180Y031162D01*
X012264Y031208D01*
X012349Y031249D01*
X012437Y031287D01*
X012526Y031320D01*
X012617Y031349D01*
X012708Y031374D01*
X012801Y031394D01*
X012895Y031410D01*
X012990Y031421D01*
X013085Y031428D01*
X013180Y031430D01*
X040679Y031430D01*
X040774Y031428D01*
X040869Y031421D01*
X040964Y031410D01*
X041057Y031394D01*
X041150Y031374D01*
X041242Y031349D01*
X041333Y031320D01*
X041422Y031287D01*
X041510Y031249D01*
X041596Y031208D01*
X041679Y031162D01*
X041760Y031112D01*
X041839Y031059D01*
X041915Y031002D01*
X041989Y030941D01*
X042059Y030877D01*
X042127Y030810D01*
X042191Y030740D01*
X042251Y030666D01*
X042308Y030590D01*
X042362Y030511D01*
X042411Y030430D01*
X042457Y030346D01*
X042498Y030261D01*
X042536Y030173D01*
X042569Y030084D01*
X042598Y029993D01*
X042623Y029901D01*
X042643Y029808D01*
X042659Y029714D01*
X042670Y029620D01*
X042677Y029525D01*
X042679Y029429D01*
X042679Y029430D02*
X042673Y009430D01*
X042671Y009335D01*
X042664Y009240D01*
X042653Y009146D01*
X042637Y009052D01*
X042617Y008959D01*
X042592Y008867D01*
X042563Y008776D01*
X042530Y008687D01*
X042492Y008599D01*
X042451Y008514D01*
X042405Y008430D01*
X042356Y008349D01*
X042302Y008270D01*
X042245Y008194D01*
X042185Y008120D01*
X042121Y008050D01*
X042053Y007983D01*
X041983Y007919D01*
X041909Y007858D01*
X041833Y007801D01*
X041754Y007748D01*
X041673Y007698D01*
X041590Y007652D01*
X041504Y007611D01*
X041416Y007573D01*
X041327Y007540D01*
X041237Y007511D01*
X041145Y007486D01*
X041052Y007466D01*
X040958Y007450D01*
X040863Y007439D01*
X040768Y007432D01*
X040673Y007430D01*
X013180Y007430D01*
X013085Y007432D01*
X012990Y007439D01*
X012895Y007450D01*
X012801Y007466D01*
X012708Y007486D01*
X012617Y007511D01*
X012526Y007540D01*
X012437Y007573D01*
X012349Y007611D01*
X012264Y007652D01*
X012180Y007698D01*
X012099Y007747D01*
X012020Y007801D01*
X011944Y007858D01*
X011870Y007919D01*
X011800Y007983D01*
X011733Y008050D01*
X011669Y008120D01*
X011608Y008194D01*
X011551Y008270D01*
X011497Y008349D01*
X011448Y008430D01*
X011402Y008514D01*
X011361Y008599D01*
X011323Y008687D01*
X011290Y008776D01*
X011261Y008867D01*
X011236Y008958D01*
X011216Y009051D01*
X011200Y009145D01*
X011189Y009240D01*
X011182Y009335D01*
X011180Y009430D01*
X011629Y014930D02*
X011631Y014977D01*
X011637Y015023D01*
X011647Y015069D01*
X011660Y015114D01*
X011678Y015157D01*
X011699Y015199D01*
X011723Y015239D01*
X011751Y015276D01*
X011782Y015311D01*
X011816Y015344D01*
X011852Y015373D01*
X011891Y015399D01*
X011932Y015422D01*
X011975Y015441D01*
X012019Y015457D01*
X012064Y015469D01*
X012110Y015477D01*
X012157Y015481D01*
X012203Y015481D01*
X012250Y015477D01*
X012296Y015469D01*
X012341Y015457D01*
X012385Y015441D01*
X012428Y015422D01*
X012469Y015399D01*
X012508Y015373D01*
X012544Y015344D01*
X012578Y015311D01*
X012609Y015276D01*
X012637Y015239D01*
X012661Y015199D01*
X012682Y015157D01*
X012700Y015114D01*
X012713Y015069D01*
X012723Y015023D01*
X012729Y014977D01*
X012731Y014930D01*
X012729Y014883D01*
X012723Y014837D01*
X012713Y014791D01*
X012700Y014746D01*
X012682Y014703D01*
X012661Y014661D01*
X012637Y014621D01*
X012609Y014584D01*
X012578Y014549D01*
X012544Y014516D01*
X012508Y014487D01*
X012469Y014461D01*
X012428Y014438D01*
X012385Y014419D01*
X012341Y014403D01*
X012296Y014391D01*
X012250Y014383D01*
X012203Y014379D01*
X012157Y014379D01*
X012110Y014383D01*
X012064Y014391D01*
X012019Y014403D01*
X011975Y014419D01*
X011932Y014438D01*
X011891Y014461D01*
X011852Y014487D01*
X011816Y014516D01*
X011782Y014549D01*
X011751Y014584D01*
X011723Y014621D01*
X011699Y014661D01*
X011678Y014703D01*
X011660Y014746D01*
X011647Y014791D01*
X011637Y014837D01*
X011631Y014883D01*
X011629Y014930D01*
X011629Y027103D02*
X011631Y027150D01*
X011637Y027196D01*
X011647Y027242D01*
X011660Y027287D01*
X011678Y027330D01*
X011699Y027372D01*
X011723Y027412D01*
X011751Y027449D01*
X011782Y027484D01*
X011816Y027517D01*
X011852Y027546D01*
X011891Y027572D01*
X011932Y027595D01*
X011975Y027614D01*
X012019Y027630D01*
X012064Y027642D01*
X012110Y027650D01*
X012157Y027654D01*
X012203Y027654D01*
X012250Y027650D01*
X012296Y027642D01*
X012341Y027630D01*
X012385Y027614D01*
X012428Y027595D01*
X012469Y027572D01*
X012508Y027546D01*
X012544Y027517D01*
X012578Y027484D01*
X012609Y027449D01*
X012637Y027412D01*
X012661Y027372D01*
X012682Y027330D01*
X012700Y027287D01*
X012713Y027242D01*
X012723Y027196D01*
X012729Y027150D01*
X012731Y027103D01*
X012729Y027056D01*
X012723Y027010D01*
X012713Y026964D01*
X012700Y026919D01*
X012682Y026876D01*
X012661Y026834D01*
X012637Y026794D01*
X012609Y026757D01*
X012578Y026722D01*
X012544Y026689D01*
X012508Y026660D01*
X012469Y026634D01*
X012428Y026611D01*
X012385Y026592D01*
X012341Y026576D01*
X012296Y026564D01*
X012250Y026556D01*
X012203Y026552D01*
X012157Y026552D01*
X012110Y026556D01*
X012064Y026564D01*
X012019Y026576D01*
X011975Y026592D01*
X011932Y026611D01*
X011891Y026634D01*
X011852Y026660D01*
X011816Y026689D01*
X011782Y026722D01*
X011751Y026757D01*
X011723Y026794D01*
X011699Y026834D01*
X011678Y026876D01*
X011660Y026919D01*
X011647Y026964D01*
X011637Y027010D01*
X011631Y027056D01*
X011629Y027103D01*
X041125Y027103D02*
X041127Y027150D01*
X041133Y027196D01*
X041143Y027242D01*
X041156Y027287D01*
X041174Y027330D01*
X041195Y027372D01*
X041219Y027412D01*
X041247Y027449D01*
X041278Y027484D01*
X041312Y027517D01*
X041348Y027546D01*
X041387Y027572D01*
X041428Y027595D01*
X041471Y027614D01*
X041515Y027630D01*
X041560Y027642D01*
X041606Y027650D01*
X041653Y027654D01*
X041699Y027654D01*
X041746Y027650D01*
X041792Y027642D01*
X041837Y027630D01*
X041881Y027614D01*
X041924Y027595D01*
X041965Y027572D01*
X042004Y027546D01*
X042040Y027517D01*
X042074Y027484D01*
X042105Y027449D01*
X042133Y027412D01*
X042157Y027372D01*
X042178Y027330D01*
X042196Y027287D01*
X042209Y027242D01*
X042219Y027196D01*
X042225Y027150D01*
X042227Y027103D01*
X042225Y027056D01*
X042219Y027010D01*
X042209Y026964D01*
X042196Y026919D01*
X042178Y026876D01*
X042157Y026834D01*
X042133Y026794D01*
X042105Y026757D01*
X042074Y026722D01*
X042040Y026689D01*
X042004Y026660D01*
X041965Y026634D01*
X041924Y026611D01*
X041881Y026592D01*
X041837Y026576D01*
X041792Y026564D01*
X041746Y026556D01*
X041699Y026552D01*
X041653Y026552D01*
X041606Y026556D01*
X041560Y026564D01*
X041515Y026576D01*
X041471Y026592D01*
X041428Y026611D01*
X041387Y026634D01*
X041348Y026660D01*
X041312Y026689D01*
X041278Y026722D01*
X041247Y026757D01*
X041219Y026794D01*
X041195Y026834D01*
X041174Y026876D01*
X041156Y026919D01*
X041143Y026964D01*
X041133Y027010D01*
X041127Y027056D01*
X041125Y027103D01*
X041125Y014930D02*
X041127Y014977D01*
X041133Y015023D01*
X041143Y015069D01*
X041156Y015114D01*
X041174Y015157D01*
X041195Y015199D01*
X041219Y015239D01*
X041247Y015276D01*
X041278Y015311D01*
X041312Y015344D01*
X041348Y015373D01*
X041387Y015399D01*
X041428Y015422D01*
X041471Y015441D01*
X041515Y015457D01*
X041560Y015469D01*
X041606Y015477D01*
X041653Y015481D01*
X041699Y015481D01*
X041746Y015477D01*
X041792Y015469D01*
X041837Y015457D01*
X041881Y015441D01*
X041924Y015422D01*
X041965Y015399D01*
X042004Y015373D01*
X042040Y015344D01*
X042074Y015311D01*
X042105Y015276D01*
X042133Y015239D01*
X042157Y015199D01*
X042178Y015157D01*
X042196Y015114D01*
X042209Y015069D01*
X042219Y015023D01*
X042225Y014977D01*
X042227Y014930D01*
X042225Y014883D01*
X042219Y014837D01*
X042209Y014791D01*
X042196Y014746D01*
X042178Y014703D01*
X042157Y014661D01*
X042133Y014621D01*
X042105Y014584D01*
X042074Y014549D01*
X042040Y014516D01*
X042004Y014487D01*
X041965Y014461D01*
X041924Y014438D01*
X041881Y014419D01*
X041837Y014403D01*
X041792Y014391D01*
X041746Y014383D01*
X041699Y014379D01*
X041653Y014379D01*
X041606Y014383D01*
X041560Y014391D01*
X041515Y014403D01*
X041471Y014419D01*
X041428Y014438D01*
X041387Y014461D01*
X041348Y014487D01*
X041312Y014516D01*
X041278Y014549D01*
X041247Y014584D01*
X041219Y014621D01*
X041195Y014661D01*
X041174Y014703D01*
X041156Y014746D01*
X041143Y014791D01*
X041133Y014837D01*
X041127Y014883D01*
X041125Y014930D01*
D11*
X034430Y019855D03*
X034430Y021755D03*
X025909Y017701D03*
X025727Y016883D03*
X025201Y018409D03*
X024383Y018227D03*
D12*
X021775Y018180D03*
X021775Y019090D03*
X021775Y017270D03*
D13*
X019335Y018180D03*
D14*
X019680Y028767D03*
X019680Y029593D03*
X021430Y029593D03*
X021430Y028767D03*
X016805Y028767D03*
X016805Y029593D03*
D15*
X017330Y024680D03*
X018530Y024680D03*
D16*
X037680Y023930D03*
X037680Y022930D03*
X038680Y022930D03*
X038680Y023930D03*
X038680Y021930D03*
X038680Y020930D03*
X037680Y020930D03*
X037680Y021930D03*
X037680Y019930D03*
X037680Y018930D03*
X038680Y018930D03*
X038680Y019930D03*
X038680Y017930D03*
X037680Y017930D03*
D17*
X016930Y018710D03*
X016930Y016150D03*
D18*
X017930Y020124D03*
X017930Y022486D03*
D19*
X022900Y029040D03*
X022900Y030820D03*
X025460Y030820D03*
X026400Y030820D03*
X026400Y029040D03*
X025460Y029040D03*
X028960Y029040D03*
X029900Y029040D03*
X029900Y030820D03*
X028960Y030820D03*
X032460Y030820D03*
X033400Y030820D03*
X033400Y029040D03*
X032460Y029040D03*
X035960Y029040D03*
X036900Y029040D03*
X036900Y030820D03*
X035960Y030820D03*
X039460Y030820D03*
X039460Y029040D03*
X033180Y011430D03*
X025180Y011430D03*
X021180Y011430D03*
X013180Y011430D03*
D20*
X014330Y026867D02*
X014330Y027339D01*
X015330Y027339D02*
X015330Y026867D01*
X016330Y026867D02*
X016330Y027339D01*
X017330Y027339D02*
X017330Y026867D01*
X018330Y026867D02*
X018330Y027339D01*
X019330Y027339D02*
X019330Y026867D01*
X020330Y026867D02*
X020330Y027339D01*
X021330Y027339D02*
X021330Y026867D01*
X022330Y026867D02*
X022330Y027339D01*
X023330Y027339D02*
X023330Y026867D01*
X024330Y026867D02*
X024330Y027339D01*
X025330Y027339D02*
X025330Y026867D01*
X026330Y026867D02*
X026330Y027339D01*
X027330Y027339D02*
X027330Y026867D01*
X028330Y026867D02*
X028330Y027339D01*
X029330Y027339D02*
X029330Y026867D01*
D21*
X040680Y029430D03*
X041680Y027055D03*
X041680Y014930D03*
X040680Y009430D03*
X013180Y009430D03*
X012180Y014930D03*
X012180Y027055D03*
X013180Y029430D03*
D22*
X014991Y008930D03*
X018491Y008930D03*
X025991Y008930D03*
X029491Y008930D03*
X037491Y008930D03*
D23*
X038869Y008930D03*
X030869Y008930D03*
X027369Y008930D03*
X019869Y008930D03*
X016369Y008930D03*
D24*
X021680Y008430D03*
X021680Y009430D03*
X021680Y010430D03*
X023680Y010430D03*
X023680Y009430D03*
X023680Y008430D03*
X032680Y008430D03*
X032680Y009430D03*
X032680Y010430D03*
X034680Y010430D03*
X034680Y009430D03*
X034680Y008430D03*
X037180Y011430D03*
X038180Y011430D03*
X039180Y011430D03*
D25*
X015460Y021938D03*
X014680Y021938D03*
X014680Y022922D03*
X015460Y022922D03*
D26*
X013610Y024800D03*
X013610Y020060D03*
D27*
X024775Y023835D03*
X026585Y022025D03*
D28*
X021155Y016180D03*
X019955Y016180D03*
D29*
X020180Y020224D03*
X020180Y021386D03*
X022430Y021386D03*
X022430Y020224D03*
D30*
X023305Y020470D03*
X023305Y021140D03*
X021180Y021140D03*
X021180Y020470D03*
X029055Y021595D03*
X029055Y022265D03*
X020680Y028845D03*
X020680Y029515D03*
X018930Y029515D03*
X018930Y028845D03*
X017555Y028845D03*
X017555Y029515D03*
D31*
X028622Y023930D03*
X029488Y023556D03*
X029488Y024304D03*
D32*
X018481Y023680D03*
X017379Y023680D03*
D33*
X015606Y028814D03*
X014504Y028814D03*
D34*
X015055Y030546D03*
D35*
X030337Y027414D02*
X030337Y026814D01*
X031337Y026814D02*
X031337Y027414D01*
X032337Y027414D02*
X032337Y026814D01*
X033337Y026814D02*
X033337Y027414D01*
X014480Y018430D02*
X013880Y018430D01*
X013880Y017430D02*
X014480Y017430D01*
X014480Y016430D02*
X013880Y016430D01*
X037547Y013450D02*
X037547Y012850D01*
X038547Y012850D02*
X038547Y013450D01*
X039547Y013450D02*
X039547Y012850D01*
X040547Y012850D02*
X040547Y013450D01*
X041547Y013450D02*
X041547Y012850D01*
D36*
X036680Y023430D03*
X036180Y023430D03*
X035680Y023430D03*
X035180Y023430D03*
X035180Y024055D03*
X035680Y024055D03*
X036180Y024055D03*
X036680Y024055D03*
X036680Y026055D03*
X036180Y026055D03*
X035680Y026055D03*
X035180Y026055D03*
X035180Y026680D03*
X035680Y026680D03*
X036180Y026680D03*
X036680Y026680D03*
X032180Y025180D03*
X031680Y025180D03*
X031180Y025180D03*
X030680Y025180D03*
D37*
X023305Y020470D02*
X023059Y020224D01*
X022430Y020224D01*
X022680Y019974D01*
X022680Y018430D01*
X022430Y018180D01*
X021775Y018180D01*
X019335Y018180D01*
X019335Y016800D01*
X019955Y016180D01*
X021155Y016180D02*
X021155Y015405D01*
X020930Y015180D01*
X017900Y015180D01*
X016930Y016150D01*
X016650Y016430D01*
X014180Y016430D01*
X014180Y017430D02*
X018585Y017430D01*
X019335Y018180D01*
X020645Y019090D02*
X020180Y019555D01*
X020180Y020224D01*
X020934Y020224D01*
X021180Y020470D01*
X020180Y020224D02*
X020080Y020124D01*
X017930Y020124D01*
X016930Y019124D01*
X016930Y018710D01*
X015430Y018930D02*
X015430Y021305D01*
X016055Y021930D01*
X016430Y022305D01*
X016430Y024305D01*
X016805Y024680D01*
X017330Y024680D01*
X017379Y023680D02*
X017379Y023037D01*
X017930Y022486D01*
X018481Y023680D02*
X018530Y023729D01*
X018530Y024680D01*
X016055Y021930D02*
X015468Y021930D01*
X015460Y021938D01*
X015430Y021908D01*
X015430Y021305D01*
X015430Y018930D02*
X014930Y018430D01*
X014180Y018430D01*
X020645Y019090D02*
X021775Y019090D01*
X021775Y017270D02*
X021155Y016650D01*
X021155Y016180D01*
D38*
X022180Y014430D03*
X023305Y014930D03*
X024805Y012430D03*
X027180Y014305D03*
X028180Y014305D03*
X030305Y015930D03*
X032305Y015180D03*
X032805Y017180D03*
X030180Y020430D03*
X031055Y020555D03*
X030430Y022305D03*
X031180Y022430D03*
X030555Y023055D03*
X026680Y020680D03*
X026680Y018805D03*
X028055Y016430D03*
X023555Y019430D03*
X024305Y021180D03*
X021555Y023305D03*
X020305Y023555D03*
X020305Y022680D03*
X020805Y021555D03*
X018680Y021555D03*
X017305Y021305D03*
X016430Y021305D03*
X016430Y020055D03*
X013305Y021430D03*
X012305Y023680D03*
X014305Y025930D03*
X013555Y027930D03*
X022055Y030805D03*
X022930Y029930D03*
X022805Y028055D03*
X026430Y029930D03*
X028805Y028055D03*
X029930Y029930D03*
X033430Y029930D03*
X036930Y029930D03*
X039555Y027680D03*
X038305Y026430D03*
X041805Y025305D03*
X039930Y020805D03*
X035805Y021930D03*
X039055Y016930D03*
X041555Y016930D03*
X036180Y008305D03*
X024680Y008305D03*
X016805Y014305D03*
X015430Y012555D03*
X012305Y016680D03*
D39*
X018680Y021555D02*
X019305Y022180D01*
X021305Y022180D01*
X021555Y022430D01*
X021555Y023305D01*
X020805Y024055D02*
X020805Y027680D01*
X021430Y028305D01*
X021430Y028767D01*
X022180Y028680D02*
X022805Y028055D01*
X022180Y028680D02*
X022180Y029555D01*
X021555Y030180D01*
X020180Y030180D01*
X020180Y028845D01*
X020680Y028845D01*
X019805Y028642D02*
X019680Y028767D01*
X019805Y028642D02*
X019805Y023180D01*
X020305Y022680D01*
X020305Y023555D02*
X020805Y024055D01*
X020805Y021555D02*
X021180Y021180D01*
X021180Y021140D01*
X020934Y021386D01*
X020305Y021180D02*
X020180Y021305D01*
X022184Y021140D02*
X022430Y021386D01*
X022369Y021325D01*
X022369Y021278D01*
X022508Y021140D01*
X025805Y021555D02*
X026680Y020680D01*
X025805Y021555D02*
X025805Y022305D01*
X026805Y023305D01*
X026805Y027695D01*
X025460Y029040D01*
X026430Y029930D02*
X022930Y029930D01*
X022180Y029930D01*
X021680Y030430D01*
X016680Y030430D01*
X015930Y031180D01*
X014504Y031180D01*
X014504Y028814D01*
X016305Y029055D02*
X016593Y028767D01*
X016805Y028767D01*
X016305Y029055D02*
X016305Y030055D01*
X016680Y030430D01*
X016055Y030555D02*
X015055Y030555D01*
X015055Y030546D01*
X016055Y030555D02*
X016055Y027103D01*
X016330Y027103D01*
X018305Y028805D02*
X018930Y028805D01*
X018930Y028845D01*
X018305Y028805D02*
X018305Y030180D01*
X020180Y030180D01*
X019680Y029593D02*
X019680Y029515D01*
X019055Y029515D01*
X018930Y029515D01*
X018759Y029515D01*
X017555Y029515D02*
X017226Y029593D01*
X016805Y029593D01*
X020680Y029515D02*
X020759Y029593D01*
X021430Y029593D01*
X022055Y030805D02*
X022070Y030820D01*
X026430Y029930D02*
X029930Y029930D01*
X033430Y029930D01*
X036930Y029930D01*
X035960Y029040D02*
X034555Y027635D01*
X034555Y025805D01*
X031180Y022430D01*
X030430Y022305D02*
X034305Y026180D01*
X034305Y027680D01*
X033680Y028305D01*
X032805Y028305D01*
X032430Y028680D01*
X032430Y029010D01*
X032431Y029019D01*
X032436Y029028D01*
X032442Y029034D01*
X032451Y029039D01*
X032460Y029040D01*
X033555Y028055D02*
X029680Y028055D01*
X028960Y028775D01*
X028960Y029040D01*
X028805Y028055D02*
X028805Y026180D01*
X029805Y025180D01*
X029488Y024863D01*
X029488Y024304D01*
X029488Y023556D02*
X029055Y023123D01*
X029055Y022265D01*
X029055Y021595D02*
X030180Y020470D01*
X030180Y020430D01*
X031055Y020555D02*
X029805Y021805D01*
X029805Y022930D01*
X031180Y024305D01*
X031180Y025180D01*
X031180Y025555D01*
X030430Y025555D01*
X029305Y026680D01*
X029305Y027079D01*
X029330Y027103D01*
X029805Y025180D02*
X030680Y025180D01*
X030555Y023055D02*
X034055Y026555D01*
X034055Y027555D01*
X033555Y028055D01*
D40*
X032460Y030820D02*
X035960Y030820D01*
X032460Y030820D02*
X028960Y030820D01*
X025460Y030820D01*
X022070Y030820D01*
X015606Y028814D02*
X015606Y027103D01*
X015330Y027103D01*
X014504Y027103D02*
X014330Y027103D01*
X012305Y025079D01*
X012305Y021930D01*
X014672Y021930D01*
X014680Y021938D01*
X012305Y021930D02*
X012305Y016680D01*
X012305Y016430D01*
X012430Y016430D01*
X014180Y016430D01*
X016805Y014305D02*
X021180Y014305D01*
X022305Y015430D01*
X023680Y015430D01*
X024805Y014305D01*
X027180Y014305D01*
X028055Y016430D02*
X028055Y017430D01*
X026680Y018805D01*
X025015Y020470D01*
X023305Y020470D01*
X023305Y021140D02*
X022508Y021140D01*
X022184Y021140D02*
X021180Y021140D01*
X021180Y021180D02*
X020305Y021180D01*
X020180Y021386D02*
X019724Y020930D01*
X017680Y020930D01*
X017305Y021305D01*
X017874Y020180D02*
X017930Y020124D01*
X017874Y020180D02*
X017749Y020055D01*
X016430Y020055D01*
X023305Y021140D02*
X023345Y021180D01*
X024305Y021180D01*
X031055Y020555D02*
X031180Y020555D01*
X033055Y022430D01*
X035305Y022430D01*
X035805Y021930D01*
X035805Y021430D01*
X037305Y019930D01*
X037680Y019930D01*
X039930Y020805D02*
X040305Y020430D01*
X040305Y014805D01*
X041555Y013555D01*
X041547Y013150D01*
X036180Y011305D02*
X036180Y008305D01*
X036180Y011305D02*
X032305Y015180D01*
X024680Y010680D02*
X024680Y008305D01*
X024680Y010680D02*
X023305Y012055D01*
X023305Y014930D01*
X018555Y012555D02*
X021680Y009430D01*
X018555Y012555D02*
X015430Y012555D01*
X014504Y027103D02*
X014504Y028814D01*
D41*
X011670Y008902D02*
X011825Y008579D01*
X012049Y008299D01*
X012329Y008075D01*
X012652Y007920D01*
X013001Y007840D01*
X013180Y007830D01*
X040673Y007830D01*
X040852Y007840D01*
X041201Y007920D01*
X041524Y008075D01*
X041524Y008075D01*
X041804Y008299D01*
X042028Y008579D01*
X042183Y008902D01*
X042263Y009251D01*
X042273Y009430D01*
X042273Y009430D01*
X042273Y009510D01*
X042273Y009510D01*
X042274Y012180D01*
X041758Y012180D01*
X041686Y012150D01*
X041408Y012150D01*
X041335Y012180D01*
X039758Y012180D01*
X039686Y012150D01*
X039408Y012150D01*
X039335Y012180D01*
X038758Y012180D01*
X038686Y012150D01*
X038408Y012150D01*
X038335Y012180D01*
X037758Y012180D01*
X037686Y012150D01*
X037408Y012150D01*
X037335Y012180D01*
X036930Y012180D01*
X036680Y012430D01*
X036680Y015680D01*
X035430Y016930D01*
X033930Y016930D01*
X031930Y014930D01*
X028448Y014930D01*
X028565Y014881D01*
X028662Y014785D01*
X030650Y014785D01*
X030827Y014712D01*
X030962Y014577D01*
X032702Y012837D01*
X032837Y012702D01*
X032910Y012525D01*
X032910Y012152D01*
X033027Y012200D01*
X033333Y012200D01*
X033616Y012083D01*
X033833Y011866D01*
X033950Y011583D01*
X033950Y011277D01*
X033833Y010994D01*
X033616Y010777D01*
X033333Y010660D01*
X033213Y010660D01*
X033260Y010545D01*
X033260Y010315D01*
X033172Y010101D01*
X033009Y009938D01*
X032795Y009850D01*
X032565Y009850D01*
X032351Y009938D01*
X032188Y010101D01*
X032100Y010315D01*
X032100Y010331D01*
X032023Y010408D01*
X031950Y010585D01*
X031950Y012231D01*
X030356Y013825D01*
X028662Y013825D01*
X028565Y013729D01*
X028315Y013625D01*
X028045Y013625D01*
X027795Y013729D01*
X027680Y013843D01*
X027565Y013729D01*
X027315Y013625D01*
X027045Y013625D01*
X026795Y013729D01*
X026738Y013785D01*
X024702Y013785D01*
X024510Y013864D01*
X024364Y014010D01*
X023465Y014910D01*
X022662Y014910D01*
X022756Y014815D01*
X022860Y014565D01*
X022860Y014295D01*
X022756Y014045D01*
X022660Y013948D01*
X022660Y010835D01*
X022587Y010658D01*
X022260Y010331D01*
X022260Y010315D01*
X022172Y010101D01*
X022009Y009938D01*
X021795Y009850D01*
X021565Y009850D01*
X021351Y009938D01*
X021188Y010101D01*
X021100Y010315D01*
X021100Y010545D01*
X021147Y010660D01*
X021027Y010660D01*
X020744Y010777D01*
X020527Y010994D01*
X020410Y011277D01*
X020410Y011583D01*
X020527Y011866D01*
X020744Y012083D01*
X021027Y012200D01*
X021333Y012200D01*
X021616Y012083D01*
X021700Y011999D01*
X021700Y013948D01*
X021629Y014019D01*
X021475Y013864D01*
X021283Y013785D01*
X017247Y013785D01*
X017190Y013729D01*
X016940Y013625D01*
X016670Y013625D01*
X016420Y013729D01*
X016229Y013920D01*
X016125Y014170D01*
X016125Y014375D01*
X015180Y013430D01*
X011580Y013430D01*
X011580Y009430D01*
X011590Y009251D01*
X011670Y008902D01*
X011691Y008857D02*
X012241Y008857D01*
X012300Y008755D02*
X012505Y008550D01*
X012755Y008405D01*
X013035Y008330D01*
X013325Y008330D01*
X013605Y008405D01*
X013855Y008550D01*
X014060Y008755D01*
X014205Y009005D01*
X014227Y009087D01*
X014227Y008486D01*
X014288Y008339D01*
X014400Y008227D01*
X014547Y008166D01*
X015435Y008166D01*
X015582Y008227D01*
X015694Y008339D01*
X015748Y008470D01*
X015936Y008282D01*
X016217Y008166D01*
X016521Y008166D01*
X016802Y008282D01*
X017017Y008497D01*
X017133Y008778D01*
X017133Y009082D01*
X017017Y009363D01*
X016802Y009578D01*
X016521Y009694D01*
X016217Y009694D01*
X015936Y009578D01*
X015748Y009390D01*
X015694Y009521D01*
X015582Y009633D01*
X015435Y009694D01*
X014547Y009694D01*
X014400Y009633D01*
X014288Y009521D01*
X014280Y009502D01*
X014280Y009575D01*
X014205Y009855D01*
X014060Y010105D01*
X013855Y010310D01*
X013605Y010455D01*
X013325Y010530D01*
X013035Y010530D01*
X012755Y010455D01*
X012505Y010310D01*
X012300Y010105D01*
X012155Y009855D01*
X012080Y009575D01*
X012080Y009285D01*
X012155Y009005D01*
X012300Y008755D01*
X012356Y008698D02*
X011768Y008698D01*
X011857Y008540D02*
X012522Y008540D01*
X012845Y008381D02*
X011983Y008381D01*
X012144Y008223D02*
X014410Y008223D01*
X014270Y008381D02*
X013515Y008381D01*
X013838Y008540D02*
X014227Y008540D01*
X014227Y008698D02*
X014004Y008698D01*
X014119Y008857D02*
X014227Y008857D01*
X014227Y009015D02*
X014208Y009015D01*
X014260Y009649D02*
X014438Y009649D01*
X014218Y009808D02*
X039642Y009808D01*
X039655Y009855D02*
X039580Y009575D01*
X039580Y009285D01*
X039655Y009005D01*
X039800Y008755D01*
X040005Y008550D01*
X040255Y008405D01*
X040535Y008330D01*
X040825Y008330D01*
X041105Y008405D01*
X041355Y008550D01*
X041560Y008755D01*
X041705Y009005D01*
X041780Y009285D01*
X041780Y009575D01*
X041705Y009855D01*
X041560Y010105D01*
X041355Y010310D01*
X041105Y010455D01*
X040825Y010530D01*
X040535Y010530D01*
X040255Y010455D01*
X040005Y010310D01*
X039800Y010105D01*
X039655Y009855D01*
X039719Y009966D02*
X035036Y009966D01*
X035009Y009938D02*
X035172Y010101D01*
X035260Y010315D01*
X035260Y010545D01*
X035172Y010759D01*
X035009Y010922D01*
X034795Y011010D01*
X034565Y011010D01*
X034351Y010922D01*
X034188Y010759D01*
X034100Y010545D01*
X034100Y010315D01*
X034188Y010101D01*
X034351Y009938D01*
X034565Y009850D01*
X034795Y009850D01*
X035009Y009938D01*
X034851Y009749D02*
X034785Y009776D01*
X034715Y009790D01*
X034680Y009790D01*
X034680Y009430D01*
X035040Y009430D01*
X035040Y009465D01*
X035026Y009535D01*
X034999Y009601D01*
X034960Y009659D01*
X034909Y009710D01*
X034851Y009749D01*
X034967Y009649D02*
X038608Y009649D01*
X038717Y009694D02*
X038436Y009578D01*
X038221Y009363D01*
X038105Y009082D01*
X038105Y008778D01*
X038221Y008497D01*
X038436Y008282D01*
X038717Y008166D01*
X039021Y008166D01*
X039302Y008282D01*
X039517Y008497D01*
X039633Y008778D01*
X039633Y009082D01*
X039517Y009363D01*
X039302Y009578D01*
X039021Y009694D01*
X038717Y009694D01*
X039130Y009649D02*
X039600Y009649D01*
X039580Y009491D02*
X039389Y009491D01*
X039530Y009332D02*
X039580Y009332D01*
X039595Y009174D02*
X039610Y009174D01*
X039633Y009015D02*
X039652Y009015D01*
X039633Y008857D02*
X039741Y008857D01*
X039856Y008698D02*
X039600Y008698D01*
X039534Y008540D02*
X040022Y008540D01*
X040345Y008381D02*
X039401Y008381D01*
X039158Y008223D02*
X041709Y008223D01*
X041870Y008381D02*
X041015Y008381D01*
X041338Y008540D02*
X041996Y008540D01*
X042085Y008698D02*
X041504Y008698D01*
X041619Y008857D02*
X042161Y008857D01*
X042209Y009015D02*
X041708Y009015D01*
X041750Y009174D02*
X042245Y009174D01*
X042267Y009332D02*
X041780Y009332D01*
X041780Y009491D02*
X042273Y009491D01*
X042273Y009649D02*
X041760Y009649D01*
X041718Y009808D02*
X042273Y009808D01*
X042273Y009966D02*
X041641Y009966D01*
X041541Y010125D02*
X042273Y010125D01*
X042273Y010283D02*
X041383Y010283D01*
X041128Y010442D02*
X042273Y010442D01*
X042273Y010600D02*
X035237Y010600D01*
X035260Y010442D02*
X040232Y010442D01*
X039977Y010283D02*
X035247Y010283D01*
X035181Y010125D02*
X039819Y010125D01*
X039351Y011111D02*
X039409Y011150D01*
X039460Y011201D01*
X039499Y011259D01*
X039526Y011325D01*
X039540Y011395D01*
X039540Y011430D01*
X039540Y011465D01*
X039526Y011535D01*
X039499Y011601D01*
X039460Y011659D01*
X039409Y011710D01*
X039351Y011749D01*
X039285Y011776D01*
X039215Y011790D01*
X039180Y011790D01*
X039180Y011430D01*
X039180Y011430D01*
X039540Y011430D01*
X039180Y011430D01*
X039180Y011430D01*
X039180Y011430D01*
X038820Y011430D01*
X038820Y011465D01*
X038834Y011535D01*
X038861Y011601D01*
X038900Y011659D01*
X038951Y011710D01*
X039009Y011749D01*
X039075Y011776D01*
X039145Y011790D01*
X039180Y011790D01*
X039180Y011430D01*
X039180Y011070D01*
X039215Y011070D01*
X039285Y011084D01*
X039351Y011111D01*
X039243Y011076D02*
X042273Y011076D01*
X042273Y011234D02*
X039482Y011234D01*
X039540Y011393D02*
X042273Y011393D01*
X042274Y011551D02*
X039520Y011551D01*
X039410Y011710D02*
X042274Y011710D01*
X042274Y011868D02*
X037562Y011868D01*
X037509Y011922D02*
X037672Y011759D01*
X037760Y011545D01*
X037760Y011315D01*
X037672Y011101D01*
X037509Y010938D01*
X037295Y010850D01*
X037065Y010850D01*
X036851Y010938D01*
X036688Y011101D01*
X036600Y011315D01*
X036600Y011545D01*
X036688Y011759D01*
X036851Y011922D01*
X037065Y012010D01*
X037295Y012010D01*
X037509Y011922D01*
X037692Y011710D02*
X037950Y011710D01*
X037951Y011710D02*
X037900Y011659D01*
X037861Y011601D01*
X037834Y011535D01*
X037820Y011465D01*
X037820Y011430D01*
X038180Y011430D01*
X038180Y011430D01*
X038180Y011790D01*
X038215Y011790D01*
X038285Y011776D01*
X038351Y011749D01*
X038409Y011710D01*
X038460Y011659D01*
X038499Y011601D01*
X038526Y011535D01*
X038540Y011465D01*
X038540Y011430D01*
X038180Y011430D01*
X038180Y011430D01*
X038180Y011430D01*
X038180Y011790D01*
X038145Y011790D01*
X038075Y011776D01*
X038009Y011749D01*
X037951Y011710D01*
X037840Y011551D02*
X037758Y011551D01*
X037820Y011430D02*
X037820Y011395D01*
X037834Y011325D01*
X037861Y011259D01*
X037900Y011201D01*
X037951Y011150D01*
X038009Y011111D01*
X038075Y011084D01*
X038145Y011070D01*
X038180Y011070D01*
X038215Y011070D01*
X038285Y011084D01*
X038351Y011111D01*
X038409Y011150D01*
X038460Y011201D01*
X038499Y011259D01*
X038526Y011325D01*
X038540Y011395D01*
X038540Y011430D01*
X038180Y011430D01*
X038180Y011070D01*
X038180Y011430D01*
X038180Y011430D01*
X037820Y011430D01*
X037820Y011393D02*
X037760Y011393D01*
X037727Y011234D02*
X037878Y011234D01*
X037646Y011076D02*
X038117Y011076D01*
X038180Y011076D02*
X038180Y011076D01*
X038243Y011076D02*
X039117Y011076D01*
X039145Y011070D02*
X039075Y011084D01*
X039009Y011111D01*
X038951Y011150D01*
X038900Y011201D01*
X038861Y011259D01*
X038834Y011325D01*
X038820Y011395D01*
X038820Y011430D01*
X039180Y011430D01*
X039180Y011430D01*
X039180Y011070D01*
X039145Y011070D01*
X039180Y011076D02*
X039180Y011076D01*
X039180Y011234D02*
X039180Y011234D01*
X039180Y011393D02*
X039180Y011393D01*
X039180Y011551D02*
X039180Y011551D01*
X039180Y011710D02*
X039180Y011710D01*
X038950Y011710D02*
X038410Y011710D01*
X038520Y011551D02*
X038840Y011551D01*
X038820Y011393D02*
X038540Y011393D01*
X038482Y011234D02*
X038878Y011234D01*
X038180Y011234D02*
X038180Y011234D01*
X038180Y011393D02*
X038180Y011393D01*
X038180Y011551D02*
X038180Y011551D01*
X038180Y011710D02*
X038180Y011710D01*
X037457Y010917D02*
X042273Y010917D01*
X042273Y010759D02*
X035172Y010759D01*
X035013Y010917D02*
X036903Y010917D01*
X036714Y011076D02*
X033867Y011076D01*
X033932Y011234D02*
X036633Y011234D01*
X036600Y011393D02*
X033950Y011393D01*
X033950Y011551D02*
X036602Y011551D01*
X036668Y011710D02*
X033898Y011710D01*
X033831Y011868D02*
X036798Y011868D01*
X036925Y012185D02*
X033369Y012185D01*
X033672Y012027D02*
X042274Y012027D01*
X040567Y013170D02*
X040527Y013170D01*
X040527Y013930D01*
X040509Y013930D01*
X040434Y013918D01*
X040363Y013895D01*
X040295Y013861D01*
X040234Y013816D01*
X040181Y013763D01*
X040136Y013702D01*
X040102Y013634D01*
X040081Y013571D01*
X040005Y013756D01*
X039853Y013908D01*
X039654Y013990D01*
X039439Y013990D01*
X039241Y013908D01*
X039089Y013756D01*
X039047Y013654D01*
X039005Y013756D01*
X038853Y013908D01*
X038654Y013990D01*
X038439Y013990D01*
X038241Y013908D01*
X038089Y013756D01*
X038047Y013654D01*
X038005Y013756D01*
X037853Y013908D01*
X037654Y013990D01*
X037439Y013990D01*
X037241Y013908D01*
X037180Y013847D01*
X037180Y016180D01*
X035680Y017680D01*
X033680Y017680D01*
X031680Y015680D01*
X024430Y015680D01*
X022680Y017430D01*
X022395Y017430D01*
X022395Y017534D01*
X022383Y017579D01*
X022359Y017621D01*
X022326Y017654D01*
X022284Y017678D01*
X022239Y017690D01*
X021815Y017690D01*
X021815Y017430D01*
X021735Y017430D01*
X021735Y017690D01*
X021311Y017690D01*
X021266Y017678D01*
X021224Y017654D01*
X021191Y017621D01*
X021167Y017579D01*
X021155Y017534D01*
X021155Y017430D01*
X020008Y017430D01*
X020008Y017740D01*
X021196Y017740D01*
X021199Y017737D01*
X021287Y017700D01*
X022263Y017700D01*
X022351Y017737D01*
X022354Y017740D01*
X022518Y017740D01*
X022679Y017807D01*
X022929Y018057D01*
X023053Y018181D01*
X023120Y018342D01*
X023120Y019784D01*
X023146Y019784D01*
X023308Y019851D01*
X023431Y019974D01*
X023648Y019974D01*
X023736Y020011D01*
X023804Y020078D01*
X023817Y020110D01*
X024866Y020110D01*
X026160Y018816D01*
X026160Y018702D01*
X026239Y018510D01*
X026385Y018364D01*
X026577Y018285D01*
X026691Y018285D01*
X027695Y017281D01*
X027695Y016805D01*
X027614Y016725D01*
X027535Y016533D01*
X027535Y016327D01*
X027614Y016135D01*
X027760Y015989D01*
X027952Y015910D01*
X028158Y015910D01*
X028350Y015989D01*
X028496Y016135D01*
X028575Y016327D01*
X028575Y016533D01*
X028496Y016725D01*
X028415Y016805D01*
X028415Y017502D01*
X028360Y017634D01*
X028259Y017735D01*
X027200Y018794D01*
X027200Y018908D01*
X027121Y019100D01*
X026975Y019246D01*
X026783Y019325D01*
X026669Y019325D01*
X025219Y020776D01*
X025086Y020830D01*
X023817Y020830D01*
X023804Y020862D01*
X023780Y020886D01*
X023780Y021092D01*
X023353Y021092D01*
X023353Y021188D01*
X023257Y021188D01*
X023257Y021576D01*
X022986Y021576D01*
X022964Y021570D01*
X022964Y021833D01*
X022952Y021878D01*
X022928Y021919D01*
X022895Y021953D01*
X022854Y021977D01*
X022808Y021989D01*
X022510Y021989D01*
X022510Y021466D01*
X022350Y021466D01*
X022350Y021989D01*
X022052Y021989D01*
X022006Y021977D01*
X021965Y021953D01*
X021932Y021919D01*
X021908Y021878D01*
X021896Y021833D01*
X021896Y021466D01*
X022350Y021466D01*
X022350Y021306D01*
X021896Y021306D01*
X021896Y020939D01*
X021908Y020893D01*
X021932Y020852D01*
X021936Y020847D01*
X021872Y020783D01*
X021836Y020695D01*
X021836Y019753D01*
X021872Y019665D01*
X021940Y019598D01*
X022006Y019570D01*
X021287Y019570D01*
X021199Y019533D01*
X021196Y019530D01*
X020827Y019530D01*
X020715Y019642D01*
X020738Y019665D01*
X020774Y019753D01*
X020774Y019784D01*
X021021Y019784D01*
X021183Y019851D01*
X021306Y019974D01*
X021523Y019974D01*
X021611Y020011D01*
X021679Y020078D01*
X021715Y020167D01*
X021715Y020774D01*
X021679Y020862D01*
X021655Y020886D01*
X021655Y021092D01*
X021228Y021092D01*
X021228Y021188D01*
X021132Y021188D01*
X021132Y021576D01*
X020861Y021576D01*
X020815Y021563D01*
X020774Y021540D01*
X020741Y021506D01*
X020717Y021465D01*
X020705Y021419D01*
X020705Y021306D01*
X020260Y021306D01*
X020260Y021466D01*
X020714Y021466D01*
X020714Y021833D01*
X020702Y021878D01*
X020701Y021880D01*
X021365Y021880D01*
X021475Y021926D01*
X021725Y022176D01*
X021809Y022260D01*
X021855Y022370D01*
X021855Y022870D01*
X021996Y023010D01*
X022075Y023202D01*
X022075Y023408D01*
X021996Y023600D01*
X021850Y023746D01*
X021658Y023825D01*
X021452Y023825D01*
X021260Y023746D01*
X021114Y023600D01*
X021035Y023408D01*
X021035Y023202D01*
X021114Y023010D01*
X021255Y022870D01*
X021255Y022554D01*
X021181Y022480D01*
X020785Y022480D01*
X020825Y022577D01*
X020825Y022783D01*
X020746Y022975D01*
X020603Y023117D01*
X020746Y023260D01*
X020825Y023452D01*
X020825Y023651D01*
X020975Y023801D01*
X021059Y023885D01*
X021105Y023995D01*
X021105Y026445D01*
X021235Y026391D01*
X021424Y026391D01*
X021599Y026463D01*
X021733Y026597D01*
X021806Y026772D01*
X021806Y027434D01*
X021733Y027609D01*
X021599Y027743D01*
X021424Y027816D01*
X021365Y027816D01*
X021600Y028051D01*
X021684Y028135D01*
X021730Y028245D01*
X021730Y028297D01*
X021802Y028327D01*
X021870Y028394D01*
X021906Y028483D01*
X021906Y028557D01*
X021926Y028510D01*
X022285Y028151D01*
X022285Y027952D01*
X022341Y027816D01*
X022235Y027816D01*
X022060Y027743D01*
X021926Y027609D01*
X021853Y027434D01*
X021853Y026772D01*
X021926Y026597D01*
X022060Y026463D01*
X022235Y026391D01*
X022424Y026391D01*
X022599Y026463D01*
X022733Y026597D01*
X022806Y026772D01*
X022806Y027434D01*
X022764Y027535D01*
X022895Y027535D01*
X022853Y027434D01*
X022853Y026772D01*
X022926Y026597D01*
X023060Y026463D01*
X023235Y026391D01*
X023424Y026391D01*
X023599Y026463D01*
X023733Y026597D01*
X023806Y026772D01*
X023806Y027434D01*
X023733Y027609D01*
X023599Y027743D01*
X023424Y027816D01*
X023269Y027816D01*
X023325Y027952D01*
X023325Y028158D01*
X023246Y028350D01*
X023123Y028472D01*
X023246Y028523D01*
X023417Y028694D01*
X023510Y028919D01*
X023510Y029161D01*
X023417Y029386D01*
X023246Y029557D01*
X023021Y029650D01*
X022779Y029650D01*
X022554Y029557D01*
X022480Y029483D01*
X022480Y029615D01*
X022434Y029725D01*
X022350Y029809D01*
X021820Y030340D01*
X021952Y030285D01*
X022158Y030285D01*
X022350Y030364D01*
X022421Y030436D01*
X022554Y030303D01*
X022779Y030210D01*
X023021Y030210D01*
X023246Y030303D01*
X023403Y030460D01*
X024957Y030460D01*
X025114Y030303D01*
X025339Y030210D01*
X025581Y030210D01*
X025806Y030303D01*
X025930Y030427D01*
X026054Y030303D01*
X026279Y030210D01*
X026521Y030210D01*
X026746Y030303D01*
X026903Y030460D01*
X028457Y030460D01*
X028614Y030303D01*
X028839Y030210D01*
X029081Y030210D01*
X029306Y030303D01*
X029430Y030427D01*
X029554Y030303D01*
X029779Y030210D01*
X030021Y030210D01*
X030246Y030303D01*
X030403Y030460D01*
X031957Y030460D01*
X032114Y030303D01*
X032339Y030210D01*
X032581Y030210D01*
X032806Y030303D01*
X032930Y030427D01*
X033054Y030303D01*
X033279Y030210D01*
X033521Y030210D01*
X033746Y030303D01*
X033903Y030460D01*
X035457Y030460D01*
X035614Y030303D01*
X035839Y030210D01*
X036081Y030210D01*
X036306Y030303D01*
X036430Y030427D01*
X036554Y030303D01*
X036779Y030210D01*
X037021Y030210D01*
X037246Y030303D01*
X037417Y030474D01*
X037510Y030699D01*
X037510Y030941D01*
X037417Y031166D01*
X037393Y031190D01*
X038967Y031190D01*
X038943Y031166D01*
X038850Y030941D01*
X038850Y030699D01*
X038943Y030474D01*
X039114Y030303D01*
X039339Y030210D01*
X039581Y030210D01*
X039806Y030303D01*
X039977Y030474D01*
X040070Y030699D01*
X040070Y030941D01*
X039977Y031166D01*
X039953Y031190D01*
X040632Y031190D01*
X040679Y031190D01*
X040679Y031190D01*
X040876Y031179D01*
X041261Y031091D01*
X041616Y030920D01*
X041924Y030674D01*
X042170Y030366D01*
X042341Y030011D01*
X042428Y029627D01*
X042439Y029430D01*
X042439Y029416D01*
X042439Y027626D01*
X042212Y027852D01*
X041867Y027995D01*
X041493Y027995D01*
X041148Y027852D01*
X040883Y027587D01*
X040740Y027242D01*
X040740Y026868D01*
X040883Y026523D01*
X041148Y026258D01*
X041493Y026115D01*
X041867Y026115D01*
X042212Y026258D01*
X042438Y026484D01*
X042435Y015505D01*
X042212Y015727D01*
X041867Y015870D01*
X041493Y015870D01*
X041148Y015727D01*
X040883Y015462D01*
X040740Y015117D01*
X040740Y014879D01*
X040665Y014954D01*
X040665Y020502D01*
X040610Y020634D01*
X040450Y020794D01*
X040450Y020908D01*
X040371Y021100D01*
X040225Y021246D01*
X040033Y021325D01*
X039827Y021325D01*
X039635Y021246D01*
X039489Y021100D01*
X039410Y020908D01*
X039410Y020702D01*
X039489Y020510D01*
X039635Y020364D01*
X039827Y020285D01*
X039941Y020285D01*
X039945Y020281D01*
X039945Y014733D01*
X040000Y014601D01*
X040101Y014500D01*
X040694Y013907D01*
X040659Y013918D01*
X040585Y013930D01*
X040567Y013930D01*
X040567Y013170D01*
X040547Y013150D02*
X040555Y013805D01*
X039680Y014680D01*
X039680Y016930D01*
X039055Y016930D01*
X038891Y017420D02*
X038469Y017420D01*
X038180Y017709D01*
X037891Y017420D01*
X037469Y017420D01*
X037170Y017719D01*
X037170Y018141D01*
X037459Y018430D01*
X037170Y018719D01*
X037170Y019141D01*
X037469Y019440D01*
X037891Y019440D01*
X038180Y019151D01*
X038459Y019430D01*
X038170Y019719D01*
X038170Y020141D01*
X038459Y020430D01*
X038180Y020709D01*
X037891Y020420D01*
X037469Y020420D01*
X037170Y020719D01*
X037170Y021141D01*
X037459Y021430D01*
X037170Y021719D01*
X037170Y022141D01*
X037459Y022430D01*
X037170Y022719D01*
X037170Y023141D01*
X037459Y023430D01*
X037170Y023719D01*
X037170Y024141D01*
X037469Y024440D01*
X037891Y024440D01*
X038180Y024151D01*
X038469Y024440D01*
X038891Y024440D01*
X039190Y024141D01*
X039190Y023719D01*
X038901Y023430D01*
X039190Y023141D01*
X039190Y022719D01*
X038901Y022430D01*
X039190Y022141D01*
X039190Y021719D01*
X038901Y021430D01*
X039190Y021141D01*
X039190Y020719D01*
X038901Y020430D01*
X039190Y020141D01*
X039190Y019719D01*
X038901Y019430D01*
X039190Y019141D01*
X039190Y018719D01*
X038901Y018430D01*
X039190Y018141D01*
X039190Y017719D01*
X038891Y017420D01*
X039045Y017574D02*
X039945Y017574D01*
X039945Y017416D02*
X035944Y017416D01*
X035786Y017574D02*
X037315Y017574D01*
X037170Y017733D02*
X028262Y017733D01*
X028385Y017574D02*
X033574Y017574D01*
X033416Y017416D02*
X028415Y017416D01*
X028415Y017257D02*
X033257Y017257D01*
X033099Y017099D02*
X028415Y017099D01*
X028415Y016940D02*
X032940Y016940D01*
X032782Y016782D02*
X028439Y016782D01*
X028538Y016623D02*
X032623Y016623D01*
X032465Y016465D02*
X028575Y016465D01*
X028566Y016306D02*
X032306Y016306D01*
X032148Y016148D02*
X028501Y016148D01*
X028349Y015989D02*
X031989Y015989D01*
X031831Y015831D02*
X024279Y015831D01*
X024121Y015989D02*
X027761Y015989D01*
X027609Y016148D02*
X023962Y016148D01*
X023804Y016306D02*
X027544Y016306D01*
X027535Y016465D02*
X025970Y016465D01*
X025999Y016476D02*
X026134Y016611D01*
X026207Y016788D01*
X026207Y016979D01*
X026134Y017155D01*
X026049Y017240D01*
X026180Y017295D01*
X026315Y017430D01*
X026389Y017606D01*
X026389Y017797D01*
X026315Y017973D01*
X026180Y018108D01*
X026004Y018181D01*
X025813Y018181D01*
X025637Y018108D01*
X025502Y017973D01*
X025429Y017797D01*
X025429Y017606D01*
X025502Y017430D01*
X025586Y017345D01*
X025455Y017290D01*
X025320Y017155D01*
X025247Y016979D01*
X025247Y016788D01*
X025320Y016611D01*
X025455Y016476D01*
X025631Y016403D01*
X025822Y016403D01*
X025999Y016476D01*
X026139Y016623D02*
X027572Y016623D01*
X027671Y016782D02*
X026204Y016782D01*
X026207Y016940D02*
X027695Y016940D01*
X027695Y017099D02*
X026157Y017099D01*
X026090Y017257D02*
X027695Y017257D01*
X027560Y017416D02*
X026301Y017416D01*
X026375Y017574D02*
X027402Y017574D01*
X027243Y017733D02*
X026389Y017733D01*
X026350Y017891D02*
X027085Y017891D01*
X026926Y018050D02*
X026239Y018050D01*
X026383Y018367D02*
X025681Y018367D01*
X025681Y018313D02*
X025681Y018504D01*
X025608Y018680D01*
X025473Y018815D01*
X025297Y018889D01*
X025106Y018889D01*
X024930Y018815D01*
X024795Y018680D01*
X024740Y018549D01*
X024655Y018634D01*
X024479Y018707D01*
X024288Y018707D01*
X024111Y018634D01*
X023976Y018499D01*
X023903Y018322D01*
X023903Y018131D01*
X023976Y017955D01*
X024111Y017820D01*
X024288Y017747D01*
X024479Y017747D01*
X024655Y017820D01*
X024790Y017955D01*
X024845Y018086D01*
X024930Y018002D01*
X025106Y017929D01*
X025297Y017929D01*
X025473Y018002D01*
X025608Y018137D01*
X025681Y018313D01*
X025638Y018208D02*
X026768Y018208D01*
X026233Y018525D02*
X025673Y018525D01*
X025605Y018684D02*
X026167Y018684D01*
X026134Y018842D02*
X025409Y018842D01*
X024994Y018842D02*
X023120Y018842D01*
X023120Y018684D02*
X024232Y018684D01*
X024003Y018525D02*
X023120Y018525D01*
X023120Y018367D02*
X023922Y018367D01*
X023903Y018208D02*
X023064Y018208D01*
X022922Y018050D02*
X023937Y018050D01*
X024040Y017891D02*
X022763Y017891D01*
X022341Y017733D02*
X025429Y017733D01*
X025442Y017574D02*
X022384Y017574D01*
X022694Y017416D02*
X025516Y017416D01*
X025422Y017257D02*
X022853Y017257D01*
X023011Y017099D02*
X025296Y017099D01*
X025247Y016940D02*
X023170Y016940D01*
X023328Y016782D02*
X025249Y016782D01*
X025315Y016623D02*
X023487Y016623D01*
X023645Y016465D02*
X025483Y016465D01*
X025468Y017891D02*
X024726Y017891D01*
X024829Y018050D02*
X024882Y018050D01*
X025521Y018050D02*
X025578Y018050D01*
X024798Y018684D02*
X024535Y018684D01*
X025341Y019635D02*
X023120Y019635D01*
X023120Y019476D02*
X025500Y019476D01*
X025658Y019318D02*
X023120Y019318D01*
X023120Y019159D02*
X025817Y019159D01*
X025975Y019001D02*
X023120Y019001D01*
X023168Y019793D02*
X025183Y019793D01*
X025024Y019952D02*
X023408Y019952D01*
X023817Y020110D02*
X024866Y020110D01*
X025409Y020586D02*
X026160Y020586D01*
X026160Y020577D02*
X026239Y020385D01*
X026385Y020239D01*
X026577Y020160D01*
X026783Y020160D01*
X026975Y020239D01*
X027121Y020385D01*
X027200Y020577D01*
X027200Y020783D01*
X027121Y020975D01*
X026975Y021121D01*
X026783Y021200D01*
X026584Y021200D01*
X026265Y021519D01*
X026467Y021435D01*
X026702Y021435D01*
X026919Y021525D01*
X027085Y021691D01*
X027175Y021908D01*
X027175Y022143D01*
X027169Y022157D01*
X028505Y023493D01*
X028945Y023493D01*
X028972Y023504D01*
X028972Y023465D01*
X028801Y023293D01*
X028755Y023183D01*
X028755Y022761D01*
X028712Y022761D01*
X028624Y022724D01*
X028556Y022656D01*
X028520Y022568D01*
X028520Y021961D01*
X028533Y021930D01*
X028520Y021899D01*
X028520Y021292D01*
X028556Y021203D01*
X028624Y021136D01*
X028712Y021099D01*
X029127Y021099D01*
X029670Y020557D01*
X029660Y020533D01*
X029660Y020327D01*
X029739Y020135D01*
X029885Y019989D01*
X030077Y019910D01*
X030283Y019910D01*
X030475Y019989D01*
X030621Y020135D01*
X030700Y020327D01*
X030700Y020533D01*
X030621Y020725D01*
X030475Y020871D01*
X030283Y020950D01*
X030125Y020950D01*
X029590Y021484D01*
X029590Y021899D01*
X029577Y021930D01*
X029590Y021961D01*
X029590Y022568D01*
X029554Y022656D01*
X029486Y022724D01*
X029398Y022761D01*
X029355Y022761D01*
X029355Y022999D01*
X029475Y023119D01*
X029811Y023119D01*
X029900Y023156D01*
X029967Y023223D01*
X030004Y023311D01*
X030004Y023801D01*
X029967Y023889D01*
X029926Y023930D01*
X029967Y023971D01*
X030004Y024059D01*
X030004Y024549D01*
X029967Y024637D01*
X029900Y024704D01*
X029811Y024741D01*
X029790Y024741D01*
X029929Y024880D01*
X030362Y024880D01*
X030433Y024810D01*
X030593Y024743D01*
X030767Y024743D01*
X030927Y024810D01*
X030979Y024861D01*
X031001Y024846D01*
X031070Y024818D01*
X031143Y024803D01*
X031180Y024803D01*
X031180Y025180D01*
X031180Y025180D01*
X031180Y025557D01*
X031143Y025557D01*
X031070Y025542D01*
X031001Y025514D01*
X030979Y025499D01*
X030927Y025550D01*
X030767Y025617D01*
X030593Y025617D01*
X030433Y025550D01*
X030362Y025480D01*
X029929Y025480D01*
X029105Y026304D01*
X029105Y026516D01*
X029111Y026511D01*
X029170Y026481D01*
X029232Y026461D01*
X029297Y026451D01*
X029330Y026451D01*
X029362Y026451D01*
X029427Y026461D01*
X029489Y026481D01*
X029548Y026511D01*
X029601Y026550D01*
X029647Y026596D01*
X029686Y026649D01*
X029715Y026707D01*
X029736Y026770D01*
X029746Y026834D01*
X029746Y027103D01*
X029330Y027103D01*
X029330Y027103D01*
X029330Y026451D01*
X029330Y027103D01*
X029330Y027103D01*
X029746Y027103D01*
X029746Y027372D01*
X029736Y027437D01*
X029715Y027499D01*
X029686Y027558D01*
X029647Y027611D01*
X029601Y027657D01*
X029548Y027695D01*
X029489Y027725D01*
X029427Y027745D01*
X029362Y027756D01*
X029330Y027756D01*
X029330Y027103D01*
X029330Y027103D01*
X029330Y027756D01*
X029297Y027756D01*
X029232Y027745D01*
X029230Y027745D01*
X029246Y027760D01*
X029325Y027952D01*
X029325Y027986D01*
X029510Y027801D01*
X029620Y027755D01*
X029740Y027755D01*
X029914Y027755D01*
X029880Y027720D01*
X029797Y027522D01*
X029797Y026707D01*
X029880Y026508D01*
X030031Y026356D01*
X030230Y026274D01*
X030445Y026274D01*
X030643Y026356D01*
X030795Y026508D01*
X030837Y026610D01*
X030880Y026508D01*
X031031Y026356D01*
X031230Y026274D01*
X031445Y026274D01*
X031643Y026356D01*
X031795Y026508D01*
X031837Y026610D01*
X031880Y026508D01*
X032031Y026356D01*
X032230Y026274D01*
X032445Y026274D01*
X032643Y026356D01*
X032795Y026508D01*
X032837Y026610D01*
X032880Y026508D01*
X033031Y026356D01*
X033230Y026274D01*
X033350Y026274D01*
X032527Y025451D01*
X032427Y025550D01*
X032267Y025617D01*
X032093Y025617D01*
X031933Y025550D01*
X031930Y025548D01*
X031927Y025550D01*
X031767Y025617D01*
X031593Y025617D01*
X031433Y025550D01*
X031381Y025499D01*
X031359Y025514D01*
X031290Y025542D01*
X031217Y025557D01*
X031180Y025557D01*
X031180Y025180D01*
X031180Y024803D01*
X031217Y024803D01*
X031290Y024818D01*
X031359Y024846D01*
X031381Y024861D01*
X031433Y024810D01*
X031593Y024743D01*
X031767Y024743D01*
X031856Y024780D01*
X030651Y023575D01*
X030452Y023575D01*
X030260Y023496D01*
X030114Y023350D01*
X030035Y023158D01*
X030035Y022952D01*
X030114Y022760D01*
X030132Y022742D01*
X029989Y022600D01*
X029910Y022408D01*
X029910Y022202D01*
X029989Y022010D01*
X030135Y021864D01*
X030327Y021785D01*
X030533Y021785D01*
X030725Y021864D01*
X030868Y022007D01*
X030885Y021989D01*
X031077Y021910D01*
X031283Y021910D01*
X031475Y021989D01*
X031621Y022135D01*
X031700Y022327D01*
X031700Y022526D01*
X034725Y025551D01*
X034809Y025635D01*
X034855Y025745D01*
X034855Y025762D01*
X034933Y025685D01*
X035093Y025618D01*
X035267Y025618D01*
X035427Y025685D01*
X035430Y025687D01*
X035433Y025685D01*
X035593Y025618D01*
X035767Y025618D01*
X035927Y025685D01*
X035930Y025687D01*
X035933Y025685D01*
X036093Y025618D01*
X036267Y025618D01*
X036427Y025685D01*
X036430Y025687D01*
X036433Y025685D01*
X036593Y025618D01*
X036767Y025618D01*
X036927Y025685D01*
X037050Y025808D01*
X037117Y025968D01*
X037117Y026142D01*
X037050Y026302D01*
X036985Y026367D01*
X037050Y026433D01*
X037117Y026593D01*
X037117Y026767D01*
X037050Y026927D01*
X036927Y027050D01*
X036767Y027117D01*
X036593Y027117D01*
X036433Y027050D01*
X036430Y027048D01*
X036427Y027050D01*
X036267Y027117D01*
X036093Y027117D01*
X035933Y027050D01*
X035930Y027048D01*
X035927Y027050D01*
X035767Y027117D01*
X035593Y027117D01*
X035433Y027050D01*
X035430Y027048D01*
X035427Y027050D01*
X035267Y027117D01*
X035093Y027117D01*
X034933Y027050D01*
X034855Y026973D01*
X034855Y027511D01*
X035793Y028449D01*
X035839Y028430D01*
X036081Y028430D01*
X036306Y028523D01*
X036430Y028647D01*
X036554Y028523D01*
X036779Y028430D01*
X037021Y028430D01*
X037246Y028523D01*
X037417Y028694D01*
X037510Y028919D01*
X037510Y029161D01*
X037417Y029386D01*
X037246Y029557D01*
X037021Y029650D01*
X036779Y029650D01*
X036554Y029557D01*
X036430Y029433D01*
X036306Y029557D01*
X036081Y029650D01*
X035839Y029650D01*
X035614Y029557D01*
X035443Y029386D01*
X035350Y029161D01*
X035350Y028919D01*
X035369Y028873D01*
X034453Y027957D01*
X033934Y028475D01*
X033850Y028559D01*
X033802Y028579D01*
X033917Y028694D01*
X034010Y028919D01*
X034010Y029161D01*
X033917Y029386D01*
X033746Y029557D01*
X033521Y029650D01*
X033279Y029650D01*
X033054Y029557D01*
X032930Y029433D01*
X032806Y029557D01*
X032581Y029650D01*
X032339Y029650D01*
X032114Y029557D01*
X031943Y029386D01*
X031850Y029161D01*
X031850Y028919D01*
X031943Y028694D01*
X032114Y028523D01*
X032197Y028489D01*
X032260Y028426D01*
X032260Y028426D01*
X032331Y028355D01*
X029804Y028355D01*
X029694Y028465D01*
X029779Y028430D01*
X030021Y028430D01*
X030246Y028523D01*
X030417Y028694D01*
X030510Y028919D01*
X030510Y029161D01*
X030417Y029386D01*
X030246Y029557D01*
X030021Y029650D01*
X029779Y029650D01*
X029554Y029557D01*
X029430Y029433D01*
X029306Y029557D01*
X029081Y029650D01*
X028839Y029650D01*
X028614Y029557D01*
X028443Y029386D01*
X028350Y029161D01*
X028350Y028919D01*
X028443Y028694D01*
X028603Y028534D01*
X028510Y028496D01*
X028364Y028350D01*
X028285Y028158D01*
X028285Y027952D01*
X028341Y027816D01*
X028235Y027816D01*
X028060Y027743D01*
X027926Y027609D01*
X027853Y027434D01*
X027853Y026772D01*
X027926Y026597D01*
X028060Y026463D01*
X028235Y026391D01*
X028424Y026391D01*
X028505Y026424D01*
X028505Y026120D01*
X028551Y026010D01*
X029381Y025180D01*
X029234Y025033D01*
X029188Y024923D01*
X029188Y024741D01*
X029165Y024741D01*
X029077Y024704D01*
X029009Y024637D01*
X028972Y024549D01*
X028972Y024356D01*
X028945Y024367D01*
X028299Y024367D01*
X028210Y024330D01*
X028143Y024263D01*
X028106Y024175D01*
X028106Y023999D01*
X026716Y022609D01*
X026702Y022615D01*
X026539Y022615D01*
X027059Y023135D01*
X027105Y023245D01*
X027105Y026445D01*
X027235Y026391D01*
X027424Y026391D01*
X027599Y026463D01*
X027733Y026597D01*
X027806Y026772D01*
X027806Y027434D01*
X027733Y027609D01*
X027599Y027743D01*
X027424Y027816D01*
X027235Y027816D01*
X027102Y027761D01*
X027059Y027865D01*
X026975Y027949D01*
X026494Y028430D01*
X026521Y028430D01*
X026746Y028523D01*
X026917Y028694D01*
X027010Y028919D01*
X027010Y029161D01*
X026917Y029386D01*
X026746Y029557D01*
X026521Y029650D01*
X026279Y029650D01*
X026054Y029557D01*
X025930Y029433D01*
X025806Y029557D01*
X025581Y029650D01*
X025339Y029650D01*
X025114Y029557D01*
X024943Y029386D01*
X024850Y029161D01*
X024850Y028919D01*
X024943Y028694D01*
X025114Y028523D01*
X025339Y028430D01*
X025581Y028430D01*
X025627Y028449D01*
X026260Y027816D01*
X026235Y027816D01*
X026060Y027743D01*
X025926Y027609D01*
X025853Y027434D01*
X025853Y026772D01*
X025926Y026597D01*
X026060Y026463D01*
X026235Y026391D01*
X026424Y026391D01*
X026505Y026424D01*
X026505Y023429D01*
X025635Y022559D01*
X025551Y022475D01*
X025505Y022365D01*
X025505Y021495D01*
X025551Y021385D01*
X026160Y020776D01*
X026160Y020577D01*
X026222Y020427D02*
X025567Y020427D01*
X025726Y020269D02*
X026356Y020269D01*
X026043Y019952D02*
X029976Y019952D01*
X029765Y020110D02*
X025884Y020110D01*
X026201Y019793D02*
X033950Y019793D01*
X033950Y019760D02*
X034023Y019583D01*
X034158Y019448D01*
X034335Y019375D01*
X034525Y019375D01*
X034702Y019448D01*
X034837Y019583D01*
X034910Y019760D01*
X034910Y019950D01*
X034837Y020127D01*
X034702Y020262D01*
X034525Y020335D01*
X034335Y020335D01*
X034158Y020262D01*
X034023Y020127D01*
X033950Y019950D01*
X033950Y019760D01*
X034002Y019635D02*
X026360Y019635D01*
X026518Y019476D02*
X034130Y019476D01*
X033950Y019952D02*
X030384Y019952D01*
X030595Y020110D02*
X034016Y020110D01*
X034174Y020269D02*
X030676Y020269D01*
X030700Y020427D02*
X037462Y020427D01*
X037494Y020380D02*
X037230Y020116D01*
X037230Y019940D01*
X037670Y019940D01*
X037670Y020380D01*
X037494Y020380D01*
X037382Y020269D02*
X034686Y020269D01*
X034844Y020110D02*
X037230Y020110D01*
X037230Y019952D02*
X034910Y019952D01*
X034910Y019793D02*
X037230Y019793D01*
X037230Y019744D02*
X037494Y019480D01*
X037670Y019480D01*
X037670Y019920D01*
X037230Y019920D01*
X037230Y019744D01*
X037339Y019635D02*
X034858Y019635D01*
X034730Y019476D02*
X038413Y019476D01*
X038346Y019318D02*
X038014Y019318D01*
X038180Y019430D02*
X037680Y019930D01*
X037690Y019940D02*
X037670Y019940D01*
X037670Y019920D01*
X037690Y019920D01*
X037690Y019940D01*
X037690Y020380D01*
X037866Y020380D01*
X038130Y020116D01*
X038130Y019940D01*
X037690Y019940D01*
X037690Y019952D02*
X037670Y019952D01*
X037690Y019920D02*
X038130Y019920D01*
X038130Y019744D01*
X037866Y019480D01*
X037690Y019480D01*
X037690Y019920D01*
X037690Y019793D02*
X037670Y019793D01*
X037670Y019635D02*
X037690Y019635D01*
X038021Y019635D02*
X038254Y019635D01*
X038170Y019793D02*
X038130Y019793D01*
X038130Y019952D02*
X038170Y019952D01*
X038170Y020110D02*
X038130Y020110D01*
X037978Y020269D02*
X038297Y020269D01*
X038456Y020427D02*
X037898Y020427D01*
X038057Y020586D02*
X038303Y020586D01*
X038904Y020427D02*
X039573Y020427D01*
X039458Y020586D02*
X039057Y020586D01*
X039190Y020744D02*
X039410Y020744D01*
X039410Y020903D02*
X039190Y020903D01*
X039190Y021061D02*
X039473Y021061D01*
X039609Y021220D02*
X039112Y021220D01*
X038953Y021378D02*
X042437Y021378D01*
X042437Y021220D02*
X040251Y021220D01*
X040387Y021061D02*
X042437Y021061D01*
X042437Y020903D02*
X040450Y020903D01*
X040500Y020744D02*
X042436Y020744D01*
X042436Y020586D02*
X040630Y020586D01*
X040665Y020427D02*
X042436Y020427D01*
X042436Y020269D02*
X040665Y020269D01*
X040665Y020110D02*
X042436Y020110D01*
X042436Y019952D02*
X040665Y019952D01*
X040665Y019793D02*
X042436Y019793D01*
X042436Y019635D02*
X040665Y019635D01*
X040665Y019476D02*
X042436Y019476D01*
X042436Y019318D02*
X040665Y019318D01*
X040665Y019159D02*
X042436Y019159D01*
X042436Y019001D02*
X040665Y019001D01*
X040665Y018842D02*
X042436Y018842D01*
X042436Y018684D02*
X040665Y018684D01*
X040665Y018525D02*
X042436Y018525D01*
X042436Y018367D02*
X040665Y018367D01*
X040665Y018208D02*
X042436Y018208D01*
X042436Y018050D02*
X040665Y018050D01*
X040665Y017891D02*
X042436Y017891D01*
X042436Y017733D02*
X040665Y017733D01*
X040665Y017574D02*
X042435Y017574D01*
X042435Y017416D02*
X040665Y017416D01*
X040665Y017257D02*
X042435Y017257D01*
X042435Y017099D02*
X040665Y017099D01*
X040665Y016940D02*
X042435Y016940D01*
X042435Y016782D02*
X040665Y016782D01*
X040665Y016623D02*
X042435Y016623D01*
X042435Y016465D02*
X040665Y016465D01*
X040665Y016306D02*
X042435Y016306D01*
X042435Y016148D02*
X040665Y016148D01*
X040665Y015989D02*
X042435Y015989D01*
X042435Y015831D02*
X041962Y015831D01*
X042267Y015672D02*
X042435Y015672D01*
X042426Y015514D02*
X042435Y015514D01*
X041398Y015831D02*
X040665Y015831D01*
X040665Y015672D02*
X041093Y015672D01*
X040934Y015514D02*
X040665Y015514D01*
X040665Y015355D02*
X040839Y015355D01*
X040773Y015197D02*
X040665Y015197D01*
X040665Y015038D02*
X040740Y015038D01*
X040740Y014880D02*
X040740Y014880D01*
X040197Y014404D02*
X037180Y014404D01*
X037180Y014246D02*
X040355Y014246D01*
X040514Y014087D02*
X037180Y014087D01*
X037180Y013929D02*
X037291Y013929D01*
X037803Y013929D02*
X038291Y013929D01*
X038103Y013770D02*
X037991Y013770D01*
X038803Y013929D02*
X039291Y013929D01*
X039103Y013770D02*
X038991Y013770D01*
X039803Y013929D02*
X040499Y013929D01*
X040527Y013929D02*
X040567Y013929D01*
X040595Y013929D02*
X040672Y013929D01*
X040567Y013770D02*
X040527Y013770D01*
X040527Y013612D02*
X040567Y013612D01*
X040567Y013453D02*
X040527Y013453D01*
X040527Y013295D02*
X040567Y013295D01*
X040095Y013612D02*
X040064Y013612D01*
X039991Y013770D02*
X040188Y013770D01*
X040038Y014563D02*
X037180Y014563D01*
X037180Y014721D02*
X039950Y014721D01*
X039945Y014880D02*
X037180Y014880D01*
X037180Y015038D02*
X039945Y015038D01*
X039945Y015197D02*
X037180Y015197D01*
X037180Y015355D02*
X039945Y015355D01*
X039945Y015514D02*
X037180Y015514D01*
X037180Y015672D02*
X039945Y015672D01*
X039945Y015831D02*
X037180Y015831D01*
X037180Y015989D02*
X039945Y015989D01*
X039945Y016148D02*
X037180Y016148D01*
X037054Y016306D02*
X039945Y016306D01*
X039945Y016465D02*
X036895Y016465D01*
X036737Y016623D02*
X039945Y016623D01*
X039945Y016782D02*
X036578Y016782D01*
X036420Y016940D02*
X039945Y016940D01*
X039945Y017099D02*
X036261Y017099D01*
X036103Y017257D02*
X039945Y017257D01*
X039680Y016930D02*
X039680Y019055D01*
X039305Y019430D01*
X038180Y019430D01*
X038172Y019159D02*
X038188Y019159D01*
X038947Y019476D02*
X039945Y019476D01*
X039945Y019318D02*
X039014Y019318D01*
X039172Y019159D02*
X039945Y019159D01*
X039945Y019001D02*
X039190Y019001D01*
X039190Y018842D02*
X039945Y018842D01*
X039945Y018684D02*
X039155Y018684D01*
X038996Y018525D02*
X039945Y018525D01*
X039945Y018367D02*
X038965Y018367D01*
X039123Y018208D02*
X039945Y018208D01*
X039945Y018050D02*
X039190Y018050D01*
X039190Y017891D02*
X039945Y017891D01*
X039945Y017733D02*
X039190Y017733D01*
X038315Y017574D02*
X038045Y017574D01*
X037170Y017891D02*
X028103Y017891D01*
X027945Y018050D02*
X037170Y018050D01*
X037237Y018208D02*
X027786Y018208D01*
X027628Y018367D02*
X037395Y018367D01*
X037364Y018525D02*
X027469Y018525D01*
X027311Y018684D02*
X037205Y018684D01*
X037170Y018842D02*
X027200Y018842D01*
X027162Y019001D02*
X037170Y019001D01*
X037188Y019159D02*
X027061Y019159D01*
X026801Y019318D02*
X037346Y019318D01*
X037670Y020110D02*
X037690Y020110D01*
X037690Y020269D02*
X037670Y020269D01*
X037303Y020586D02*
X030678Y020586D01*
X030601Y020744D02*
X037170Y020744D01*
X037170Y020903D02*
X030398Y020903D01*
X030014Y021061D02*
X037170Y021061D01*
X037248Y021220D02*
X029855Y021220D01*
X029697Y021378D02*
X034128Y021378D01*
X034158Y021348D02*
X034335Y021275D01*
X034525Y021275D01*
X034702Y021348D01*
X034837Y021483D01*
X034910Y021660D01*
X034910Y021850D01*
X034837Y022027D01*
X034702Y022162D01*
X034525Y022235D01*
X034335Y022235D01*
X034158Y022162D01*
X034023Y022027D01*
X033950Y021850D01*
X033950Y021660D01*
X034023Y021483D01*
X034158Y021348D01*
X034001Y021537D02*
X029590Y021537D01*
X029590Y021695D02*
X033950Y021695D01*
X033951Y021854D02*
X030699Y021854D01*
X030161Y021854D02*
X029590Y021854D01*
X029590Y022012D02*
X029989Y022012D01*
X029923Y022171D02*
X029590Y022171D01*
X029590Y022329D02*
X029910Y022329D01*
X029943Y022488D02*
X029590Y022488D01*
X029558Y022646D02*
X030036Y022646D01*
X030096Y022805D02*
X029355Y022805D01*
X029355Y022963D02*
X030035Y022963D01*
X030035Y023122D02*
X029817Y023122D01*
X029991Y023280D02*
X030085Y023280D01*
X030004Y023439D02*
X030203Y023439D01*
X030004Y023597D02*
X030673Y023597D01*
X030831Y023756D02*
X030004Y023756D01*
X029942Y023914D02*
X030990Y023914D01*
X031148Y024073D02*
X030004Y024073D01*
X030004Y024231D02*
X031307Y024231D01*
X031465Y024390D02*
X030004Y024390D01*
X030004Y024548D02*
X031624Y024548D01*
X031782Y024707D02*
X029894Y024707D01*
X029914Y024865D02*
X030377Y024865D01*
X031180Y024865D02*
X031180Y024865D01*
X031180Y025024D02*
X031180Y025024D01*
X031180Y025180D02*
X031180Y025180D01*
X031180Y025182D02*
X031180Y025182D01*
X031180Y025341D02*
X031180Y025341D01*
X031180Y025499D02*
X031180Y025499D01*
X030979Y025499D02*
X030979Y025499D01*
X031381Y025499D02*
X031381Y025499D01*
X031486Y026292D02*
X032188Y026292D01*
X031938Y026450D02*
X031737Y026450D01*
X031837Y026609D02*
X031838Y026609D01*
X032486Y026292D02*
X033188Y026292D01*
X033209Y026133D02*
X029276Y026133D01*
X029118Y026292D02*
X030188Y026292D01*
X029938Y026450D02*
X029105Y026450D01*
X029330Y026609D02*
X029330Y026609D01*
X029330Y026767D02*
X029330Y026767D01*
X029330Y026926D02*
X029330Y026926D01*
X029330Y027084D02*
X029330Y027084D01*
X029330Y027243D02*
X029330Y027243D01*
X029330Y027401D02*
X029330Y027401D01*
X029330Y027560D02*
X029330Y027560D01*
X029330Y027718D02*
X029330Y027718D01*
X029294Y027877D02*
X029434Y027877D01*
X029503Y027718D02*
X029879Y027718D01*
X029813Y027560D02*
X029684Y027560D01*
X029741Y027401D02*
X029797Y027401D01*
X029797Y027243D02*
X029746Y027243D01*
X029746Y027084D02*
X029797Y027084D01*
X029797Y026926D02*
X029746Y026926D01*
X029735Y026767D02*
X029797Y026767D01*
X029838Y026609D02*
X029656Y026609D01*
X029435Y025975D02*
X033050Y025975D01*
X032892Y025816D02*
X029593Y025816D01*
X029752Y025658D02*
X032733Y025658D01*
X032575Y025499D02*
X032479Y025499D01*
X032737Y026450D02*
X032938Y026450D01*
X032838Y026609D02*
X032837Y026609D01*
X034855Y027084D02*
X035014Y027084D01*
X034855Y027243D02*
X040740Y027243D01*
X040740Y027084D02*
X036846Y027084D01*
X037051Y026926D02*
X040740Y026926D01*
X040782Y026767D02*
X037117Y026767D01*
X037117Y026609D02*
X040847Y026609D01*
X040956Y026450D02*
X037058Y026450D01*
X037055Y026292D02*
X041114Y026292D01*
X041449Y026133D02*
X037117Y026133D01*
X037117Y025975D02*
X042438Y025975D01*
X042438Y026133D02*
X041911Y026133D01*
X042246Y026292D02*
X042438Y026292D01*
X042438Y026450D02*
X042404Y026450D01*
X042438Y025816D02*
X037054Y025816D01*
X036862Y025658D02*
X042438Y025658D01*
X042438Y025499D02*
X034673Y025499D01*
X034819Y025658D02*
X034998Y025658D01*
X035362Y025658D02*
X035498Y025658D01*
X035862Y025658D02*
X035998Y025658D01*
X036362Y025658D02*
X036498Y025658D01*
X036593Y024492D02*
X036433Y024425D01*
X036430Y024423D01*
X036427Y024425D01*
X036267Y024492D01*
X036093Y024492D01*
X035933Y024425D01*
X035930Y024423D01*
X035927Y024425D01*
X035767Y024492D01*
X035593Y024492D01*
X035433Y024425D01*
X035430Y024423D01*
X035427Y024425D01*
X035267Y024492D01*
X035093Y024492D01*
X034933Y024425D01*
X034810Y024302D01*
X034743Y024142D01*
X034743Y023968D01*
X034810Y023808D01*
X034875Y023743D01*
X034810Y023677D01*
X034743Y023517D01*
X034743Y023343D01*
X034810Y023183D01*
X034933Y023060D01*
X035093Y022993D01*
X035267Y022993D01*
X035427Y023060D01*
X035430Y023062D01*
X035433Y023060D01*
X035593Y022993D01*
X035767Y022993D01*
X035927Y023060D01*
X035930Y023062D01*
X035933Y023060D01*
X036093Y022993D01*
X036267Y022993D01*
X036427Y023060D01*
X036430Y023062D01*
X036433Y023060D01*
X036593Y022993D01*
X036767Y022993D01*
X036927Y023060D01*
X037050Y023183D01*
X037117Y023343D01*
X037117Y023517D01*
X037050Y023677D01*
X036985Y023743D01*
X037050Y023808D01*
X037117Y023968D01*
X037117Y024142D01*
X037050Y024302D01*
X036927Y024425D01*
X036767Y024492D01*
X036593Y024492D01*
X036963Y024390D02*
X037418Y024390D01*
X037260Y024231D02*
X037080Y024231D01*
X037117Y024073D02*
X037170Y024073D01*
X037170Y023914D02*
X037094Y023914D01*
X037170Y023756D02*
X036998Y023756D01*
X037084Y023597D02*
X037292Y023597D01*
X037450Y023439D02*
X037117Y023439D01*
X037091Y023280D02*
X037309Y023280D01*
X037170Y023122D02*
X036989Y023122D01*
X037170Y022963D02*
X032137Y022963D01*
X031979Y022805D02*
X037170Y022805D01*
X037243Y022646D02*
X031820Y022646D01*
X031700Y022488D02*
X037401Y022488D01*
X037358Y022329D02*
X031700Y022329D01*
X031635Y022171D02*
X034179Y022171D01*
X034017Y022012D02*
X031497Y022012D01*
X032296Y023122D02*
X034871Y023122D01*
X034769Y023280D02*
X032454Y023280D01*
X032613Y023439D02*
X034743Y023439D01*
X034776Y023597D02*
X032771Y023597D01*
X032930Y023756D02*
X034862Y023756D01*
X034766Y023914D02*
X033088Y023914D01*
X033247Y024073D02*
X034743Y024073D01*
X034780Y024231D02*
X033405Y024231D01*
X033564Y024390D02*
X034897Y024390D01*
X034198Y025024D02*
X042438Y025024D01*
X042438Y025182D02*
X034356Y025182D01*
X034515Y025341D02*
X042438Y025341D01*
X042438Y024865D02*
X034039Y024865D01*
X033881Y024707D02*
X042438Y024707D01*
X042438Y024548D02*
X033722Y024548D01*
X031188Y026292D02*
X030486Y026292D01*
X030737Y026450D02*
X030938Y026450D01*
X030838Y026609D02*
X030837Y026609D01*
X030381Y025499D02*
X029910Y025499D01*
X029379Y025182D02*
X027105Y025182D01*
X027105Y025024D02*
X029230Y025024D01*
X029188Y024865D02*
X027105Y024865D01*
X027105Y024707D02*
X029082Y024707D01*
X028972Y024548D02*
X027105Y024548D01*
X027105Y024390D02*
X028972Y024390D01*
X028622Y023930D02*
X028365Y023805D01*
X026585Y022025D01*
X027175Y022012D02*
X028520Y022012D01*
X028520Y021854D02*
X027152Y021854D01*
X027087Y021695D02*
X028520Y021695D01*
X028520Y021537D02*
X026930Y021537D01*
X026565Y021220D02*
X028550Y021220D01*
X028520Y021378D02*
X026406Y021378D01*
X026033Y020903D02*
X023780Y020903D01*
X023780Y021061D02*
X025875Y021061D01*
X025716Y021220D02*
X023780Y021220D01*
X023780Y021188D02*
X023780Y021419D01*
X023768Y021465D01*
X023744Y021506D01*
X023711Y021540D01*
X023670Y021563D01*
X023624Y021576D01*
X023353Y021576D01*
X023353Y021188D01*
X023780Y021188D01*
X023780Y021378D02*
X025558Y021378D01*
X025505Y021537D02*
X023714Y021537D01*
X023353Y021537D02*
X023257Y021537D01*
X023257Y021378D02*
X023353Y021378D01*
X023353Y021220D02*
X023257Y021220D01*
X022510Y021220D02*
X022350Y021220D01*
X022350Y021306D02*
X022350Y020888D01*
X022510Y020888D01*
X022510Y021306D01*
X022350Y021306D01*
X022350Y021378D02*
X021655Y021378D01*
X021655Y021419D02*
X021643Y021465D01*
X021619Y021506D01*
X021586Y021540D01*
X021545Y021563D01*
X021499Y021576D01*
X021228Y021576D01*
X021228Y021188D01*
X021655Y021188D01*
X021655Y021419D01*
X021589Y021537D02*
X021896Y021537D01*
X021896Y021695D02*
X020714Y021695D01*
X020714Y021537D02*
X020771Y021537D01*
X020705Y021378D02*
X020260Y021378D01*
X020260Y021306D02*
X020260Y020888D01*
X020100Y020888D01*
X020100Y021306D01*
X019646Y021306D01*
X019646Y020939D01*
X019658Y020893D01*
X019682Y020852D01*
X019686Y020847D01*
X019622Y020783D01*
X019586Y020695D01*
X019586Y020564D01*
X018810Y020564D01*
X018810Y020664D01*
X018773Y020752D01*
X018706Y020819D01*
X018618Y020856D01*
X017242Y020856D01*
X017154Y020819D01*
X017136Y020801D01*
X016887Y021050D01*
X016950Y021202D01*
X016950Y021408D01*
X016871Y021600D01*
X016725Y021746D01*
X016561Y021814D01*
X016679Y021932D01*
X016803Y022056D01*
X016870Y022217D01*
X016870Y024123D01*
X016894Y024147D01*
X016894Y024147D01*
X016958Y024120D01*
X016942Y024082D01*
X016942Y023775D01*
X016939Y023768D01*
X016939Y022950D01*
X017006Y022788D01*
X017050Y022744D01*
X017050Y021946D01*
X017087Y021858D01*
X017154Y021791D01*
X017242Y021754D01*
X018200Y021754D01*
X018160Y021658D01*
X018160Y021452D01*
X018239Y021260D01*
X018385Y021114D01*
X018577Y021035D01*
X018783Y021035D01*
X018975Y021114D01*
X019121Y021260D01*
X019200Y021452D01*
X019200Y021651D01*
X019429Y021880D01*
X019659Y021880D01*
X019658Y021878D01*
X019646Y021833D01*
X019646Y021466D01*
X020100Y021466D01*
X020100Y021306D01*
X020260Y021306D01*
X020260Y021220D02*
X020100Y021220D01*
X020100Y021378D02*
X019170Y021378D01*
X019200Y021537D02*
X019646Y021537D01*
X019646Y021695D02*
X019244Y021695D01*
X019403Y021854D02*
X019651Y021854D01*
X019135Y022434D02*
X019051Y022350D01*
X018810Y022109D01*
X018810Y023026D01*
X018776Y023107D01*
X018814Y023122D01*
X018881Y023190D01*
X018918Y023278D01*
X018918Y023516D01*
X018970Y023641D01*
X018970Y024151D01*
X019033Y024214D01*
X019070Y024302D01*
X019070Y025058D01*
X019033Y025146D01*
X018966Y025213D01*
X018878Y025250D01*
X018182Y025250D01*
X018094Y025213D01*
X018027Y025146D01*
X017990Y025058D01*
X017990Y024302D01*
X018027Y024214D01*
X018078Y024163D01*
X018044Y024082D01*
X018044Y023775D01*
X018041Y023768D01*
X018041Y023592D01*
X018044Y023585D01*
X018044Y023278D01*
X018069Y023218D01*
X017820Y023218D01*
X017819Y023220D01*
X017819Y023768D01*
X017816Y023775D01*
X017816Y024082D01*
X017782Y024163D01*
X017833Y024214D01*
X017870Y024302D01*
X017870Y025058D01*
X017833Y025146D01*
X017766Y025213D01*
X017678Y025250D01*
X016982Y025250D01*
X016894Y025213D01*
X016827Y025146D01*
X016816Y025120D01*
X016717Y025120D01*
X016556Y025053D01*
X016432Y024929D01*
X016057Y024554D01*
X015990Y024393D01*
X015990Y023132D01*
X015943Y023245D01*
X015783Y023405D01*
X015573Y023492D01*
X015347Y023492D01*
X015137Y023405D01*
X015070Y023338D01*
X015003Y023405D01*
X014793Y023492D01*
X014567Y023492D01*
X014357Y023405D01*
X014197Y023245D01*
X014110Y023036D01*
X014110Y022809D01*
X014197Y022599D01*
X014357Y022439D01*
X014458Y022397D01*
X014413Y022374D01*
X014348Y022327D01*
X014291Y022270D01*
X014244Y022205D01*
X014207Y022134D01*
X014183Y022057D01*
X014170Y021978D01*
X014170Y021948D01*
X014670Y021948D01*
X014670Y021928D01*
X014170Y021928D01*
X014170Y021898D01*
X014183Y021818D01*
X014207Y021742D01*
X014244Y021671D01*
X014291Y021606D01*
X014348Y021549D01*
X014413Y021502D01*
X014484Y021465D01*
X014561Y021440D01*
X014640Y021428D01*
X014670Y021428D01*
X014670Y021928D01*
X014690Y021928D01*
X014690Y021428D01*
X014720Y021428D01*
X014799Y021440D01*
X014876Y021465D01*
X014947Y021502D01*
X014990Y021533D01*
X014990Y019112D01*
X014771Y018894D01*
X014587Y018970D01*
X013773Y018970D01*
X013574Y018888D01*
X013422Y018736D01*
X013340Y018537D01*
X013340Y018323D01*
X013422Y018124D01*
X013574Y017972D01*
X013676Y017930D01*
X013574Y017888D01*
X013422Y017736D01*
X013340Y017537D01*
X013340Y017323D01*
X013422Y017124D01*
X013574Y016972D01*
X013759Y016895D01*
X013696Y016875D01*
X013628Y016841D01*
X013567Y016796D01*
X013514Y016743D01*
X013469Y016682D01*
X013435Y016614D01*
X013412Y016542D01*
X013400Y016468D01*
X013400Y016450D01*
X014160Y016450D01*
X014160Y016410D01*
X014200Y016410D01*
X014200Y016450D01*
X014960Y016450D01*
X014960Y016468D01*
X014948Y016542D01*
X014925Y016614D01*
X014891Y016682D01*
X014846Y016743D01*
X014793Y016796D01*
X014732Y016841D01*
X014664Y016875D01*
X014601Y016895D01*
X014786Y016972D01*
X014804Y016990D01*
X016339Y016990D01*
X016327Y016983D01*
X016294Y016950D01*
X016270Y016909D01*
X016258Y016863D01*
X016258Y016230D01*
X016850Y016230D01*
X016850Y016100D01*
X016820Y016070D01*
X016258Y016070D01*
X016258Y015508D01*
X014930Y014180D01*
X012759Y014180D01*
X012977Y014398D01*
X013120Y014743D01*
X013120Y015117D01*
X012977Y015462D01*
X012712Y015727D01*
X012367Y015870D01*
X011993Y015870D01*
X011648Y015727D01*
X011420Y015499D01*
X011420Y026486D01*
X011648Y026258D01*
X011993Y026115D01*
X012367Y026115D01*
X012712Y026258D01*
X012977Y026523D01*
X013120Y026868D01*
X013120Y027242D01*
X012977Y027587D01*
X012712Y027852D01*
X012367Y027995D01*
X011993Y027995D01*
X011648Y027852D01*
X011420Y027624D01*
X011420Y029430D01*
X011431Y029627D01*
X011519Y030011D01*
X011690Y030366D01*
X011935Y030675D01*
X012244Y030920D01*
X012599Y031091D01*
X012983Y031179D01*
X013180Y031190D01*
X021705Y031190D01*
X021614Y031100D01*
X021535Y030908D01*
X021535Y030702D01*
X021614Y030510D01*
X021666Y030459D01*
X021615Y030480D01*
X018245Y030480D01*
X018135Y030434D01*
X018051Y030350D01*
X018005Y030240D01*
X018005Y029955D01*
X017986Y029974D01*
X017898Y030011D01*
X017212Y030011D01*
X017203Y030007D01*
X017177Y030033D01*
X017089Y030070D01*
X016521Y030070D01*
X016433Y030033D01*
X016365Y029966D01*
X016355Y029941D01*
X016355Y030615D01*
X016309Y030725D01*
X016225Y030809D01*
X016115Y030855D01*
X015551Y030855D01*
X015551Y030988D01*
X015514Y031076D01*
X015447Y031143D01*
X015359Y031180D01*
X014751Y031180D01*
X014663Y031143D01*
X014596Y031076D01*
X014559Y030988D01*
X014559Y030105D01*
X014596Y030016D01*
X014663Y029949D01*
X014751Y029912D01*
X015359Y029912D01*
X015447Y029949D01*
X015514Y030016D01*
X015551Y030105D01*
X015551Y030255D01*
X015755Y030255D01*
X015755Y029448D01*
X015381Y029448D01*
X015293Y029411D01*
X015226Y029344D01*
X015189Y029255D01*
X015189Y028372D01*
X015226Y028284D01*
X015246Y028264D01*
X015246Y027816D01*
X015235Y027816D01*
X015060Y027743D01*
X014926Y027609D01*
X014853Y027434D01*
X014853Y026772D01*
X014926Y026597D01*
X015060Y026463D01*
X015235Y026391D01*
X015424Y026391D01*
X015599Y026463D01*
X015733Y026597D01*
X015806Y026772D01*
X015806Y026796D01*
X015810Y026798D01*
X015853Y026841D01*
X015853Y026772D01*
X015926Y026597D01*
X016060Y026463D01*
X016235Y026391D01*
X016313Y026391D01*
X016172Y026250D01*
X014720Y026250D01*
X014600Y026371D01*
X014408Y026450D01*
X014202Y026450D01*
X014010Y026371D01*
X013864Y026225D01*
X013785Y026033D01*
X013785Y025827D01*
X013853Y025663D01*
X013787Y025690D01*
X013433Y025690D01*
X013106Y025555D01*
X012855Y025304D01*
X012720Y024977D01*
X012720Y024623D01*
X012855Y024296D01*
X013106Y024045D01*
X013433Y023910D01*
X013787Y023910D01*
X014114Y024045D01*
X014365Y024296D01*
X014500Y024623D01*
X014500Y024977D01*
X014365Y025304D01*
X014259Y025410D01*
X014408Y025410D01*
X014600Y025489D01*
X014720Y025610D01*
X016369Y025610D01*
X016486Y025659D01*
X016576Y025749D01*
X017076Y026249D01*
X017125Y026366D01*
X017125Y026436D01*
X017235Y026391D01*
X017424Y026391D01*
X017599Y026463D01*
X017733Y026597D01*
X017806Y026772D01*
X017806Y027434D01*
X017733Y027609D01*
X017599Y027743D01*
X017424Y027816D01*
X017393Y027816D01*
X017826Y028249D01*
X017868Y028349D01*
X017898Y028349D01*
X017986Y028386D01*
X018054Y028453D01*
X018090Y028542D01*
X018090Y028595D01*
X018135Y028551D01*
X018245Y028505D01*
X018410Y028505D01*
X018431Y028453D01*
X018499Y028386D01*
X018587Y028349D01*
X019273Y028349D01*
X019282Y028353D01*
X019308Y028327D01*
X019396Y028290D01*
X019505Y028290D01*
X019505Y027782D01*
X019424Y027816D01*
X019235Y027816D01*
X019060Y027743D01*
X018926Y027609D01*
X018853Y027434D01*
X018853Y026772D01*
X018926Y026597D01*
X019060Y026463D01*
X019235Y026391D01*
X019424Y026391D01*
X019505Y026424D01*
X019505Y023120D01*
X019551Y023010D01*
X019635Y022926D01*
X019785Y022776D01*
X019785Y022577D01*
X019825Y022480D01*
X019245Y022480D01*
X019135Y022434D01*
X019030Y022329D02*
X018810Y022329D01*
X018810Y022171D02*
X018871Y022171D01*
X018810Y022488D02*
X019822Y022488D01*
X019785Y022646D02*
X018810Y022646D01*
X018810Y022805D02*
X019756Y022805D01*
X019598Y022963D02*
X018810Y022963D01*
X018812Y023122D02*
X019505Y023122D01*
X019505Y023280D02*
X018918Y023280D01*
X018918Y023439D02*
X019505Y023439D01*
X019505Y023597D02*
X018952Y023597D01*
X018970Y023756D02*
X019505Y023756D01*
X019505Y023914D02*
X018970Y023914D01*
X018970Y024073D02*
X019505Y024073D01*
X019505Y024231D02*
X019040Y024231D01*
X019070Y024390D02*
X019505Y024390D01*
X019505Y024548D02*
X019070Y024548D01*
X019070Y024707D02*
X019505Y024707D01*
X019505Y024865D02*
X019070Y024865D01*
X019070Y025024D02*
X019505Y025024D01*
X019505Y025182D02*
X018997Y025182D01*
X019505Y025341D02*
X014328Y025341D01*
X014415Y025182D02*
X016863Y025182D01*
X016526Y025024D02*
X014481Y025024D01*
X014500Y024865D02*
X016368Y024865D01*
X016209Y024707D02*
X014500Y024707D01*
X014469Y024548D02*
X016054Y024548D01*
X015990Y024390D02*
X014403Y024390D01*
X014300Y024231D02*
X015990Y024231D01*
X015990Y024073D02*
X014141Y024073D01*
X013797Y023914D02*
X015990Y023914D01*
X015990Y023756D02*
X011420Y023756D01*
X011420Y023914D02*
X013423Y023914D01*
X013079Y024073D02*
X011420Y024073D01*
X011420Y024231D02*
X012920Y024231D01*
X012817Y024390D02*
X011420Y024390D01*
X011420Y024548D02*
X012751Y024548D01*
X012720Y024707D02*
X011420Y024707D01*
X011420Y024865D02*
X012720Y024865D01*
X012739Y025024D02*
X011420Y025024D01*
X011420Y025182D02*
X012805Y025182D01*
X012892Y025341D02*
X011420Y025341D01*
X011420Y025499D02*
X013050Y025499D01*
X013355Y025658D02*
X011420Y025658D01*
X011420Y025816D02*
X013789Y025816D01*
X013785Y025975D02*
X011420Y025975D01*
X011420Y026133D02*
X011949Y026133D01*
X011614Y026292D02*
X011420Y026292D01*
X011420Y026450D02*
X011456Y026450D01*
X012411Y026133D02*
X013826Y026133D01*
X013931Y026292D02*
X012746Y026292D01*
X012904Y026450D02*
X015092Y026450D01*
X014921Y026609D02*
X014656Y026609D01*
X014647Y026596D02*
X014686Y026649D01*
X014715Y026707D01*
X014736Y026770D01*
X014746Y026834D01*
X014746Y027103D01*
X014330Y027103D01*
X014330Y027103D01*
X014330Y026451D01*
X014362Y026451D01*
X014427Y026461D01*
X014489Y026481D01*
X014548Y026511D01*
X014601Y026550D01*
X014647Y026596D01*
X014735Y026767D02*
X014856Y026767D01*
X014853Y026926D02*
X014746Y026926D01*
X014746Y027084D02*
X014853Y027084D01*
X014746Y027103D02*
X014746Y027372D01*
X014736Y027437D01*
X014715Y027499D01*
X014686Y027558D01*
X014647Y027611D01*
X014601Y027657D01*
X014548Y027695D01*
X014489Y027725D01*
X014427Y027745D01*
X014362Y027756D01*
X014330Y027756D01*
X014330Y027103D01*
X014330Y027103D01*
X014746Y027103D01*
X014746Y027243D02*
X014853Y027243D01*
X014853Y027401D02*
X014741Y027401D01*
X014684Y027560D02*
X014905Y027560D01*
X015035Y027718D02*
X014503Y027718D01*
X014330Y027718D02*
X014330Y027718D01*
X014330Y027756D02*
X014297Y027756D01*
X014232Y027745D01*
X014170Y027725D01*
X014111Y027695D01*
X014058Y027657D01*
X014012Y027611D01*
X013974Y027558D01*
X013944Y027499D01*
X013924Y027437D01*
X013913Y027372D01*
X013913Y027103D01*
X013913Y026834D01*
X013924Y026770D01*
X013944Y026707D01*
X013974Y026649D01*
X014012Y026596D01*
X014058Y026550D01*
X014111Y026511D01*
X014170Y026481D01*
X014232Y026461D01*
X014297Y026451D01*
X014330Y026451D01*
X014330Y027103D01*
X014330Y027103D01*
X013913Y027103D01*
X014330Y027103D01*
X014330Y027103D01*
X014330Y027756D01*
X014156Y027718D02*
X012846Y027718D01*
X012988Y027560D02*
X013975Y027560D01*
X013918Y027401D02*
X013054Y027401D01*
X013120Y027243D02*
X013913Y027243D01*
X013913Y027084D02*
X013120Y027084D01*
X013120Y026926D02*
X013913Y026926D01*
X013924Y026767D02*
X013078Y026767D01*
X013013Y026609D02*
X014003Y026609D01*
X014330Y026609D02*
X014330Y026609D01*
X014330Y026767D02*
X014330Y026767D01*
X014330Y026926D02*
X014330Y026926D01*
X014330Y027084D02*
X014330Y027084D01*
X014330Y027243D02*
X014330Y027243D01*
X014330Y027401D02*
X014330Y027401D01*
X014330Y027560D02*
X014330Y027560D01*
X014303Y028240D02*
X014495Y028240D01*
X014495Y028805D01*
X014512Y028805D01*
X014512Y028240D01*
X014705Y028240D01*
X014750Y028252D01*
X014792Y028276D01*
X014825Y028310D01*
X014849Y028351D01*
X014861Y028396D01*
X014861Y028805D01*
X014512Y028805D01*
X014512Y028822D01*
X014495Y028822D01*
X014495Y028805D01*
X014147Y028805D01*
X014147Y028396D01*
X014159Y028351D01*
X014183Y028310D01*
X014216Y028276D01*
X014257Y028252D01*
X014303Y028240D01*
X014159Y028352D02*
X011420Y028352D01*
X011420Y028194D02*
X015246Y028194D01*
X015246Y028035D02*
X011420Y028035D01*
X011420Y027877D02*
X011707Y027877D01*
X011514Y027718D02*
X011420Y027718D01*
X011420Y028511D02*
X012943Y028511D01*
X012993Y028490D02*
X013367Y028490D01*
X013712Y028633D01*
X013977Y028898D01*
X014120Y029243D01*
X014120Y029617D01*
X013977Y029962D01*
X013712Y030227D01*
X013367Y030370D01*
X012993Y030370D01*
X012648Y030227D01*
X012383Y029962D01*
X012240Y029617D01*
X012240Y029243D01*
X012383Y028898D01*
X012648Y028633D01*
X012993Y028490D01*
X012612Y028669D02*
X011420Y028669D01*
X011420Y028828D02*
X012453Y028828D01*
X012346Y028986D02*
X011420Y028986D01*
X011420Y029145D02*
X012281Y029145D01*
X012240Y029303D02*
X011420Y029303D01*
X011422Y029462D02*
X012240Y029462D01*
X012241Y029620D02*
X011431Y029620D01*
X011466Y029779D02*
X012307Y029779D01*
X012373Y029937D02*
X011502Y029937D01*
X011559Y030096D02*
X012516Y030096D01*
X012713Y030254D02*
X011636Y030254D01*
X011727Y030413D02*
X014559Y030413D01*
X014559Y030571D02*
X011853Y030571D01*
X012004Y030730D02*
X014559Y030730D01*
X014559Y030888D02*
X012203Y030888D01*
X012506Y031047D02*
X014584Y031047D01*
X014559Y030254D02*
X013647Y030254D01*
X013844Y030096D02*
X014563Y030096D01*
X014692Y029937D02*
X013987Y029937D01*
X014053Y029779D02*
X015755Y029779D01*
X015755Y029937D02*
X015418Y029937D01*
X015547Y030096D02*
X015755Y030096D01*
X015755Y030254D02*
X015551Y030254D01*
X015551Y030888D02*
X021535Y030888D01*
X021535Y030730D02*
X016305Y030730D01*
X016355Y030571D02*
X021589Y030571D01*
X021905Y030254D02*
X022672Y030254D01*
X022445Y030413D02*
X022398Y030413D01*
X022064Y030096D02*
X040016Y030096D01*
X040148Y030227D02*
X039883Y029962D01*
X039740Y029617D01*
X039740Y029515D01*
X039671Y029550D01*
X039589Y029576D01*
X039503Y029590D01*
X039480Y029590D01*
X039480Y029060D01*
X039440Y029060D01*
X039440Y029590D01*
X039417Y029590D01*
X039331Y029576D01*
X039249Y029550D01*
X039172Y029510D01*
X039102Y029460D01*
X039040Y029398D01*
X038990Y029328D01*
X038950Y029251D01*
X038924Y029169D01*
X038910Y029083D01*
X038910Y029060D01*
X039440Y029060D01*
X039440Y029020D01*
X039480Y029020D01*
X039480Y028490D01*
X039503Y028490D01*
X039589Y028504D01*
X039671Y028530D01*
X039748Y028570D01*
X039818Y028620D01*
X039880Y028682D01*
X039930Y028752D01*
X039964Y028817D01*
X040148Y028633D01*
X040493Y028490D01*
X040867Y028490D01*
X041212Y028633D01*
X041477Y028898D01*
X041620Y029243D01*
X041620Y029617D01*
X041477Y029962D01*
X041212Y030227D01*
X040867Y030370D01*
X040493Y030370D01*
X040148Y030227D01*
X040213Y030254D02*
X039688Y030254D01*
X039915Y030413D02*
X042133Y030413D01*
X042224Y030254D02*
X041147Y030254D01*
X041344Y030096D02*
X042300Y030096D01*
X042358Y029937D02*
X041487Y029937D01*
X041553Y029779D02*
X042394Y029779D01*
X042429Y029620D02*
X041619Y029620D01*
X041620Y029462D02*
X042438Y029462D01*
X042439Y029303D02*
X041620Y029303D01*
X041579Y029145D02*
X042439Y029145D01*
X042439Y028986D02*
X041514Y028986D01*
X041407Y028828D02*
X042439Y028828D01*
X042439Y028669D02*
X041248Y028669D01*
X040917Y028511D02*
X042439Y028511D01*
X042439Y028352D02*
X035696Y028352D01*
X035538Y028194D02*
X042439Y028194D01*
X042439Y028035D02*
X035379Y028035D01*
X035221Y027877D02*
X041207Y027877D01*
X041014Y027718D02*
X035062Y027718D01*
X034904Y027560D02*
X040872Y027560D01*
X040806Y027401D02*
X034855Y027401D01*
X035346Y027084D02*
X035514Y027084D01*
X035846Y027084D02*
X036014Y027084D01*
X036346Y027084D02*
X036514Y027084D01*
X036584Y028511D02*
X036276Y028511D01*
X037216Y028511D02*
X039310Y028511D01*
X039331Y028504D02*
X039417Y028490D01*
X039440Y028490D01*
X039440Y029020D01*
X038910Y029020D01*
X038910Y028997D01*
X038924Y028911D01*
X038950Y028829D01*
X038990Y028752D01*
X039040Y028682D01*
X039102Y028620D01*
X039172Y028570D01*
X039249Y028530D01*
X039331Y028504D01*
X039440Y028511D02*
X039480Y028511D01*
X039610Y028511D02*
X040443Y028511D01*
X040112Y028669D02*
X039867Y028669D01*
X039480Y028669D02*
X039440Y028669D01*
X039440Y028828D02*
X039480Y028828D01*
X039480Y028986D02*
X039440Y028986D01*
X039440Y029145D02*
X039480Y029145D01*
X039480Y029303D02*
X039440Y029303D01*
X039440Y029462D02*
X039480Y029462D01*
X039741Y029620D02*
X037094Y029620D01*
X037341Y029462D02*
X039104Y029462D01*
X038977Y029303D02*
X037451Y029303D01*
X037510Y029145D02*
X038920Y029145D01*
X038912Y028986D02*
X037510Y028986D01*
X037472Y028828D02*
X038951Y028828D01*
X039053Y028669D02*
X037392Y028669D01*
X036706Y029620D02*
X036154Y029620D01*
X036401Y029462D02*
X036459Y029462D01*
X035766Y029620D02*
X033594Y029620D01*
X033841Y029462D02*
X035519Y029462D01*
X035409Y029303D02*
X033951Y029303D01*
X034010Y029145D02*
X035350Y029145D01*
X035350Y028986D02*
X034010Y028986D01*
X033972Y028828D02*
X035323Y028828D01*
X035165Y028669D02*
X033892Y028669D01*
X033899Y028511D02*
X035006Y028511D01*
X034848Y028352D02*
X034057Y028352D01*
X034216Y028194D02*
X034689Y028194D01*
X034531Y028035D02*
X034374Y028035D01*
X033206Y029620D02*
X032654Y029620D01*
X032901Y029462D02*
X032959Y029462D01*
X032266Y029620D02*
X030094Y029620D01*
X030341Y029462D02*
X032019Y029462D01*
X031909Y029303D02*
X030451Y029303D01*
X030510Y029145D02*
X031850Y029145D01*
X031850Y028986D02*
X030510Y028986D01*
X030472Y028828D02*
X031888Y028828D01*
X031968Y028669D02*
X030392Y028669D01*
X030216Y028511D02*
X032144Y028511D01*
X029706Y029620D02*
X029154Y029620D01*
X029401Y029462D02*
X029459Y029462D01*
X028766Y029620D02*
X026594Y029620D01*
X026841Y029462D02*
X028519Y029462D01*
X028409Y029303D02*
X026951Y029303D01*
X027010Y029145D02*
X028350Y029145D01*
X028350Y028986D02*
X027010Y028986D01*
X026972Y028828D02*
X028388Y028828D01*
X028468Y028669D02*
X026892Y028669D01*
X026716Y028511D02*
X028546Y028511D01*
X028367Y028352D02*
X026572Y028352D01*
X026731Y028194D02*
X028300Y028194D01*
X028285Y028035D02*
X026889Y028035D01*
X027048Y027877D02*
X028316Y027877D01*
X028035Y027718D02*
X027624Y027718D01*
X027754Y027560D02*
X027905Y027560D01*
X027853Y027401D02*
X027806Y027401D01*
X027806Y027243D02*
X027853Y027243D01*
X027853Y027084D02*
X027806Y027084D01*
X027806Y026926D02*
X027853Y026926D01*
X027856Y026767D02*
X027804Y026767D01*
X027738Y026609D02*
X027921Y026609D01*
X028092Y026450D02*
X027567Y026450D01*
X027105Y026292D02*
X028505Y026292D01*
X028505Y026133D02*
X027105Y026133D01*
X027105Y025975D02*
X028586Y025975D01*
X028745Y025816D02*
X027105Y025816D01*
X027105Y025658D02*
X028903Y025658D01*
X029062Y025499D02*
X027105Y025499D01*
X027105Y025341D02*
X029220Y025341D01*
X028130Y024231D02*
X027105Y024231D01*
X027105Y024073D02*
X028106Y024073D01*
X028021Y023914D02*
X027105Y023914D01*
X027105Y023756D02*
X027863Y023756D01*
X027704Y023597D02*
X027105Y023597D01*
X027105Y023439D02*
X027546Y023439D01*
X027387Y023280D02*
X027105Y023280D01*
X027046Y023122D02*
X027229Y023122D01*
X027070Y022963D02*
X026887Y022963D01*
X026912Y022805D02*
X026729Y022805D01*
X026753Y022646D02*
X026570Y022646D01*
X026197Y023122D02*
X022042Y023122D01*
X022075Y023280D02*
X026356Y023280D01*
X026505Y023439D02*
X025129Y023439D01*
X025121Y023431D02*
X025053Y023381D01*
X024979Y023344D01*
X024899Y023318D01*
X024817Y023305D01*
X024734Y023305D01*
X024651Y023318D01*
X024572Y023344D01*
X024497Y023381D01*
X024430Y023431D01*
X024407Y023454D01*
X024775Y023823D01*
X024763Y023835D01*
X024394Y024203D01*
X024371Y024180D01*
X024322Y024113D01*
X024284Y024038D01*
X024258Y023959D01*
X024245Y023876D01*
X024245Y023793D01*
X024258Y023711D01*
X024284Y023631D01*
X024322Y023557D01*
X024371Y023489D01*
X024394Y023466D01*
X024763Y023835D01*
X024775Y023847D01*
X024407Y024216D01*
X024430Y024239D01*
X024497Y024288D01*
X024572Y024326D01*
X024651Y024352D01*
X024734Y024365D01*
X024817Y024365D01*
X024899Y024352D01*
X024979Y024326D01*
X025053Y024288D01*
X025121Y024239D01*
X025144Y024216D01*
X024775Y023847D01*
X024787Y023835D01*
X025156Y024203D01*
X025179Y024180D01*
X025229Y024113D01*
X025266Y024038D01*
X025292Y023959D01*
X025305Y023876D01*
X025305Y023793D01*
X025292Y023711D01*
X025266Y023631D01*
X025229Y023557D01*
X025179Y023489D01*
X025156Y023466D01*
X024787Y023835D01*
X024775Y023823D01*
X025144Y023454D01*
X025121Y023431D01*
X025025Y023597D02*
X025001Y023597D01*
X024867Y023756D02*
X024842Y023756D01*
X024708Y023756D02*
X024684Y023756D01*
X024684Y023914D02*
X024708Y023914D01*
X024842Y023914D02*
X024867Y023914D01*
X025001Y024073D02*
X025025Y024073D01*
X025129Y024231D02*
X026505Y024231D01*
X026505Y024073D02*
X025249Y024073D01*
X025299Y023914D02*
X026505Y023914D01*
X026505Y023756D02*
X025299Y023756D01*
X025249Y023597D02*
X026505Y023597D01*
X026039Y022963D02*
X021948Y022963D01*
X021855Y022805D02*
X025880Y022805D01*
X025722Y022646D02*
X021855Y022646D01*
X021855Y022488D02*
X025563Y022488D01*
X025505Y022329D02*
X021838Y022329D01*
X021720Y022171D02*
X025505Y022171D01*
X025505Y022012D02*
X021561Y022012D01*
X021901Y021854D02*
X020709Y021854D01*
X021132Y021537D02*
X021228Y021537D01*
X021228Y021378D02*
X021132Y021378D01*
X021132Y021220D02*
X021228Y021220D01*
X021655Y021220D02*
X021896Y021220D01*
X021896Y021061D02*
X021655Y021061D01*
X021655Y020903D02*
X021905Y020903D01*
X021856Y020744D02*
X021715Y020744D01*
X021715Y020586D02*
X021836Y020586D01*
X021836Y020427D02*
X021715Y020427D01*
X021715Y020269D02*
X021836Y020269D01*
X021836Y020110D02*
X021692Y020110D01*
X021836Y019952D02*
X021283Y019952D01*
X021043Y019793D02*
X021836Y019793D01*
X021903Y019635D02*
X020723Y019635D01*
X019586Y020586D02*
X018810Y020586D01*
X018777Y020744D02*
X019606Y020744D01*
X019655Y020903D02*
X017035Y020903D01*
X016892Y021061D02*
X018514Y021061D01*
X018280Y021220D02*
X016950Y021220D01*
X016950Y021378D02*
X018190Y021378D01*
X018160Y021537D02*
X016897Y021537D01*
X016775Y021695D02*
X018175Y021695D01*
X018846Y021061D02*
X019646Y021061D01*
X019646Y021220D02*
X019080Y021220D01*
X020100Y021061D02*
X020260Y021061D01*
X020260Y020903D02*
X020100Y020903D01*
X020788Y022488D02*
X021188Y022488D01*
X021255Y022646D02*
X020825Y022646D01*
X020816Y022805D02*
X021255Y022805D01*
X021162Y022963D02*
X020751Y022963D01*
X020607Y023122D02*
X021068Y023122D01*
X021035Y023280D02*
X020754Y023280D01*
X020820Y023439D02*
X021047Y023439D01*
X021113Y023597D02*
X020825Y023597D01*
X020930Y023756D02*
X021284Y023756D01*
X021071Y023914D02*
X024251Y023914D01*
X024251Y023756D02*
X021826Y023756D01*
X021997Y023597D02*
X024302Y023597D01*
X024422Y023439D02*
X022063Y023439D01*
X021105Y024073D02*
X024302Y024073D01*
X024422Y024231D02*
X021105Y024231D01*
X021105Y024390D02*
X026505Y024390D01*
X026505Y024548D02*
X021105Y024548D01*
X021105Y024707D02*
X026505Y024707D01*
X026505Y024865D02*
X021105Y024865D01*
X021105Y025024D02*
X026505Y025024D01*
X026505Y025182D02*
X021105Y025182D01*
X021105Y025341D02*
X026505Y025341D01*
X026505Y025499D02*
X021105Y025499D01*
X021105Y025658D02*
X026505Y025658D01*
X026505Y025816D02*
X021105Y025816D01*
X021105Y025975D02*
X026505Y025975D01*
X026505Y026133D02*
X021105Y026133D01*
X021105Y026292D02*
X026505Y026292D01*
X026092Y026450D02*
X025567Y026450D01*
X025599Y026463D02*
X025733Y026597D01*
X025806Y026772D01*
X025806Y027434D01*
X025733Y027609D01*
X025599Y027743D01*
X025424Y027816D01*
X025235Y027816D01*
X025060Y027743D01*
X024926Y027609D01*
X024853Y027434D01*
X024853Y026772D01*
X024926Y026597D01*
X025060Y026463D01*
X025235Y026391D01*
X025424Y026391D01*
X025599Y026463D01*
X025738Y026609D02*
X025921Y026609D01*
X025856Y026767D02*
X025804Y026767D01*
X025806Y026926D02*
X025853Y026926D01*
X025853Y027084D02*
X025806Y027084D01*
X025806Y027243D02*
X025853Y027243D01*
X025853Y027401D02*
X025806Y027401D01*
X025754Y027560D02*
X025905Y027560D01*
X026035Y027718D02*
X025624Y027718D01*
X026041Y028035D02*
X023325Y028035D01*
X023310Y028194D02*
X025882Y028194D01*
X025724Y028352D02*
X023243Y028352D01*
X023216Y028511D02*
X025144Y028511D01*
X024968Y028669D02*
X023392Y028669D01*
X023472Y028828D02*
X024888Y028828D01*
X024850Y028986D02*
X023510Y028986D01*
X023510Y029145D02*
X024850Y029145D01*
X024909Y029303D02*
X023451Y029303D01*
X023341Y029462D02*
X025019Y029462D01*
X025266Y029620D02*
X023094Y029620D01*
X022706Y029620D02*
X022478Y029620D01*
X022381Y029779D02*
X039807Y029779D01*
X039873Y029937D02*
X022222Y029937D01*
X022350Y029809D02*
X022350Y029809D01*
X023128Y030254D02*
X025232Y030254D01*
X025005Y030413D02*
X023355Y030413D01*
X021592Y031047D02*
X015526Y031047D01*
X016355Y030413D02*
X018113Y030413D01*
X018011Y030254D02*
X016355Y030254D01*
X016355Y030096D02*
X018005Y030096D01*
X017555Y028845D02*
X017555Y028430D01*
X016805Y027680D01*
X016805Y026430D01*
X016305Y025930D01*
X014305Y025930D01*
X014679Y026292D02*
X016214Y026292D01*
X016092Y026450D02*
X015567Y026450D01*
X015738Y026609D02*
X015921Y026609D01*
X015856Y026767D02*
X015804Y026767D01*
X016424Y027816D02*
X016502Y027784D01*
X016534Y027861D01*
X016624Y027951D01*
X017023Y028350D01*
X016843Y028350D01*
X016843Y028728D01*
X016767Y028728D01*
X016767Y028350D01*
X016545Y028350D01*
X016499Y028363D01*
X016458Y028386D01*
X016425Y028420D01*
X016401Y028461D01*
X016389Y028507D01*
X016389Y028729D01*
X016767Y028729D01*
X016767Y028805D01*
X016389Y028805D01*
X016389Y029027D01*
X016401Y029072D01*
X016425Y029113D01*
X016456Y029144D01*
X016433Y029154D01*
X016365Y029221D01*
X016355Y029246D01*
X016355Y027816D01*
X016424Y027816D01*
X016355Y027877D02*
X016549Y027877D01*
X016707Y028035D02*
X016355Y028035D01*
X016355Y028194D02*
X016866Y028194D01*
X016843Y028352D02*
X016767Y028352D01*
X016767Y028511D02*
X016843Y028511D01*
X016843Y028669D02*
X016767Y028669D01*
X016389Y028669D02*
X016355Y028669D01*
X016355Y028511D02*
X016389Y028511D01*
X016355Y028352D02*
X016539Y028352D01*
X016389Y028828D02*
X016355Y028828D01*
X016355Y028986D02*
X016389Y028986D01*
X016355Y029145D02*
X016455Y029145D01*
X015755Y029462D02*
X014120Y029462D01*
X014216Y029352D02*
X014183Y029318D01*
X014159Y029277D01*
X014147Y029231D01*
X014147Y028822D01*
X014495Y028822D01*
X014495Y029388D01*
X014303Y029388D01*
X014257Y029375D01*
X014216Y029352D01*
X014174Y029303D02*
X014120Y029303D01*
X014147Y029145D02*
X014079Y029145D01*
X014014Y028986D02*
X014147Y028986D01*
X014147Y028828D02*
X013907Y028828D01*
X013748Y028669D02*
X014147Y028669D01*
X014147Y028511D02*
X013417Y028511D01*
X012653Y027877D02*
X015246Y027877D01*
X015197Y028352D02*
X014849Y028352D01*
X014861Y028511D02*
X015189Y028511D01*
X015189Y028669D02*
X014861Y028669D01*
X014861Y028822D02*
X014861Y029231D01*
X014849Y029277D01*
X014825Y029318D01*
X014792Y029352D01*
X014750Y029375D01*
X014705Y029388D01*
X014512Y029388D01*
X014512Y028822D01*
X014861Y028822D01*
X014861Y028828D02*
X015189Y028828D01*
X015189Y028986D02*
X014861Y028986D01*
X014861Y029145D02*
X015189Y029145D01*
X015209Y029303D02*
X014834Y029303D01*
X014512Y029303D02*
X014495Y029303D01*
X014495Y029145D02*
X014512Y029145D01*
X014495Y028986D02*
X014512Y028986D01*
X014495Y028828D02*
X014512Y028828D01*
X014495Y028669D02*
X014512Y028669D01*
X014495Y028511D02*
X014512Y028511D01*
X014495Y028352D02*
X014512Y028352D01*
X014119Y029620D02*
X015755Y029620D01*
X017454Y027877D02*
X019505Y027877D01*
X019505Y028035D02*
X017613Y028035D01*
X017771Y028194D02*
X019505Y028194D01*
X019283Y028352D02*
X019279Y028352D01*
X018581Y028352D02*
X017904Y028352D01*
X018077Y028511D02*
X018232Y028511D01*
X018235Y027816D02*
X018060Y027743D01*
X017926Y027609D01*
X017853Y027434D01*
X017853Y026772D01*
X017926Y026597D01*
X018060Y026463D01*
X018235Y026391D01*
X018424Y026391D01*
X018599Y026463D01*
X018733Y026597D01*
X018806Y026772D01*
X018806Y027434D01*
X018733Y027609D01*
X018599Y027743D01*
X018424Y027816D01*
X018235Y027816D01*
X018035Y027718D02*
X017624Y027718D01*
X017754Y027560D02*
X017905Y027560D01*
X017853Y027401D02*
X017806Y027401D01*
X017806Y027243D02*
X017853Y027243D01*
X017853Y027084D02*
X017806Y027084D01*
X017806Y026926D02*
X017853Y026926D01*
X017856Y026767D02*
X017804Y026767D01*
X017738Y026609D02*
X017921Y026609D01*
X018092Y026450D02*
X017567Y026450D01*
X017094Y026292D02*
X019505Y026292D01*
X019505Y026133D02*
X016961Y026133D01*
X016802Y025975D02*
X019505Y025975D01*
X019505Y025816D02*
X016644Y025816D01*
X016483Y025658D02*
X019505Y025658D01*
X019505Y025499D02*
X014609Y025499D01*
X016870Y024073D02*
X016942Y024073D01*
X016942Y023914D02*
X016870Y023914D01*
X016870Y023756D02*
X016939Y023756D01*
X016939Y023597D02*
X016870Y023597D01*
X016870Y023439D02*
X016939Y023439D01*
X016939Y023280D02*
X016870Y023280D01*
X016870Y023122D02*
X016939Y023122D01*
X016939Y022963D02*
X016870Y022963D01*
X016870Y022805D02*
X016999Y022805D01*
X017050Y022646D02*
X016870Y022646D01*
X016870Y022488D02*
X017050Y022488D01*
X017050Y022329D02*
X016870Y022329D01*
X016851Y022171D02*
X017050Y022171D01*
X017050Y022012D02*
X016759Y022012D01*
X016601Y021854D02*
X017091Y021854D01*
X016430Y021305D02*
X016430Y021055D01*
X017361Y020124D01*
X017930Y020124D01*
X014990Y020110D02*
X014500Y020110D01*
X014500Y020237D02*
X014365Y020564D01*
X014114Y020815D01*
X013787Y020950D01*
X013433Y020950D01*
X013106Y020815D01*
X012855Y020564D01*
X012720Y020237D01*
X012720Y019883D01*
X012855Y019556D01*
X013106Y019305D01*
X013433Y019170D01*
X013787Y019170D01*
X014114Y019305D01*
X014365Y019556D01*
X014500Y019883D01*
X014500Y020237D01*
X014487Y020269D02*
X014990Y020269D01*
X014990Y020427D02*
X014421Y020427D01*
X014343Y020586D02*
X014990Y020586D01*
X014990Y020744D02*
X014185Y020744D01*
X013902Y020903D02*
X014990Y020903D01*
X014990Y021061D02*
X011420Y021061D01*
X011420Y020903D02*
X013318Y020903D01*
X013035Y020744D02*
X011420Y020744D01*
X011420Y020586D02*
X012877Y020586D01*
X012799Y020427D02*
X011420Y020427D01*
X011420Y020269D02*
X012733Y020269D01*
X012720Y020110D02*
X011420Y020110D01*
X011420Y019952D02*
X012720Y019952D01*
X012757Y019793D02*
X011420Y019793D01*
X011420Y019635D02*
X012823Y019635D01*
X012935Y019476D02*
X011420Y019476D01*
X011420Y019318D02*
X013094Y019318D01*
X013528Y018842D02*
X011420Y018842D01*
X011420Y018684D02*
X013401Y018684D01*
X013340Y018525D02*
X011420Y018525D01*
X011420Y018367D02*
X013340Y018367D01*
X013387Y018208D02*
X011420Y018208D01*
X011420Y018050D02*
X013497Y018050D01*
X013582Y017891D02*
X011420Y017891D01*
X011420Y017733D02*
X013421Y017733D01*
X013355Y017574D02*
X011420Y017574D01*
X011420Y017416D02*
X013340Y017416D01*
X013367Y017257D02*
X011420Y017257D01*
X011420Y017099D02*
X013448Y017099D01*
X013652Y016940D02*
X011420Y016940D01*
X011420Y016782D02*
X013553Y016782D01*
X013440Y016623D02*
X011420Y016623D01*
X011420Y016465D02*
X013400Y016465D01*
X013400Y016410D02*
X013400Y016392D01*
X013412Y016318D01*
X013435Y016246D01*
X013469Y016178D01*
X013514Y016117D01*
X013567Y016064D01*
X013628Y016019D01*
X013696Y015985D01*
X013768Y015962D01*
X013842Y015950D01*
X014160Y015950D01*
X014160Y016410D01*
X013400Y016410D01*
X013416Y016306D02*
X011420Y016306D01*
X011420Y016148D02*
X013492Y016148D01*
X013688Y015989D02*
X011420Y015989D01*
X011420Y015831D02*
X011898Y015831D01*
X011593Y015672D02*
X011420Y015672D01*
X011420Y015514D02*
X011434Y015514D01*
X012462Y015831D02*
X016258Y015831D01*
X016258Y015989D02*
X014672Y015989D01*
X014664Y015985D02*
X014732Y016019D01*
X014793Y016064D01*
X014846Y016117D01*
X014891Y016178D01*
X014925Y016246D01*
X014948Y016318D01*
X014960Y016392D01*
X014960Y016410D01*
X014200Y016410D01*
X014200Y015950D01*
X014518Y015950D01*
X014592Y015962D01*
X014664Y015985D01*
X014868Y016148D02*
X016850Y016148D01*
X016258Y016306D02*
X014944Y016306D01*
X014960Y016465D02*
X016258Y016465D01*
X016258Y016623D02*
X014920Y016623D01*
X014807Y016782D02*
X016258Y016782D01*
X016288Y016940D02*
X014708Y016940D01*
X014200Y016306D02*
X014160Y016306D01*
X014160Y016148D02*
X014200Y016148D01*
X014200Y015989D02*
X014160Y015989D01*
X013087Y015197D02*
X015947Y015197D01*
X016105Y015355D02*
X013021Y015355D01*
X012926Y015514D02*
X016258Y015514D01*
X016258Y015672D02*
X012767Y015672D01*
X013120Y015038D02*
X015788Y015038D01*
X015630Y014880D02*
X013120Y014880D01*
X013111Y014721D02*
X015471Y014721D01*
X015313Y014563D02*
X013045Y014563D01*
X012980Y014404D02*
X015154Y014404D01*
X014996Y014246D02*
X012825Y014246D01*
X011580Y013295D02*
X021700Y013295D01*
X021700Y013453D02*
X015203Y013453D01*
X015362Y013612D02*
X021700Y013612D01*
X021700Y013770D02*
X017232Y013770D01*
X016378Y013770D02*
X015520Y013770D01*
X015679Y013929D02*
X016225Y013929D01*
X016159Y014087D02*
X015837Y014087D01*
X015996Y014246D02*
X016125Y014246D01*
X016735Y014985D02*
X016930Y015180D01*
X021320Y015180D01*
X020965Y014825D01*
X017247Y014825D01*
X017190Y014881D01*
X016940Y014985D01*
X016735Y014985D01*
X016788Y015038D02*
X021178Y015038D01*
X021019Y014880D02*
X017192Y014880D01*
X020008Y017574D02*
X021166Y017574D01*
X021209Y017733D02*
X020008Y017733D01*
X021735Y017574D02*
X021815Y017574D01*
X022692Y014880D02*
X023495Y014880D01*
X023654Y014721D02*
X022795Y014721D01*
X022860Y014563D02*
X023812Y014563D01*
X023971Y014404D02*
X022860Y014404D01*
X022840Y014246D02*
X024129Y014246D01*
X024288Y014087D02*
X022774Y014087D01*
X022660Y013929D02*
X024446Y013929D01*
X022660Y013770D02*
X026753Y013770D01*
X027607Y013770D02*
X027753Y013770D01*
X028607Y013770D02*
X030411Y013770D01*
X030570Y013612D02*
X022660Y013612D01*
X022660Y013453D02*
X030728Y013453D01*
X030887Y013295D02*
X022660Y013295D01*
X022660Y013136D02*
X031045Y013136D01*
X031204Y012978D02*
X022660Y012978D01*
X022660Y012819D02*
X031362Y012819D01*
X031521Y012661D02*
X022660Y012661D01*
X022660Y012502D02*
X031679Y012502D01*
X031838Y012344D02*
X022660Y012344D01*
X022660Y012185D02*
X024991Y012185D01*
X025027Y012200D02*
X024744Y012083D01*
X024527Y011866D01*
X024410Y011583D01*
X024410Y011277D01*
X024527Y010994D01*
X024744Y010777D01*
X025027Y010660D01*
X025333Y010660D01*
X025616Y010777D01*
X025833Y010994D01*
X025950Y011277D01*
X025950Y011583D01*
X025833Y011866D01*
X025616Y012083D01*
X025333Y012200D01*
X025027Y012200D01*
X025369Y012185D02*
X031950Y012185D01*
X031950Y012027D02*
X025672Y012027D01*
X025831Y011868D02*
X031950Y011868D01*
X031950Y011710D02*
X025898Y011710D01*
X025950Y011551D02*
X031950Y011551D01*
X031950Y011393D02*
X025950Y011393D01*
X025932Y011234D02*
X031950Y011234D01*
X031950Y011076D02*
X025867Y011076D01*
X025756Y010917D02*
X031950Y010917D01*
X031950Y010759D02*
X025571Y010759D01*
X024789Y010759D02*
X024172Y010759D01*
X024009Y010922D01*
X023795Y011010D01*
X023565Y011010D01*
X023351Y010922D01*
X023188Y010759D01*
X023100Y010545D01*
X023100Y010315D01*
X023188Y010101D01*
X023351Y009938D01*
X023565Y009850D01*
X023795Y009850D01*
X024009Y009938D01*
X024172Y010101D01*
X024260Y010315D01*
X024260Y010545D01*
X024172Y010759D01*
X024237Y010600D02*
X031950Y010600D01*
X032009Y010442D02*
X024260Y010442D01*
X024247Y010283D02*
X032113Y010283D01*
X032179Y010125D02*
X024181Y010125D01*
X024036Y009966D02*
X032324Y009966D01*
X032509Y009749D02*
X032451Y009710D01*
X032400Y009659D01*
X032361Y009601D01*
X032334Y009535D01*
X032320Y009465D01*
X032320Y009430D01*
X032680Y009430D01*
X033040Y009430D01*
X033040Y009465D01*
X033026Y009535D01*
X032999Y009601D01*
X032960Y009659D01*
X032909Y009710D01*
X032851Y009749D01*
X032785Y009776D01*
X032715Y009790D01*
X032680Y009790D01*
X032680Y009430D01*
X032680Y009430D01*
X032680Y009430D01*
X033040Y009430D01*
X033040Y009395D01*
X033026Y009325D01*
X032999Y009259D01*
X032960Y009201D01*
X032909Y009150D01*
X032851Y009111D01*
X032785Y009084D01*
X032715Y009070D01*
X032680Y009070D01*
X032680Y009430D01*
X032680Y009430D01*
X032680Y009430D01*
X032680Y009790D01*
X032645Y009790D01*
X032575Y009776D01*
X032509Y009749D01*
X032393Y009649D02*
X031130Y009649D01*
X031021Y009694D02*
X030717Y009694D01*
X030436Y009578D01*
X030248Y009390D01*
X030194Y009521D01*
X030082Y009633D01*
X029935Y009694D01*
X029047Y009694D01*
X028900Y009633D01*
X028788Y009521D01*
X028727Y009374D01*
X028727Y008486D01*
X028788Y008339D01*
X028900Y008227D01*
X029047Y008166D01*
X029935Y008166D01*
X030082Y008227D01*
X030194Y008339D01*
X030248Y008470D01*
X030436Y008282D01*
X030717Y008166D01*
X031021Y008166D01*
X031302Y008282D01*
X031517Y008497D01*
X031633Y008778D01*
X031633Y009082D01*
X031517Y009363D01*
X031302Y009578D01*
X031021Y009694D01*
X030608Y009649D02*
X030044Y009649D01*
X030207Y009491D02*
X030349Y009491D01*
X031389Y009491D02*
X032325Y009491D01*
X032320Y009430D02*
X032320Y009395D01*
X032334Y009325D01*
X032361Y009259D01*
X032400Y009201D01*
X032451Y009150D01*
X032509Y009111D01*
X032575Y009084D01*
X032645Y009070D01*
X032680Y009070D01*
X032680Y009430D01*
X032320Y009430D01*
X032332Y009332D02*
X031530Y009332D01*
X031595Y009174D02*
X032427Y009174D01*
X032680Y009174D02*
X032680Y009174D01*
X032680Y009332D02*
X032680Y009332D01*
X032680Y009491D02*
X032680Y009491D01*
X032680Y009649D02*
X032680Y009649D01*
X032967Y009649D02*
X034393Y009649D01*
X034400Y009659D02*
X034361Y009601D01*
X034334Y009535D01*
X034320Y009465D01*
X034320Y009430D01*
X034680Y009430D01*
X034680Y009430D01*
X034680Y009430D01*
X035040Y009430D01*
X035040Y009395D01*
X035026Y009325D01*
X034999Y009259D01*
X034960Y009201D01*
X034909Y009150D01*
X034851Y009111D01*
X034785Y009084D01*
X034715Y009070D01*
X034680Y009070D01*
X034680Y009430D01*
X034680Y009430D01*
X034680Y009430D01*
X034680Y009790D01*
X034645Y009790D01*
X034575Y009776D01*
X034509Y009749D01*
X034451Y009710D01*
X034400Y009659D01*
X034325Y009491D02*
X033035Y009491D01*
X033028Y009332D02*
X034332Y009332D01*
X034334Y009325D02*
X034361Y009259D01*
X034400Y009201D01*
X034451Y009150D01*
X034509Y009111D01*
X034575Y009084D01*
X034645Y009070D01*
X034680Y009070D01*
X034680Y009430D01*
X034320Y009430D01*
X034320Y009395D01*
X034334Y009325D01*
X034427Y009174D02*
X032933Y009174D01*
X032785Y008776D02*
X032715Y008790D01*
X032680Y008790D01*
X032680Y008430D01*
X033040Y008430D01*
X033040Y008465D01*
X033026Y008535D01*
X032999Y008601D01*
X032960Y008659D01*
X032909Y008710D01*
X032851Y008749D01*
X032785Y008776D01*
X032680Y008790D02*
X032645Y008790D01*
X032575Y008776D01*
X032509Y008749D01*
X032451Y008710D01*
X032400Y008659D01*
X032361Y008601D01*
X032334Y008535D01*
X032320Y008465D01*
X032320Y008430D01*
X032680Y008430D01*
X032680Y008430D01*
X032680Y008430D01*
X033040Y008430D01*
X033040Y008395D01*
X033026Y008325D01*
X032999Y008259D01*
X032960Y008201D01*
X032909Y008150D01*
X032851Y008111D01*
X032785Y008084D01*
X032715Y008070D01*
X032680Y008070D01*
X032680Y008430D01*
X032680Y008430D01*
X032680Y008430D01*
X032680Y008790D01*
X032680Y008698D02*
X032680Y008698D01*
X032680Y008540D02*
X032680Y008540D01*
X032680Y008430D02*
X032320Y008430D01*
X032320Y008395D01*
X032334Y008325D01*
X032361Y008259D01*
X032400Y008201D01*
X032451Y008150D01*
X032509Y008111D01*
X032575Y008084D01*
X032645Y008070D01*
X032680Y008070D01*
X032680Y008430D01*
X032680Y008381D02*
X032680Y008381D01*
X032680Y008223D02*
X032680Y008223D01*
X032974Y008223D02*
X034386Y008223D01*
X034400Y008201D02*
X034361Y008259D01*
X034334Y008325D01*
X034320Y008395D01*
X034320Y008430D01*
X034680Y008430D01*
X035040Y008430D01*
X035040Y008465D01*
X035026Y008535D01*
X034999Y008601D01*
X034960Y008659D01*
X034909Y008710D01*
X034851Y008749D01*
X034785Y008776D01*
X034715Y008790D01*
X034680Y008790D01*
X034680Y008430D01*
X034680Y008430D01*
X034680Y008430D01*
X035040Y008430D01*
X035040Y008395D01*
X035026Y008325D01*
X034999Y008259D01*
X034960Y008201D01*
X034909Y008150D01*
X034851Y008111D01*
X034785Y008084D01*
X034715Y008070D01*
X034680Y008070D01*
X034680Y008430D01*
X034680Y008430D01*
X034680Y008430D01*
X034680Y008790D01*
X034645Y008790D01*
X034575Y008776D01*
X034509Y008749D01*
X034451Y008710D01*
X034400Y008659D01*
X034361Y008601D01*
X034334Y008535D01*
X034320Y008465D01*
X034320Y008430D01*
X034680Y008430D01*
X034680Y008070D01*
X034645Y008070D01*
X034575Y008084D01*
X034509Y008111D01*
X034451Y008150D01*
X034400Y008201D01*
X034323Y008381D02*
X033037Y008381D01*
X033024Y008540D02*
X034336Y008540D01*
X034439Y008698D02*
X032921Y008698D01*
X032439Y008698D02*
X031600Y008698D01*
X031633Y008857D02*
X036947Y008857D01*
X036947Y008912D02*
X036947Y008542D01*
X036959Y008496D01*
X036983Y008455D01*
X037016Y008422D01*
X037057Y008398D01*
X037103Y008386D01*
X037473Y008386D01*
X037473Y008912D01*
X037509Y008912D01*
X037509Y008386D01*
X037879Y008386D01*
X037925Y008398D01*
X037966Y008422D01*
X037999Y008455D01*
X038023Y008496D01*
X038035Y008542D01*
X038035Y008912D01*
X037509Y008912D01*
X037509Y008948D01*
X038035Y008948D01*
X038035Y009318D01*
X038023Y009364D01*
X037999Y009405D01*
X037966Y009438D01*
X037925Y009462D01*
X037879Y009474D01*
X037509Y009474D01*
X037509Y008948D01*
X037473Y008948D01*
X037473Y008912D01*
X036947Y008912D01*
X036947Y008948D02*
X037473Y008948D01*
X037473Y009474D01*
X037103Y009474D01*
X037057Y009462D01*
X037016Y009438D01*
X036983Y009405D01*
X036959Y009364D01*
X036947Y009318D01*
X036947Y008948D01*
X036947Y009015D02*
X031633Y009015D01*
X031534Y008540D02*
X032336Y008540D01*
X032323Y008381D02*
X031401Y008381D01*
X031158Y008223D02*
X032386Y008223D01*
X030580Y008223D02*
X030072Y008223D01*
X030212Y008381D02*
X030337Y008381D01*
X028910Y008223D02*
X027658Y008223D01*
X027521Y008166D02*
X027802Y008282D01*
X028017Y008497D01*
X028133Y008778D01*
X028133Y009082D01*
X028017Y009363D01*
X027802Y009578D01*
X027521Y009694D01*
X027217Y009694D01*
X026936Y009578D01*
X026748Y009390D01*
X026694Y009521D01*
X026582Y009633D01*
X026435Y009694D01*
X025547Y009694D01*
X025400Y009633D01*
X025288Y009521D01*
X025227Y009374D01*
X025227Y008486D01*
X025288Y008339D01*
X025400Y008227D01*
X025547Y008166D01*
X026435Y008166D01*
X026582Y008227D01*
X026694Y008339D01*
X026748Y008470D01*
X026936Y008282D01*
X027217Y008166D01*
X027521Y008166D01*
X027901Y008381D02*
X028770Y008381D01*
X028727Y008540D02*
X028034Y008540D01*
X028100Y008698D02*
X028727Y008698D01*
X028727Y008857D02*
X028133Y008857D01*
X028133Y009015D02*
X028727Y009015D01*
X028727Y009174D02*
X028095Y009174D01*
X028030Y009332D02*
X028727Y009332D01*
X028775Y009491D02*
X027889Y009491D01*
X027630Y009649D02*
X028938Y009649D01*
X027108Y009649D02*
X026544Y009649D01*
X026707Y009491D02*
X026849Y009491D01*
X026837Y008381D02*
X026712Y008381D01*
X026572Y008223D02*
X027080Y008223D01*
X025410Y008223D02*
X023974Y008223D01*
X023960Y008201D02*
X023999Y008259D01*
X024026Y008325D01*
X024040Y008395D01*
X024040Y008430D01*
X024040Y008465D01*
X024026Y008535D01*
X023999Y008601D01*
X023960Y008659D01*
X023909Y008710D01*
X023851Y008749D01*
X023785Y008776D01*
X023715Y008790D01*
X023680Y008790D01*
X023680Y008430D01*
X024040Y008430D01*
X023680Y008430D01*
X023680Y008430D01*
X023680Y008430D01*
X023680Y008070D01*
X023715Y008070D01*
X023785Y008084D01*
X023851Y008111D01*
X023909Y008150D01*
X023960Y008201D01*
X024037Y008381D02*
X025270Y008381D01*
X025227Y008540D02*
X024024Y008540D01*
X023921Y008698D02*
X025227Y008698D01*
X025227Y008857D02*
X020633Y008857D01*
X020633Y008778D02*
X020633Y009082D01*
X020517Y009363D01*
X020302Y009578D01*
X020021Y009694D01*
X019717Y009694D01*
X019436Y009578D01*
X019248Y009390D01*
X019194Y009521D01*
X019082Y009633D01*
X018935Y009694D01*
X018047Y009694D01*
X017900Y009633D01*
X017788Y009521D01*
X017727Y009374D01*
X017727Y008486D01*
X017788Y008339D01*
X017900Y008227D01*
X018047Y008166D01*
X018935Y008166D01*
X019082Y008227D01*
X019194Y008339D01*
X019248Y008470D01*
X019436Y008282D01*
X019717Y008166D01*
X020021Y008166D01*
X020302Y008282D01*
X020517Y008497D01*
X020633Y008778D01*
X020600Y008698D02*
X021439Y008698D01*
X021451Y008710D02*
X021400Y008659D01*
X021361Y008601D01*
X021334Y008535D01*
X021320Y008465D01*
X021320Y008430D01*
X021680Y008430D01*
X022040Y008430D01*
X022040Y008465D01*
X022026Y008535D01*
X021999Y008601D01*
X021960Y008659D01*
X021909Y008710D01*
X021851Y008749D01*
X021785Y008776D01*
X021715Y008790D01*
X021680Y008790D01*
X021680Y008430D01*
X021680Y008430D01*
X021680Y008430D01*
X022040Y008430D01*
X022040Y008395D01*
X022026Y008325D01*
X021999Y008259D01*
X021960Y008201D01*
X021909Y008150D01*
X021851Y008111D01*
X021785Y008084D01*
X021715Y008070D01*
X021680Y008070D01*
X021680Y008430D01*
X021680Y008430D01*
X021680Y008430D01*
X021680Y008790D01*
X021645Y008790D01*
X021575Y008776D01*
X021509Y008749D01*
X021451Y008710D01*
X021336Y008540D02*
X020534Y008540D01*
X020401Y008381D02*
X021323Y008381D01*
X021320Y008395D02*
X021334Y008325D01*
X021361Y008259D01*
X021400Y008201D01*
X021451Y008150D01*
X021509Y008111D01*
X021575Y008084D01*
X021645Y008070D01*
X021680Y008070D01*
X021680Y008430D01*
X021320Y008430D01*
X021320Y008395D01*
X021386Y008223D02*
X020158Y008223D01*
X019580Y008223D02*
X019072Y008223D01*
X019212Y008381D02*
X019337Y008381D01*
X020633Y009015D02*
X025227Y009015D01*
X025227Y009174D02*
X023933Y009174D01*
X023909Y009150D02*
X023960Y009201D01*
X023999Y009259D01*
X024026Y009325D01*
X024040Y009395D01*
X024040Y009430D01*
X024040Y009465D01*
X024026Y009535D01*
X023999Y009601D01*
X023960Y009659D01*
X023909Y009710D01*
X023851Y009749D01*
X023785Y009776D01*
X023715Y009790D01*
X023680Y009790D01*
X023680Y009430D01*
X024040Y009430D01*
X023680Y009430D01*
X023680Y009430D01*
X023680Y009430D01*
X023680Y009070D01*
X023715Y009070D01*
X023785Y009084D01*
X023851Y009111D01*
X023909Y009150D01*
X024028Y009332D02*
X025227Y009332D01*
X025275Y009491D02*
X024035Y009491D01*
X023967Y009649D02*
X025438Y009649D01*
X023680Y009649D02*
X023680Y009649D01*
X023680Y009790D02*
X023680Y009430D01*
X023680Y009430D01*
X023680Y009430D01*
X023320Y009430D01*
X023320Y009465D01*
X023334Y009535D01*
X023361Y009601D01*
X023400Y009659D01*
X023451Y009710D01*
X023509Y009749D01*
X023575Y009776D01*
X023645Y009790D01*
X023680Y009790D01*
X023680Y009491D02*
X023680Y009491D01*
X023680Y009430D02*
X023320Y009430D01*
X023320Y009395D01*
X023334Y009325D01*
X023361Y009259D01*
X023400Y009201D01*
X023451Y009150D01*
X023509Y009111D01*
X023575Y009084D01*
X023645Y009070D01*
X023680Y009070D01*
X023680Y009430D01*
X023680Y009332D02*
X023680Y009332D01*
X023680Y009174D02*
X023680Y009174D01*
X023427Y009174D02*
X021933Y009174D01*
X021909Y009150D02*
X021960Y009201D01*
X021999Y009259D01*
X022026Y009325D01*
X022040Y009395D01*
X022040Y009430D01*
X022040Y009465D01*
X022026Y009535D01*
X021999Y009601D01*
X021960Y009659D01*
X021909Y009710D01*
X021851Y009749D01*
X021785Y009776D01*
X021715Y009790D01*
X021680Y009790D01*
X021680Y009430D01*
X022040Y009430D01*
X021680Y009430D01*
X021680Y009430D01*
X021680Y009430D01*
X021680Y009070D01*
X021715Y009070D01*
X021785Y009084D01*
X021851Y009111D01*
X021909Y009150D01*
X022028Y009332D02*
X023332Y009332D01*
X023325Y009491D02*
X022035Y009491D01*
X021967Y009649D02*
X023393Y009649D01*
X023324Y009966D02*
X022036Y009966D01*
X022181Y010125D02*
X023179Y010125D01*
X023113Y010283D02*
X022247Y010283D01*
X022370Y010442D02*
X023100Y010442D01*
X023123Y010600D02*
X022529Y010600D01*
X022629Y010759D02*
X023188Y010759D01*
X023347Y010917D02*
X022660Y010917D01*
X022660Y011076D02*
X024493Y011076D01*
X024428Y011234D02*
X022660Y011234D01*
X022660Y011393D02*
X024410Y011393D01*
X024410Y011551D02*
X022660Y011551D01*
X022660Y011710D02*
X024462Y011710D01*
X024529Y011868D02*
X022660Y011868D01*
X022660Y012027D02*
X024688Y012027D01*
X024604Y010917D02*
X024013Y010917D01*
X022180Y010930D02*
X021680Y010430D01*
X021100Y010442D02*
X013628Y010442D01*
X013883Y010283D02*
X021113Y010283D01*
X021179Y010125D02*
X014041Y010125D01*
X014141Y009966D02*
X021324Y009966D01*
X021509Y009749D02*
X021451Y009710D01*
X021400Y009659D01*
X021361Y009601D01*
X021334Y009535D01*
X021320Y009465D01*
X021320Y009430D01*
X021680Y009430D01*
X021680Y009430D01*
X021680Y009430D01*
X021680Y009790D01*
X021645Y009790D01*
X021575Y009776D01*
X021509Y009749D01*
X021393Y009649D02*
X020130Y009649D01*
X020389Y009491D02*
X021325Y009491D01*
X021320Y009430D02*
X021320Y009395D01*
X021334Y009325D01*
X021361Y009259D01*
X021400Y009201D01*
X021451Y009150D01*
X021509Y009111D01*
X021575Y009084D01*
X021645Y009070D01*
X021680Y009070D01*
X021680Y009430D01*
X021320Y009430D01*
X021332Y009332D02*
X020530Y009332D01*
X020595Y009174D02*
X021427Y009174D01*
X021680Y009174D02*
X021680Y009174D01*
X021680Y009332D02*
X021680Y009332D01*
X021680Y009491D02*
X021680Y009491D01*
X021680Y009649D02*
X021680Y009649D01*
X021680Y008698D02*
X021680Y008698D01*
X021680Y008540D02*
X021680Y008540D01*
X021680Y008381D02*
X021680Y008381D01*
X021680Y008223D02*
X021680Y008223D01*
X021974Y008223D02*
X023386Y008223D01*
X023400Y008201D02*
X023451Y008150D01*
X023509Y008111D01*
X023575Y008084D01*
X023645Y008070D01*
X023680Y008070D01*
X023680Y008430D01*
X023680Y008430D01*
X023680Y008430D01*
X023320Y008430D01*
X023320Y008465D01*
X023334Y008535D01*
X023361Y008601D01*
X023400Y008659D01*
X023451Y008710D01*
X023509Y008749D01*
X023575Y008776D01*
X023645Y008790D01*
X023680Y008790D01*
X023680Y008430D01*
X023320Y008430D01*
X023320Y008395D01*
X023334Y008325D01*
X023361Y008259D01*
X023400Y008201D01*
X023323Y008381D02*
X022037Y008381D01*
X022024Y008540D02*
X023336Y008540D01*
X023439Y008698D02*
X021921Y008698D01*
X023680Y008698D02*
X023680Y008698D01*
X023680Y008540D02*
X023680Y008540D01*
X023680Y008381D02*
X023680Y008381D01*
X023680Y008223D02*
X023680Y008223D01*
X021123Y010600D02*
X011580Y010600D01*
X011580Y010442D02*
X012732Y010442D01*
X012477Y010283D02*
X011580Y010283D01*
X011580Y010125D02*
X012319Y010125D01*
X012219Y009966D02*
X011580Y009966D01*
X011580Y009808D02*
X012142Y009808D01*
X012100Y009649D02*
X011580Y009649D01*
X011580Y009491D02*
X012080Y009491D01*
X012080Y009332D02*
X011586Y009332D01*
X011608Y009174D02*
X012110Y009174D01*
X012152Y009015D02*
X011644Y009015D01*
X012352Y008064D02*
X041501Y008064D01*
X041139Y007906D02*
X012714Y007906D01*
X015572Y008223D02*
X016080Y008223D01*
X015837Y008381D02*
X015712Y008381D01*
X016658Y008223D02*
X017910Y008223D01*
X017770Y008381D02*
X016901Y008381D01*
X017034Y008540D02*
X017727Y008540D01*
X017727Y008698D02*
X017100Y008698D01*
X017133Y008857D02*
X017727Y008857D01*
X017727Y009015D02*
X017133Y009015D01*
X017095Y009174D02*
X017727Y009174D01*
X017727Y009332D02*
X017030Y009332D01*
X016889Y009491D02*
X017775Y009491D01*
X017938Y009649D02*
X016630Y009649D01*
X016108Y009649D02*
X015544Y009649D01*
X015707Y009491D02*
X015849Y009491D01*
X013833Y010994D02*
X013950Y011277D01*
X013950Y011583D01*
X013833Y011866D01*
X013616Y012083D01*
X013333Y012200D01*
X013027Y012200D01*
X012744Y012083D01*
X012527Y011866D01*
X012410Y011583D01*
X012410Y011277D01*
X012527Y010994D01*
X012744Y010777D01*
X013027Y010660D01*
X013333Y010660D01*
X013616Y010777D01*
X013833Y010994D01*
X013867Y011076D02*
X020493Y011076D01*
X020428Y011234D02*
X013932Y011234D01*
X013950Y011393D02*
X020410Y011393D01*
X020410Y011551D02*
X013950Y011551D01*
X013898Y011710D02*
X020462Y011710D01*
X020529Y011868D02*
X013831Y011868D01*
X013672Y012027D02*
X020688Y012027D01*
X020991Y012185D02*
X013369Y012185D01*
X012991Y012185D02*
X011580Y012185D01*
X011580Y012027D02*
X012688Y012027D01*
X012529Y011868D02*
X011580Y011868D01*
X011580Y011710D02*
X012462Y011710D01*
X012410Y011551D02*
X011580Y011551D01*
X011580Y011393D02*
X012410Y011393D01*
X012428Y011234D02*
X011580Y011234D01*
X011580Y011076D02*
X012493Y011076D01*
X012604Y010917D02*
X011580Y010917D01*
X011580Y010759D02*
X012789Y010759D01*
X013571Y010759D02*
X020789Y010759D01*
X020604Y010917D02*
X013756Y010917D01*
X011580Y012344D02*
X021700Y012344D01*
X021700Y012502D02*
X011580Y012502D01*
X011580Y012661D02*
X021700Y012661D01*
X021700Y012819D02*
X011580Y012819D01*
X011580Y012978D02*
X021700Y012978D01*
X021700Y013136D02*
X011580Y013136D01*
X012430Y016430D02*
X012430Y016555D01*
X012305Y016680D01*
X011420Y019001D02*
X014878Y019001D01*
X014990Y019159D02*
X011420Y019159D01*
X011420Y021220D02*
X014990Y021220D01*
X014990Y021378D02*
X011420Y021378D01*
X011420Y021537D02*
X014365Y021537D01*
X014231Y021695D02*
X011420Y021695D01*
X011420Y021854D02*
X014177Y021854D01*
X014175Y022012D02*
X011420Y022012D01*
X011420Y022171D02*
X014226Y022171D01*
X014351Y022329D02*
X011420Y022329D01*
X011420Y022488D02*
X014308Y022488D01*
X014177Y022646D02*
X011420Y022646D01*
X011420Y022805D02*
X014112Y022805D01*
X014110Y022963D02*
X011420Y022963D01*
X011420Y023122D02*
X014146Y023122D01*
X014232Y023280D02*
X011420Y023280D01*
X011420Y023439D02*
X014437Y023439D01*
X014923Y023439D02*
X015217Y023439D01*
X015703Y023439D02*
X015990Y023439D01*
X015990Y023597D02*
X011420Y023597D01*
X014670Y021854D02*
X014690Y021854D01*
X014690Y021695D02*
X014670Y021695D01*
X014670Y021537D02*
X014690Y021537D01*
X014500Y019952D02*
X014990Y019952D01*
X014990Y019793D02*
X014463Y019793D01*
X014397Y019635D02*
X014990Y019635D01*
X014990Y019476D02*
X014285Y019476D01*
X014126Y019318D02*
X014990Y019318D01*
X015908Y023280D02*
X015990Y023280D01*
X017819Y023280D02*
X018044Y023280D01*
X018044Y023439D02*
X017819Y023439D01*
X017819Y023597D02*
X018041Y023597D01*
X018041Y023756D02*
X017819Y023756D01*
X017816Y023914D02*
X018044Y023914D01*
X018044Y024073D02*
X017816Y024073D01*
X017840Y024231D02*
X018020Y024231D01*
X017990Y024390D02*
X017870Y024390D01*
X017870Y024548D02*
X017990Y024548D01*
X017990Y024707D02*
X017870Y024707D01*
X017870Y024865D02*
X017990Y024865D01*
X017990Y025024D02*
X017870Y025024D01*
X017797Y025182D02*
X018063Y025182D01*
X018567Y026450D02*
X019092Y026450D01*
X018921Y026609D02*
X018738Y026609D01*
X018804Y026767D02*
X018856Y026767D01*
X018853Y026926D02*
X018806Y026926D01*
X018806Y027084D02*
X018853Y027084D01*
X018853Y027243D02*
X018806Y027243D01*
X018806Y027401D02*
X018853Y027401D01*
X018905Y027560D02*
X018754Y027560D01*
X018624Y027718D02*
X019035Y027718D01*
X021426Y027877D02*
X022316Y027877D01*
X022285Y028035D02*
X021584Y028035D01*
X021709Y028194D02*
X022242Y028194D01*
X022084Y028352D02*
X021827Y028352D01*
X021906Y028511D02*
X021925Y028511D01*
X022035Y027718D02*
X021624Y027718D01*
X021754Y027560D02*
X021905Y027560D01*
X021853Y027401D02*
X021806Y027401D01*
X021806Y027243D02*
X021853Y027243D01*
X021853Y027084D02*
X021806Y027084D01*
X021806Y026926D02*
X021853Y026926D01*
X021856Y026767D02*
X021804Y026767D01*
X021738Y026609D02*
X021921Y026609D01*
X022092Y026450D02*
X021567Y026450D01*
X022567Y026450D02*
X023092Y026450D01*
X022921Y026609D02*
X022738Y026609D01*
X022804Y026767D02*
X022856Y026767D01*
X022853Y026926D02*
X022806Y026926D01*
X022806Y027084D02*
X022853Y027084D01*
X022853Y027243D02*
X022806Y027243D01*
X022806Y027401D02*
X022853Y027401D01*
X023294Y027877D02*
X026199Y027877D01*
X025035Y027718D02*
X024624Y027718D01*
X024599Y027743D02*
X024424Y027816D01*
X024235Y027816D01*
X024060Y027743D01*
X023926Y027609D01*
X023853Y027434D01*
X023853Y026772D01*
X023926Y026597D01*
X024060Y026463D01*
X024235Y026391D01*
X024424Y026391D01*
X024599Y026463D01*
X024733Y026597D01*
X024806Y026772D01*
X024806Y027434D01*
X024733Y027609D01*
X024599Y027743D01*
X024754Y027560D02*
X024905Y027560D01*
X024853Y027401D02*
X024806Y027401D01*
X024806Y027243D02*
X024853Y027243D01*
X024853Y027084D02*
X024806Y027084D01*
X024806Y026926D02*
X024853Y026926D01*
X024856Y026767D02*
X024804Y026767D01*
X024738Y026609D02*
X024921Y026609D01*
X025092Y026450D02*
X024567Y026450D01*
X024092Y026450D02*
X023567Y026450D01*
X023738Y026609D02*
X023921Y026609D01*
X023856Y026767D02*
X023804Y026767D01*
X023806Y026926D02*
X023853Y026926D01*
X023853Y027084D02*
X023806Y027084D01*
X023806Y027243D02*
X023853Y027243D01*
X023853Y027401D02*
X023806Y027401D01*
X023754Y027560D02*
X023905Y027560D01*
X024035Y027718D02*
X023624Y027718D01*
X025654Y029620D02*
X026206Y029620D01*
X025959Y029462D02*
X025901Y029462D01*
X025688Y030254D02*
X026172Y030254D01*
X025945Y030413D02*
X025915Y030413D01*
X026628Y030254D02*
X028732Y030254D01*
X028505Y030413D02*
X026855Y030413D01*
X029188Y030254D02*
X029672Y030254D01*
X029445Y030413D02*
X029415Y030413D01*
X030128Y030254D02*
X032232Y030254D01*
X032005Y030413D02*
X030355Y030413D01*
X032688Y030254D02*
X033172Y030254D01*
X032945Y030413D02*
X032915Y030413D01*
X033628Y030254D02*
X035732Y030254D01*
X035505Y030413D02*
X033855Y030413D01*
X036188Y030254D02*
X036672Y030254D01*
X036445Y030413D02*
X036415Y030413D01*
X037128Y030254D02*
X039232Y030254D01*
X039005Y030413D02*
X037355Y030413D01*
X037457Y030571D02*
X038903Y030571D01*
X038850Y030730D02*
X037510Y030730D01*
X037510Y030888D02*
X038850Y030888D01*
X038894Y031047D02*
X037466Y031047D01*
X040026Y031047D02*
X041354Y031047D01*
X041656Y030888D02*
X040070Y030888D01*
X040070Y030730D02*
X041855Y030730D01*
X042006Y030571D02*
X040017Y030571D01*
X040632Y031190D02*
X040632Y031190D01*
X042153Y027877D02*
X042439Y027877D01*
X042439Y027718D02*
X042346Y027718D01*
X039555Y027680D02*
X038305Y026430D01*
X038418Y024390D02*
X037942Y024390D01*
X038100Y024231D02*
X038260Y024231D01*
X038942Y024390D02*
X042438Y024390D01*
X042438Y024231D02*
X039100Y024231D01*
X039190Y024073D02*
X042438Y024073D01*
X042438Y023914D02*
X039190Y023914D01*
X039190Y023756D02*
X042437Y023756D01*
X042437Y023597D02*
X039068Y023597D01*
X038910Y023439D02*
X042437Y023439D01*
X042437Y023280D02*
X039051Y023280D01*
X039190Y023122D02*
X042437Y023122D01*
X042437Y022963D02*
X039190Y022963D01*
X039190Y022805D02*
X042437Y022805D01*
X042437Y022646D02*
X039117Y022646D01*
X038959Y022488D02*
X042437Y022488D01*
X042437Y022329D02*
X039002Y022329D01*
X039161Y022171D02*
X042437Y022171D01*
X042437Y022012D02*
X039190Y022012D01*
X039190Y021854D02*
X042437Y021854D01*
X042437Y021695D02*
X039166Y021695D01*
X039008Y021537D02*
X042437Y021537D01*
X039945Y020269D02*
X039063Y020269D01*
X039190Y020110D02*
X039945Y020110D01*
X039945Y019952D02*
X039190Y019952D01*
X039190Y019793D02*
X039945Y019793D01*
X039945Y019635D02*
X039106Y019635D01*
X037407Y021378D02*
X034732Y021378D01*
X034859Y021537D02*
X037352Y021537D01*
X037194Y021695D02*
X034910Y021695D01*
X034909Y021854D02*
X037170Y021854D01*
X037170Y022012D02*
X034843Y022012D01*
X034681Y022171D02*
X037199Y022171D01*
X032805Y017180D02*
X031555Y017180D01*
X030305Y015930D01*
X030805Y014721D02*
X036680Y014721D01*
X036680Y014563D02*
X030976Y014563D01*
X031135Y014404D02*
X036680Y014404D01*
X036680Y014246D02*
X031293Y014246D01*
X031452Y014087D02*
X036680Y014087D01*
X036680Y013929D02*
X031610Y013929D01*
X031769Y013770D02*
X036680Y013770D01*
X036680Y013612D02*
X031927Y013612D01*
X032086Y013453D02*
X036680Y013453D01*
X036680Y013295D02*
X032244Y013295D01*
X032403Y013136D02*
X036680Y013136D01*
X036680Y012978D02*
X032561Y012978D01*
X032720Y012819D02*
X036680Y012819D01*
X036680Y012661D02*
X032854Y012661D01*
X032910Y012502D02*
X036680Y012502D01*
X036766Y012344D02*
X032910Y012344D01*
X032910Y012185D02*
X032991Y012185D01*
X032430Y012430D02*
X032430Y010680D01*
X032680Y010430D01*
X033260Y010442D02*
X034100Y010442D01*
X034113Y010283D02*
X033247Y010283D01*
X033181Y010125D02*
X034179Y010125D01*
X034324Y009966D02*
X033036Y009966D01*
X033237Y010600D02*
X034123Y010600D01*
X034188Y010759D02*
X033571Y010759D01*
X033756Y010917D02*
X034347Y010917D01*
X034680Y009649D02*
X034680Y009649D01*
X034680Y009491D02*
X034680Y009491D01*
X034680Y009332D02*
X034680Y009332D01*
X034680Y009174D02*
X034680Y009174D01*
X034933Y009174D02*
X036947Y009174D01*
X036951Y009332D02*
X035028Y009332D01*
X035035Y009491D02*
X038349Y009491D01*
X038208Y009332D02*
X038031Y009332D01*
X038035Y009174D02*
X038143Y009174D01*
X038105Y009015D02*
X038035Y009015D01*
X038035Y008857D02*
X038105Y008857D01*
X038138Y008698D02*
X038035Y008698D01*
X038034Y008540D02*
X038204Y008540D01*
X038337Y008381D02*
X035037Y008381D01*
X035024Y008540D02*
X036948Y008540D01*
X036947Y008698D02*
X034921Y008698D01*
X034680Y008698D02*
X034680Y008698D01*
X034680Y008540D02*
X034680Y008540D01*
X034680Y008381D02*
X034680Y008381D01*
X034680Y008223D02*
X034680Y008223D01*
X034974Y008223D02*
X038580Y008223D01*
X037509Y008540D02*
X037473Y008540D01*
X037473Y008698D02*
X037509Y008698D01*
X037509Y008857D02*
X037473Y008857D01*
X037473Y009015D02*
X037509Y009015D01*
X037509Y009174D02*
X037473Y009174D01*
X037473Y009332D02*
X037509Y009332D01*
X032430Y012430D02*
X030555Y014305D01*
X028180Y014305D01*
X028567Y014880D02*
X036680Y014880D01*
X036680Y015038D02*
X032038Y015038D01*
X032197Y015197D02*
X036680Y015197D01*
X036680Y015355D02*
X032355Y015355D01*
X032514Y015514D02*
X036680Y015514D01*
X036680Y015672D02*
X032672Y015672D01*
X032831Y015831D02*
X036529Y015831D01*
X036371Y015989D02*
X032989Y015989D01*
X033148Y016148D02*
X036212Y016148D01*
X036054Y016306D02*
X033306Y016306D01*
X033465Y016465D02*
X035895Y016465D01*
X035737Y016623D02*
X033623Y016623D01*
X033782Y016782D02*
X035578Y016782D01*
X029684Y020269D02*
X027004Y020269D01*
X027138Y020427D02*
X029660Y020427D01*
X029641Y020586D02*
X027200Y020586D01*
X027200Y020744D02*
X029482Y020744D01*
X029324Y020903D02*
X027151Y020903D01*
X027034Y021061D02*
X029165Y021061D01*
X028520Y022171D02*
X027183Y022171D01*
X027341Y022329D02*
X028520Y022329D01*
X028520Y022488D02*
X027500Y022488D01*
X027658Y022646D02*
X028552Y022646D01*
X028755Y022805D02*
X027817Y022805D01*
X027975Y022963D02*
X028755Y022963D01*
X028755Y023122D02*
X028134Y023122D01*
X028292Y023280D02*
X028795Y023280D01*
X028946Y023439D02*
X028451Y023439D01*
X025505Y021854D02*
X022959Y021854D01*
X022964Y021695D02*
X025505Y021695D01*
X025250Y020744D02*
X026160Y020744D01*
X022510Y020903D02*
X022350Y020903D01*
X022350Y021061D02*
X022510Y021061D01*
X022510Y021537D02*
X022350Y021537D01*
X022350Y021695D02*
X022510Y021695D01*
X022510Y021854D02*
X022350Y021854D01*
X024525Y023597D02*
X024550Y023597D01*
X024525Y024073D02*
X024550Y024073D01*
X022180Y014430D02*
X022180Y010930D01*
X021700Y012027D02*
X021672Y012027D01*
X021700Y012185D02*
X021369Y012185D01*
X021539Y013929D02*
X021700Y013929D01*
X019608Y009649D02*
X019044Y009649D01*
X019207Y009491D02*
X019349Y009491D01*
M02*
