G75*
G70*
%OFA0B0*%
%FSLAX24Y24*%
%IPPOS*%
%LPD*%
%AMOC8*
5,1,8,0,0,1.08239X$1,22.5*
%
%ADD10C,0.0000*%
%ADD11R,0.0118X0.0551*%
%ADD12R,0.0846X0.0709*%
%ADD13R,0.0512X0.0591*%
%ADD14R,0.0472X0.0217*%
%ADD15R,0.0591X0.0512*%
%ADD16R,0.0550X0.0137*%
%ADD17R,0.0709X0.1260*%
%ADD18R,0.0945X0.0945*%
%ADD19R,0.0630X0.0710*%
%ADD20R,0.0710X0.0630*%
D10*
X011180Y009430D02*
X011180Y029430D01*
X011182Y029525D01*
X011189Y029620D01*
X011200Y029715D01*
X011216Y029809D01*
X011236Y029902D01*
X011261Y029993D01*
X011290Y030084D01*
X011323Y030173D01*
X011361Y030261D01*
X011402Y030346D01*
X011448Y030430D01*
X011497Y030511D01*
X011551Y030590D01*
X011608Y030666D01*
X011669Y030740D01*
X011733Y030810D01*
X011800Y030877D01*
X011870Y030941D01*
X011944Y031002D01*
X012020Y031059D01*
X012099Y031113D01*
X012180Y031162D01*
X012264Y031208D01*
X012349Y031249D01*
X012437Y031287D01*
X012526Y031320D01*
X012617Y031349D01*
X012708Y031374D01*
X012801Y031394D01*
X012895Y031410D01*
X012990Y031421D01*
X013085Y031428D01*
X013180Y031430D01*
X040679Y031430D01*
X040774Y031428D01*
X040869Y031421D01*
X040964Y031410D01*
X041057Y031394D01*
X041150Y031374D01*
X041242Y031349D01*
X041333Y031320D01*
X041422Y031287D01*
X041510Y031249D01*
X041596Y031208D01*
X041679Y031162D01*
X041760Y031112D01*
X041839Y031059D01*
X041915Y031002D01*
X041989Y030941D01*
X042059Y030877D01*
X042127Y030810D01*
X042191Y030740D01*
X042251Y030666D01*
X042308Y030590D01*
X042362Y030511D01*
X042411Y030430D01*
X042457Y030346D01*
X042498Y030261D01*
X042536Y030173D01*
X042569Y030084D01*
X042598Y029993D01*
X042623Y029901D01*
X042643Y029808D01*
X042659Y029714D01*
X042670Y029620D01*
X042677Y029525D01*
X042679Y029429D01*
X042679Y029430D02*
X042673Y009430D01*
X042671Y009335D01*
X042664Y009240D01*
X042653Y009146D01*
X042637Y009052D01*
X042617Y008959D01*
X042592Y008867D01*
X042563Y008776D01*
X042530Y008687D01*
X042492Y008599D01*
X042451Y008514D01*
X042405Y008430D01*
X042356Y008349D01*
X042302Y008270D01*
X042245Y008194D01*
X042185Y008120D01*
X042121Y008050D01*
X042053Y007983D01*
X041983Y007919D01*
X041909Y007858D01*
X041833Y007801D01*
X041754Y007748D01*
X041673Y007698D01*
X041590Y007652D01*
X041504Y007611D01*
X041416Y007573D01*
X041327Y007540D01*
X041237Y007511D01*
X041145Y007486D01*
X041052Y007466D01*
X040958Y007450D01*
X040863Y007439D01*
X040768Y007432D01*
X040673Y007430D01*
X013180Y007430D01*
X013085Y007432D01*
X012990Y007439D01*
X012895Y007450D01*
X012801Y007466D01*
X012708Y007486D01*
X012617Y007511D01*
X012526Y007540D01*
X012437Y007573D01*
X012349Y007611D01*
X012264Y007652D01*
X012180Y007698D01*
X012099Y007747D01*
X012020Y007801D01*
X011944Y007858D01*
X011870Y007919D01*
X011800Y007983D01*
X011733Y008050D01*
X011669Y008120D01*
X011608Y008194D01*
X011551Y008270D01*
X011497Y008349D01*
X011448Y008430D01*
X011402Y008514D01*
X011361Y008599D01*
X011323Y008687D01*
X011290Y008776D01*
X011261Y008867D01*
X011236Y008958D01*
X011216Y009051D01*
X011200Y009145D01*
X011189Y009240D01*
X011182Y009335D01*
X011180Y009430D01*
X011629Y014930D02*
X011631Y014977D01*
X011637Y015023D01*
X011647Y015069D01*
X011660Y015114D01*
X011678Y015157D01*
X011699Y015199D01*
X011723Y015239D01*
X011751Y015276D01*
X011782Y015311D01*
X011816Y015344D01*
X011852Y015373D01*
X011891Y015399D01*
X011932Y015422D01*
X011975Y015441D01*
X012019Y015457D01*
X012064Y015469D01*
X012110Y015477D01*
X012157Y015481D01*
X012203Y015481D01*
X012250Y015477D01*
X012296Y015469D01*
X012341Y015457D01*
X012385Y015441D01*
X012428Y015422D01*
X012469Y015399D01*
X012508Y015373D01*
X012544Y015344D01*
X012578Y015311D01*
X012609Y015276D01*
X012637Y015239D01*
X012661Y015199D01*
X012682Y015157D01*
X012700Y015114D01*
X012713Y015069D01*
X012723Y015023D01*
X012729Y014977D01*
X012731Y014930D01*
X012729Y014883D01*
X012723Y014837D01*
X012713Y014791D01*
X012700Y014746D01*
X012682Y014703D01*
X012661Y014661D01*
X012637Y014621D01*
X012609Y014584D01*
X012578Y014549D01*
X012544Y014516D01*
X012508Y014487D01*
X012469Y014461D01*
X012428Y014438D01*
X012385Y014419D01*
X012341Y014403D01*
X012296Y014391D01*
X012250Y014383D01*
X012203Y014379D01*
X012157Y014379D01*
X012110Y014383D01*
X012064Y014391D01*
X012019Y014403D01*
X011975Y014419D01*
X011932Y014438D01*
X011891Y014461D01*
X011852Y014487D01*
X011816Y014516D01*
X011782Y014549D01*
X011751Y014584D01*
X011723Y014621D01*
X011699Y014661D01*
X011678Y014703D01*
X011660Y014746D01*
X011647Y014791D01*
X011637Y014837D01*
X011631Y014883D01*
X011629Y014930D01*
X011629Y027103D02*
X011631Y027150D01*
X011637Y027196D01*
X011647Y027242D01*
X011660Y027287D01*
X011678Y027330D01*
X011699Y027372D01*
X011723Y027412D01*
X011751Y027449D01*
X011782Y027484D01*
X011816Y027517D01*
X011852Y027546D01*
X011891Y027572D01*
X011932Y027595D01*
X011975Y027614D01*
X012019Y027630D01*
X012064Y027642D01*
X012110Y027650D01*
X012157Y027654D01*
X012203Y027654D01*
X012250Y027650D01*
X012296Y027642D01*
X012341Y027630D01*
X012385Y027614D01*
X012428Y027595D01*
X012469Y027572D01*
X012508Y027546D01*
X012544Y027517D01*
X012578Y027484D01*
X012609Y027449D01*
X012637Y027412D01*
X012661Y027372D01*
X012682Y027330D01*
X012700Y027287D01*
X012713Y027242D01*
X012723Y027196D01*
X012729Y027150D01*
X012731Y027103D01*
X012729Y027056D01*
X012723Y027010D01*
X012713Y026964D01*
X012700Y026919D01*
X012682Y026876D01*
X012661Y026834D01*
X012637Y026794D01*
X012609Y026757D01*
X012578Y026722D01*
X012544Y026689D01*
X012508Y026660D01*
X012469Y026634D01*
X012428Y026611D01*
X012385Y026592D01*
X012341Y026576D01*
X012296Y026564D01*
X012250Y026556D01*
X012203Y026552D01*
X012157Y026552D01*
X012110Y026556D01*
X012064Y026564D01*
X012019Y026576D01*
X011975Y026592D01*
X011932Y026611D01*
X011891Y026634D01*
X011852Y026660D01*
X011816Y026689D01*
X011782Y026722D01*
X011751Y026757D01*
X011723Y026794D01*
X011699Y026834D01*
X011678Y026876D01*
X011660Y026919D01*
X011647Y026964D01*
X011637Y027010D01*
X011631Y027056D01*
X011629Y027103D01*
X041125Y027103D02*
X041127Y027150D01*
X041133Y027196D01*
X041143Y027242D01*
X041156Y027287D01*
X041174Y027330D01*
X041195Y027372D01*
X041219Y027412D01*
X041247Y027449D01*
X041278Y027484D01*
X041312Y027517D01*
X041348Y027546D01*
X041387Y027572D01*
X041428Y027595D01*
X041471Y027614D01*
X041515Y027630D01*
X041560Y027642D01*
X041606Y027650D01*
X041653Y027654D01*
X041699Y027654D01*
X041746Y027650D01*
X041792Y027642D01*
X041837Y027630D01*
X041881Y027614D01*
X041924Y027595D01*
X041965Y027572D01*
X042004Y027546D01*
X042040Y027517D01*
X042074Y027484D01*
X042105Y027449D01*
X042133Y027412D01*
X042157Y027372D01*
X042178Y027330D01*
X042196Y027287D01*
X042209Y027242D01*
X042219Y027196D01*
X042225Y027150D01*
X042227Y027103D01*
X042225Y027056D01*
X042219Y027010D01*
X042209Y026964D01*
X042196Y026919D01*
X042178Y026876D01*
X042157Y026834D01*
X042133Y026794D01*
X042105Y026757D01*
X042074Y026722D01*
X042040Y026689D01*
X042004Y026660D01*
X041965Y026634D01*
X041924Y026611D01*
X041881Y026592D01*
X041837Y026576D01*
X041792Y026564D01*
X041746Y026556D01*
X041699Y026552D01*
X041653Y026552D01*
X041606Y026556D01*
X041560Y026564D01*
X041515Y026576D01*
X041471Y026592D01*
X041428Y026611D01*
X041387Y026634D01*
X041348Y026660D01*
X041312Y026689D01*
X041278Y026722D01*
X041247Y026757D01*
X041219Y026794D01*
X041195Y026834D01*
X041174Y026876D01*
X041156Y026919D01*
X041143Y026964D01*
X041133Y027010D01*
X041127Y027056D01*
X041125Y027103D01*
X041125Y014930D02*
X041127Y014977D01*
X041133Y015023D01*
X041143Y015069D01*
X041156Y015114D01*
X041174Y015157D01*
X041195Y015199D01*
X041219Y015239D01*
X041247Y015276D01*
X041278Y015311D01*
X041312Y015344D01*
X041348Y015373D01*
X041387Y015399D01*
X041428Y015422D01*
X041471Y015441D01*
X041515Y015457D01*
X041560Y015469D01*
X041606Y015477D01*
X041653Y015481D01*
X041699Y015481D01*
X041746Y015477D01*
X041792Y015469D01*
X041837Y015457D01*
X041881Y015441D01*
X041924Y015422D01*
X041965Y015399D01*
X042004Y015373D01*
X042040Y015344D01*
X042074Y015311D01*
X042105Y015276D01*
X042133Y015239D01*
X042157Y015199D01*
X042178Y015157D01*
X042196Y015114D01*
X042209Y015069D01*
X042219Y015023D01*
X042225Y014977D01*
X042227Y014930D01*
X042225Y014883D01*
X042219Y014837D01*
X042209Y014791D01*
X042196Y014746D01*
X042178Y014703D01*
X042157Y014661D01*
X042133Y014621D01*
X042105Y014584D01*
X042074Y014549D01*
X042040Y014516D01*
X042004Y014487D01*
X041965Y014461D01*
X041924Y014438D01*
X041881Y014419D01*
X041837Y014403D01*
X041792Y014391D01*
X041746Y014383D01*
X041699Y014379D01*
X041653Y014379D01*
X041606Y014383D01*
X041560Y014391D01*
X041515Y014403D01*
X041471Y014419D01*
X041428Y014438D01*
X041387Y014461D01*
X041348Y014487D01*
X041312Y014516D01*
X041278Y014549D01*
X041247Y014584D01*
X041219Y014621D01*
X041195Y014661D01*
X041174Y014703D01*
X041156Y014746D01*
X041143Y014791D01*
X041133Y014837D01*
X041127Y014883D01*
X041125Y014930D01*
D11*
G36*
X033075Y020707D02*
X032991Y020623D01*
X032603Y021011D01*
X032687Y021095D01*
X033075Y020707D01*
G37*
G36*
X032935Y020568D02*
X032851Y020484D01*
X032463Y020872D01*
X032547Y020956D01*
X032935Y020568D01*
G37*
G36*
X032796Y020429D02*
X032712Y020345D01*
X032324Y020733D01*
X032408Y020817D01*
X032796Y020429D01*
G37*
G36*
X032657Y020290D02*
X032573Y020206D01*
X032185Y020594D01*
X032269Y020678D01*
X032657Y020290D01*
G37*
G36*
X032518Y020151D02*
X032434Y020067D01*
X032046Y020455D01*
X032130Y020539D01*
X032518Y020151D01*
G37*
G36*
X032379Y020011D02*
X032295Y019927D01*
X031907Y020315D01*
X031991Y020399D01*
X032379Y020011D01*
G37*
G36*
X032239Y019872D02*
X032155Y019788D01*
X031767Y020176D01*
X031851Y020260D01*
X032239Y019872D01*
G37*
G36*
X032100Y019733D02*
X032016Y019649D01*
X031628Y020037D01*
X031712Y020121D01*
X032100Y019733D01*
G37*
G36*
X031961Y019594D02*
X031877Y019510D01*
X031489Y019898D01*
X031573Y019982D01*
X031961Y019594D01*
G37*
G36*
X031822Y019455D02*
X031738Y019371D01*
X031350Y019759D01*
X031434Y019843D01*
X031822Y019455D01*
G37*
G36*
X031683Y019315D02*
X031599Y019231D01*
X031211Y019619D01*
X031295Y019703D01*
X031683Y019315D01*
G37*
G36*
X031543Y019176D02*
X031459Y019092D01*
X031071Y019480D01*
X031155Y019564D01*
X031543Y019176D01*
G37*
G36*
X031404Y019037D02*
X031320Y018953D01*
X030932Y019341D01*
X031016Y019425D01*
X031404Y019037D01*
G37*
G36*
X031265Y018898D02*
X031181Y018814D01*
X030793Y019202D01*
X030877Y019286D01*
X031265Y018898D01*
G37*
G36*
X031126Y018759D02*
X031042Y018675D01*
X030654Y019063D01*
X030738Y019147D01*
X031126Y018759D01*
G37*
G36*
X030987Y018619D02*
X030903Y018535D01*
X030515Y018923D01*
X030599Y019007D01*
X030987Y018619D01*
G37*
G36*
X029457Y018535D02*
X029373Y018619D01*
X029761Y019007D01*
X029845Y018923D01*
X029457Y018535D01*
G37*
G36*
X029318Y018675D02*
X029234Y018759D01*
X029622Y019147D01*
X029706Y019063D01*
X029318Y018675D01*
G37*
G36*
X029179Y018814D02*
X029095Y018898D01*
X029483Y019286D01*
X029567Y019202D01*
X029179Y018814D01*
G37*
G36*
X029040Y018953D02*
X028956Y019037D01*
X029344Y019425D01*
X029428Y019341D01*
X029040Y018953D01*
G37*
G36*
X028901Y019092D02*
X028817Y019176D01*
X029205Y019564D01*
X029289Y019480D01*
X028901Y019092D01*
G37*
G36*
X028761Y019231D02*
X028677Y019315D01*
X029065Y019703D01*
X029149Y019619D01*
X028761Y019231D01*
G37*
G36*
X028622Y019371D02*
X028538Y019455D01*
X028926Y019843D01*
X029010Y019759D01*
X028622Y019371D01*
G37*
G36*
X028483Y019510D02*
X028399Y019594D01*
X028787Y019982D01*
X028871Y019898D01*
X028483Y019510D01*
G37*
G36*
X028344Y019649D02*
X028260Y019733D01*
X028648Y020121D01*
X028732Y020037D01*
X028344Y019649D01*
G37*
G36*
X028205Y019788D02*
X028121Y019872D01*
X028509Y020260D01*
X028593Y020176D01*
X028205Y019788D01*
G37*
G36*
X028065Y019927D02*
X027981Y020011D01*
X028369Y020399D01*
X028453Y020315D01*
X028065Y019927D01*
G37*
G36*
X027926Y020067D02*
X027842Y020151D01*
X028230Y020539D01*
X028314Y020455D01*
X027926Y020067D01*
G37*
G36*
X027787Y020206D02*
X027703Y020290D01*
X028091Y020678D01*
X028175Y020594D01*
X027787Y020206D01*
G37*
G36*
X027648Y020345D02*
X027564Y020429D01*
X027952Y020817D01*
X028036Y020733D01*
X027648Y020345D01*
G37*
G36*
X027509Y020484D02*
X027425Y020568D01*
X027813Y020956D01*
X027897Y020872D01*
X027509Y020484D01*
G37*
G36*
X027369Y020623D02*
X027285Y020707D01*
X027673Y021095D01*
X027757Y021011D01*
X027369Y020623D01*
G37*
G36*
X027757Y021849D02*
X027673Y021765D01*
X027285Y022153D01*
X027369Y022237D01*
X027757Y021849D01*
G37*
G36*
X027897Y021988D02*
X027813Y021904D01*
X027425Y022292D01*
X027509Y022376D01*
X027897Y021988D01*
G37*
G36*
X028036Y022127D02*
X027952Y022043D01*
X027564Y022431D01*
X027648Y022515D01*
X028036Y022127D01*
G37*
G36*
X028175Y022266D02*
X028091Y022182D01*
X027703Y022570D01*
X027787Y022654D01*
X028175Y022266D01*
G37*
G36*
X028314Y022405D02*
X028230Y022321D01*
X027842Y022709D01*
X027926Y022793D01*
X028314Y022405D01*
G37*
G36*
X028453Y022545D02*
X028369Y022461D01*
X027981Y022849D01*
X028065Y022933D01*
X028453Y022545D01*
G37*
G36*
X028593Y022684D02*
X028509Y022600D01*
X028121Y022988D01*
X028205Y023072D01*
X028593Y022684D01*
G37*
G36*
X028732Y022823D02*
X028648Y022739D01*
X028260Y023127D01*
X028344Y023211D01*
X028732Y022823D01*
G37*
G36*
X028871Y022962D02*
X028787Y022878D01*
X028399Y023266D01*
X028483Y023350D01*
X028871Y022962D01*
G37*
G36*
X029010Y023101D02*
X028926Y023017D01*
X028538Y023405D01*
X028622Y023489D01*
X029010Y023101D01*
G37*
G36*
X029149Y023241D02*
X029065Y023157D01*
X028677Y023545D01*
X028761Y023629D01*
X029149Y023241D01*
G37*
G36*
X029289Y023380D02*
X029205Y023296D01*
X028817Y023684D01*
X028901Y023768D01*
X029289Y023380D01*
G37*
G36*
X029428Y023519D02*
X029344Y023435D01*
X028956Y023823D01*
X029040Y023907D01*
X029428Y023519D01*
G37*
G36*
X029567Y023658D02*
X029483Y023574D01*
X029095Y023962D01*
X029179Y024046D01*
X029567Y023658D01*
G37*
G36*
X029706Y023797D02*
X029622Y023713D01*
X029234Y024101D01*
X029318Y024185D01*
X029706Y023797D01*
G37*
G36*
X029845Y023937D02*
X029761Y023853D01*
X029373Y024241D01*
X029457Y024325D01*
X029845Y023937D01*
G37*
G36*
X030599Y023853D02*
X030515Y023937D01*
X030903Y024325D01*
X030987Y024241D01*
X030599Y023853D01*
G37*
G36*
X030738Y023713D02*
X030654Y023797D01*
X031042Y024185D01*
X031126Y024101D01*
X030738Y023713D01*
G37*
G36*
X030877Y023574D02*
X030793Y023658D01*
X031181Y024046D01*
X031265Y023962D01*
X030877Y023574D01*
G37*
G36*
X031016Y023435D02*
X030932Y023519D01*
X031320Y023907D01*
X031404Y023823D01*
X031016Y023435D01*
G37*
G36*
X031155Y023296D02*
X031071Y023380D01*
X031459Y023768D01*
X031543Y023684D01*
X031155Y023296D01*
G37*
G36*
X031295Y023157D02*
X031211Y023241D01*
X031599Y023629D01*
X031683Y023545D01*
X031295Y023157D01*
G37*
G36*
X031434Y023017D02*
X031350Y023101D01*
X031738Y023489D01*
X031822Y023405D01*
X031434Y023017D01*
G37*
G36*
X031573Y022878D02*
X031489Y022962D01*
X031877Y023350D01*
X031961Y023266D01*
X031573Y022878D01*
G37*
G36*
X031712Y022739D02*
X031628Y022823D01*
X032016Y023211D01*
X032100Y023127D01*
X031712Y022739D01*
G37*
G36*
X031851Y022600D02*
X031767Y022684D01*
X032155Y023072D01*
X032239Y022988D01*
X031851Y022600D01*
G37*
G36*
X031991Y022461D02*
X031907Y022545D01*
X032295Y022933D01*
X032379Y022849D01*
X031991Y022461D01*
G37*
G36*
X032130Y022321D02*
X032046Y022405D01*
X032434Y022793D01*
X032518Y022709D01*
X032130Y022321D01*
G37*
G36*
X032269Y022182D02*
X032185Y022266D01*
X032573Y022654D01*
X032657Y022570D01*
X032269Y022182D01*
G37*
G36*
X032408Y022043D02*
X032324Y022127D01*
X032712Y022515D01*
X032796Y022431D01*
X032408Y022043D01*
G37*
G36*
X032547Y021904D02*
X032463Y021988D01*
X032851Y022376D01*
X032935Y022292D01*
X032547Y021904D01*
G37*
G36*
X032687Y021765D02*
X032603Y021849D01*
X032991Y022237D01*
X033075Y022153D01*
X032687Y021765D01*
G37*
D12*
G36*
X031292Y017418D02*
X031889Y018015D01*
X032390Y017514D01*
X031793Y016917D01*
X031292Y017418D01*
G37*
G36*
X030470Y016596D02*
X031067Y017193D01*
X031568Y016692D01*
X030971Y016095D01*
X030470Y016596D01*
G37*
G36*
X029861Y017378D02*
X030458Y016781D01*
X029957Y016280D01*
X029360Y016877D01*
X029861Y017378D01*
G37*
G36*
X029040Y018199D02*
X029637Y017602D01*
X029136Y017101D01*
X028539Y017698D01*
X029040Y018199D01*
G37*
G36*
X026668Y019943D02*
X027265Y019346D01*
X026764Y018845D01*
X026167Y019442D01*
X026668Y019943D01*
G37*
G36*
X025846Y020765D02*
X026443Y020168D01*
X025942Y019667D01*
X025345Y020264D01*
X025846Y020765D01*
G37*
D13*
G36*
X025416Y019153D02*
X025054Y019515D01*
X025470Y019931D01*
X025832Y019569D01*
X025416Y019153D01*
G37*
G36*
X025890Y018679D02*
X025528Y019041D01*
X025944Y019457D01*
X026306Y019095D01*
X025890Y018679D01*
G37*
G36*
X024791Y017403D02*
X024429Y017765D01*
X024845Y018181D01*
X025207Y017819D01*
X024791Y017403D01*
G37*
G36*
X025265Y016929D02*
X024903Y017291D01*
X025319Y017707D01*
X025681Y017345D01*
X025265Y016929D01*
G37*
G36*
X024528Y016444D02*
X024890Y016806D01*
X025306Y016390D01*
X024944Y016028D01*
X024528Y016444D01*
G37*
G36*
X024054Y015970D02*
X024416Y016332D01*
X024832Y015916D01*
X024470Y015554D01*
X024054Y015970D01*
G37*
G36*
X023054Y016970D02*
X023416Y017332D01*
X023832Y016916D01*
X023470Y016554D01*
X023054Y016970D01*
G37*
G36*
X023528Y017444D02*
X023890Y017806D01*
X024306Y017390D01*
X023944Y017028D01*
X023528Y017444D01*
G37*
G36*
X028541Y016528D02*
X028179Y016890D01*
X028595Y017306D01*
X028957Y016944D01*
X028541Y016528D01*
G37*
G36*
X029015Y016054D02*
X028653Y016416D01*
X029069Y016832D01*
X029431Y016470D01*
X029015Y016054D01*
G37*
G36*
X030542Y017027D02*
X030180Y017389D01*
X030596Y017805D01*
X030958Y017443D01*
X030542Y017027D01*
G37*
G36*
X030014Y017555D02*
X029652Y017917D01*
X030068Y018333D01*
X030430Y017971D01*
X030014Y017555D01*
G37*
G36*
X032082Y016166D02*
X031720Y015804D01*
X031304Y016220D01*
X031666Y016582D01*
X032082Y016166D01*
G37*
G36*
X032556Y016640D02*
X032194Y016278D01*
X031778Y016694D01*
X032140Y017056D01*
X032556Y016640D01*
G37*
X035220Y020430D03*
X035890Y020430D03*
X035890Y021180D03*
X035220Y021180D03*
G36*
X028278Y026069D02*
X028640Y026431D01*
X029056Y026015D01*
X028694Y025653D01*
X028278Y026069D01*
G37*
G36*
X027804Y025595D02*
X028166Y025957D01*
X028582Y025541D01*
X028220Y025179D01*
X027804Y025595D01*
G37*
X024015Y023930D03*
X023345Y023930D03*
X017515Y023805D03*
X016845Y023805D03*
X016845Y024555D03*
X017515Y024555D03*
X021345Y012430D03*
X022015Y012430D03*
X023345Y012430D03*
X024015Y012430D03*
X032845Y012430D03*
X033515Y012430D03*
X034970Y012430D03*
X035640Y012430D03*
D14*
X029192Y013056D03*
X029192Y013430D03*
X029192Y013804D03*
X028168Y013804D03*
X028168Y013056D03*
X018192Y013056D03*
X018192Y013430D03*
X018192Y013804D03*
X017168Y013804D03*
X017168Y013056D03*
D15*
X016180Y013095D03*
X016180Y013765D03*
X019930Y013640D03*
X019930Y012970D03*
X022430Y014970D03*
X022430Y015640D03*
X024555Y014015D03*
X024555Y013345D03*
X027180Y013095D03*
X027180Y013765D03*
X030680Y013765D03*
X030680Y013095D03*
X033180Y015095D03*
X033180Y015765D03*
X035805Y014515D03*
X035805Y013845D03*
X040180Y019095D03*
X040180Y019765D03*
X034430Y020470D03*
X034430Y021140D03*
X024805Y022345D03*
X024805Y023015D03*
X023930Y023015D03*
X023930Y022345D03*
X023680Y029595D03*
X023680Y030265D03*
X024680Y030265D03*
X024680Y029595D03*
X027180Y029595D03*
X027180Y030265D03*
X028180Y030265D03*
X028180Y029595D03*
X030680Y029595D03*
X030680Y030265D03*
X031680Y030265D03*
X031680Y029595D03*
X034180Y029595D03*
X034180Y030265D03*
X035180Y030265D03*
X035180Y029595D03*
X038180Y029595D03*
X038180Y030265D03*
D16*
X022369Y024093D03*
X022369Y023837D03*
X022369Y023582D03*
X022369Y023326D03*
X022369Y023070D03*
X022369Y022814D03*
X022369Y022558D03*
X022369Y022302D03*
X022369Y022046D03*
X022369Y021790D03*
X022369Y021534D03*
X022369Y021278D03*
X022369Y021023D03*
X022369Y020767D03*
X019491Y020767D03*
X019491Y021023D03*
X019491Y021278D03*
X019491Y021534D03*
X019491Y021790D03*
X019491Y022046D03*
X019491Y022302D03*
X019491Y022558D03*
X019491Y022814D03*
X019491Y023070D03*
X019491Y023326D03*
X019491Y023582D03*
X019491Y023837D03*
X019491Y024093D03*
D17*
X018782Y011430D03*
X016578Y011430D03*
X027578Y011430D03*
X029782Y011430D03*
D18*
X025805Y012814D03*
X025805Y014546D03*
X020930Y014689D03*
X020930Y016421D03*
X034680Y016796D03*
X034680Y015064D03*
D19*
G36*
X017229Y015757D02*
X017674Y015312D01*
X017173Y014811D01*
X016728Y015256D01*
X017229Y015757D01*
G37*
G36*
X016437Y016549D02*
X016882Y016104D01*
X016381Y015603D01*
X015936Y016048D01*
X016437Y016549D01*
G37*
D20*
X014430Y014490D03*
X014430Y013370D03*
M02*
