%
M48
M72
T01C0.0200
T02C0.0240
T03C0.0315
T04C0.0320
T05C0.0354
T06C0.0360
T07C0.0394
T08C0.0400
T09C0.0472
T10C0.0900
T11C0.1000
T12C0.1102
%
T01
X30680Y25180
X31180Y25180
X31680Y25180
X32180Y25180
X35180Y26055
X35680Y26055
X36180Y26055
X36680Y26055
X36680Y26680
X36180Y26680
X35680Y26680
X35180Y26680
X35180Y24055
X35680Y24055
X36180Y24055
X36680Y24055
X36680Y23430
X36180Y23430
X35680Y23430
X35180Y23430
T02
X37180Y11430
X38180Y11430
X39180Y11430
X34680Y10430
X34680Y9430
X34680Y8430
X32680Y8430
X32680Y9430
X32680Y10430
X23680Y10430
X23680Y9430
X23680Y8430
X21680Y8430
X21680Y9430
X21680Y10430
T03
X24680Y8305
X24805Y12430
X27180Y14305
X28180Y14305
X30305Y15930
X32305Y15180
X32805Y17180
X30180Y20430
X31055Y20555
X30430Y22305
X31180Y22430
X30555Y23055
X26680Y20680
X26680Y18805
X28055Y16430
X23555Y19430
X24305Y21180
X21555Y23305
X20305Y23555
X20305Y22680
X20805Y21555
X18680Y21555
X17305Y21305
X16430Y21305
X16430Y20055
X13305Y21430
X12305Y23680
X14305Y25930
X14330Y27103
X15330Y27103
X16330Y27103
X17330Y27103
X18330Y27103
X19330Y27103
X20330Y27103
X21330Y27103
X22330Y27103
X23330Y27103
X24330Y27103
X25330Y27103
X26330Y27103
X27330Y27103
X28330Y27103
X29330Y27103
X28805Y28055
X29930Y29930
X26430Y29930
X22930Y29930
X22055Y30805
X22805Y28055
X13555Y27930
X12305Y16680
X16805Y14305
X15430Y12555
X22180Y14430
X23305Y14930
X35805Y21930
X39930Y20805
X39055Y16930
X41555Y16930
X41805Y25305
X39555Y27680
X38305Y26430
X36930Y29930
X33430Y29930
X36180Y8305
T04
X25727Y16883
X25909Y17701
X25201Y18409
X24383Y18227
X34430Y19855
X34430Y21755
T05
X26585Y22025
X24775Y23835
T06
X15460Y22922
X14680Y22922
X14680Y21938
X15460Y21938
X37680Y21930
X37680Y20930
X38680Y20930
X38680Y21930
X38680Y22930
X38680Y23930
X37680Y23930
X37680Y22930
X37680Y19930
X37680Y18930
X38680Y18930
X38680Y19930
X38680Y17930
X37680Y17930
T07
X37491Y8930
X38869Y8930
X30869Y8930
X29491Y8930
X27369Y8930
X25991Y8930
X19869Y8930
X18491Y8930
X16369Y8930
X14991Y8930
T08
X14180Y16430
X14180Y17430
X14180Y18430
X22900Y29040
X22900Y30820
X25460Y30820
X26400Y30820
X26400Y29040
X25460Y29040
X28960Y29040
X29900Y29040
X29900Y30820
X28960Y30820
X32460Y30820
X33400Y30820
X33400Y29040
X32460Y29040
X32337Y27114
X33337Y27114
X31337Y27114
X30337Y27114
X35960Y29040
X36900Y29040
X36900Y30820
X35960Y30820
X39460Y30820
X39460Y29040
X39547Y13150
X40547Y13150
X41547Y13150
X38547Y13150
X37547Y13150
T09
X33180Y11430
X25180Y11430
X21180Y11430
X13180Y11430
T10
X13610Y20060
X13610Y24800
T11
X13180Y9430
X12180Y14930
X12180Y27055
X13180Y29430
X40680Y29430
X41680Y27055
X41680Y14930
X40680Y9430
T12
X41676Y14930
X41676Y27103
X12180Y27103
X12180Y14930
M30
