G75*
G70*
%OFA0B0*%
%FSLAX24Y24*%
%IPPOS*%
%LPD*%
%AMOC8*
5,1,8,0,0,1.08239X$1,22.5*
%
%ADD10C,0.0000*%
%ADD11C,0.0520*%
%ADD12R,0.0920X0.0520*%
%ADD13R,0.0906X0.1457*%
%ADD14R,0.0512X0.0512*%
%ADD15R,0.0640X0.0700*%
%ADD16OC8,0.0580*%
%ADD17R,0.1024X0.1418*%
%ADD18R,0.1320X0.1024*%
%ADD19C,0.0780*%
%ADD20C,0.0512*%
%ADD21C,0.1142*%
%ADD22C,0.1440*%
%ADD23R,0.0768X0.0768*%
%ADD24C,0.0768*%
%ADD25C,0.0400*%
%ADD26C,0.0700*%
%ADD27C,0.1340*%
%ADD28C,0.0740*%
%ADD29R,0.0808X0.1024*%
%ADD30R,0.0749X0.0886*%
%ADD31R,0.0631X0.0552*%
%ADD32R,0.0591X0.0434*%
%ADD33R,0.0434X0.0749*%
%ADD34R,0.0394X0.0827*%
%ADD35R,0.0552X0.0827*%
%ADD36C,0.0640*%
%ADD37C,0.0434*%
%ADD38C,0.0600*%
D10*
X011180Y009430D02*
X011180Y029430D01*
X011182Y029525D01*
X011189Y029620D01*
X011200Y029715D01*
X011216Y029809D01*
X011236Y029902D01*
X011261Y029993D01*
X011290Y030084D01*
X011323Y030173D01*
X011361Y030261D01*
X011402Y030346D01*
X011448Y030430D01*
X011497Y030511D01*
X011551Y030590D01*
X011608Y030666D01*
X011669Y030740D01*
X011733Y030810D01*
X011800Y030877D01*
X011870Y030941D01*
X011944Y031002D01*
X012020Y031059D01*
X012099Y031113D01*
X012180Y031162D01*
X012264Y031208D01*
X012349Y031249D01*
X012437Y031287D01*
X012526Y031320D01*
X012617Y031349D01*
X012708Y031374D01*
X012801Y031394D01*
X012895Y031410D01*
X012990Y031421D01*
X013085Y031428D01*
X013180Y031430D01*
X040679Y031430D01*
X040774Y031428D01*
X040869Y031421D01*
X040964Y031410D01*
X041057Y031394D01*
X041150Y031374D01*
X041242Y031349D01*
X041333Y031320D01*
X041422Y031287D01*
X041510Y031249D01*
X041596Y031208D01*
X041679Y031162D01*
X041760Y031112D01*
X041839Y031059D01*
X041915Y031002D01*
X041989Y030941D01*
X042059Y030877D01*
X042127Y030810D01*
X042191Y030740D01*
X042251Y030666D01*
X042308Y030590D01*
X042362Y030511D01*
X042411Y030430D01*
X042457Y030346D01*
X042498Y030261D01*
X042536Y030173D01*
X042569Y030084D01*
X042598Y029993D01*
X042623Y029901D01*
X042643Y029808D01*
X042659Y029714D01*
X042670Y029620D01*
X042677Y029525D01*
X042679Y029429D01*
X042679Y029430D02*
X042673Y009430D01*
X042671Y009335D01*
X042664Y009240D01*
X042653Y009146D01*
X042637Y009052D01*
X042617Y008959D01*
X042592Y008867D01*
X042563Y008776D01*
X042530Y008687D01*
X042492Y008599D01*
X042451Y008514D01*
X042405Y008430D01*
X042356Y008349D01*
X042302Y008270D01*
X042245Y008194D01*
X042185Y008120D01*
X042121Y008050D01*
X042053Y007983D01*
X041983Y007919D01*
X041909Y007858D01*
X041833Y007801D01*
X041754Y007748D01*
X041673Y007698D01*
X041590Y007652D01*
X041504Y007611D01*
X041416Y007573D01*
X041327Y007540D01*
X041237Y007511D01*
X041145Y007486D01*
X041052Y007466D01*
X040958Y007450D01*
X040863Y007439D01*
X040768Y007432D01*
X040673Y007430D01*
X013180Y007430D01*
X013085Y007432D01*
X012990Y007439D01*
X012895Y007450D01*
X012801Y007466D01*
X012708Y007486D01*
X012617Y007511D01*
X012526Y007540D01*
X012437Y007573D01*
X012349Y007611D01*
X012264Y007652D01*
X012180Y007698D01*
X012099Y007747D01*
X012020Y007801D01*
X011944Y007858D01*
X011870Y007919D01*
X011800Y007983D01*
X011733Y008050D01*
X011669Y008120D01*
X011608Y008194D01*
X011551Y008270D01*
X011497Y008349D01*
X011448Y008430D01*
X011402Y008514D01*
X011361Y008599D01*
X011323Y008687D01*
X011290Y008776D01*
X011261Y008867D01*
X011236Y008958D01*
X011216Y009051D01*
X011200Y009145D01*
X011189Y009240D01*
X011182Y009335D01*
X011180Y009430D01*
X011629Y014930D02*
X011631Y014977D01*
X011637Y015023D01*
X011647Y015069D01*
X011660Y015114D01*
X011678Y015157D01*
X011699Y015199D01*
X011723Y015239D01*
X011751Y015276D01*
X011782Y015311D01*
X011816Y015344D01*
X011852Y015373D01*
X011891Y015399D01*
X011932Y015422D01*
X011975Y015441D01*
X012019Y015457D01*
X012064Y015469D01*
X012110Y015477D01*
X012157Y015481D01*
X012203Y015481D01*
X012250Y015477D01*
X012296Y015469D01*
X012341Y015457D01*
X012385Y015441D01*
X012428Y015422D01*
X012469Y015399D01*
X012508Y015373D01*
X012544Y015344D01*
X012578Y015311D01*
X012609Y015276D01*
X012637Y015239D01*
X012661Y015199D01*
X012682Y015157D01*
X012700Y015114D01*
X012713Y015069D01*
X012723Y015023D01*
X012729Y014977D01*
X012731Y014930D01*
X012729Y014883D01*
X012723Y014837D01*
X012713Y014791D01*
X012700Y014746D01*
X012682Y014703D01*
X012661Y014661D01*
X012637Y014621D01*
X012609Y014584D01*
X012578Y014549D01*
X012544Y014516D01*
X012508Y014487D01*
X012469Y014461D01*
X012428Y014438D01*
X012385Y014419D01*
X012341Y014403D01*
X012296Y014391D01*
X012250Y014383D01*
X012203Y014379D01*
X012157Y014379D01*
X012110Y014383D01*
X012064Y014391D01*
X012019Y014403D01*
X011975Y014419D01*
X011932Y014438D01*
X011891Y014461D01*
X011852Y014487D01*
X011816Y014516D01*
X011782Y014549D01*
X011751Y014584D01*
X011723Y014621D01*
X011699Y014661D01*
X011678Y014703D01*
X011660Y014746D01*
X011647Y014791D01*
X011637Y014837D01*
X011631Y014883D01*
X011629Y014930D01*
X011629Y027103D02*
X011631Y027150D01*
X011637Y027196D01*
X011647Y027242D01*
X011660Y027287D01*
X011678Y027330D01*
X011699Y027372D01*
X011723Y027412D01*
X011751Y027449D01*
X011782Y027484D01*
X011816Y027517D01*
X011852Y027546D01*
X011891Y027572D01*
X011932Y027595D01*
X011975Y027614D01*
X012019Y027630D01*
X012064Y027642D01*
X012110Y027650D01*
X012157Y027654D01*
X012203Y027654D01*
X012250Y027650D01*
X012296Y027642D01*
X012341Y027630D01*
X012385Y027614D01*
X012428Y027595D01*
X012469Y027572D01*
X012508Y027546D01*
X012544Y027517D01*
X012578Y027484D01*
X012609Y027449D01*
X012637Y027412D01*
X012661Y027372D01*
X012682Y027330D01*
X012700Y027287D01*
X012713Y027242D01*
X012723Y027196D01*
X012729Y027150D01*
X012731Y027103D01*
X012729Y027056D01*
X012723Y027010D01*
X012713Y026964D01*
X012700Y026919D01*
X012682Y026876D01*
X012661Y026834D01*
X012637Y026794D01*
X012609Y026757D01*
X012578Y026722D01*
X012544Y026689D01*
X012508Y026660D01*
X012469Y026634D01*
X012428Y026611D01*
X012385Y026592D01*
X012341Y026576D01*
X012296Y026564D01*
X012250Y026556D01*
X012203Y026552D01*
X012157Y026552D01*
X012110Y026556D01*
X012064Y026564D01*
X012019Y026576D01*
X011975Y026592D01*
X011932Y026611D01*
X011891Y026634D01*
X011852Y026660D01*
X011816Y026689D01*
X011782Y026722D01*
X011751Y026757D01*
X011723Y026794D01*
X011699Y026834D01*
X011678Y026876D01*
X011660Y026919D01*
X011647Y026964D01*
X011637Y027010D01*
X011631Y027056D01*
X011629Y027103D01*
X041125Y027103D02*
X041127Y027150D01*
X041133Y027196D01*
X041143Y027242D01*
X041156Y027287D01*
X041174Y027330D01*
X041195Y027372D01*
X041219Y027412D01*
X041247Y027449D01*
X041278Y027484D01*
X041312Y027517D01*
X041348Y027546D01*
X041387Y027572D01*
X041428Y027595D01*
X041471Y027614D01*
X041515Y027630D01*
X041560Y027642D01*
X041606Y027650D01*
X041653Y027654D01*
X041699Y027654D01*
X041746Y027650D01*
X041792Y027642D01*
X041837Y027630D01*
X041881Y027614D01*
X041924Y027595D01*
X041965Y027572D01*
X042004Y027546D01*
X042040Y027517D01*
X042074Y027484D01*
X042105Y027449D01*
X042133Y027412D01*
X042157Y027372D01*
X042178Y027330D01*
X042196Y027287D01*
X042209Y027242D01*
X042219Y027196D01*
X042225Y027150D01*
X042227Y027103D01*
X042225Y027056D01*
X042219Y027010D01*
X042209Y026964D01*
X042196Y026919D01*
X042178Y026876D01*
X042157Y026834D01*
X042133Y026794D01*
X042105Y026757D01*
X042074Y026722D01*
X042040Y026689D01*
X042004Y026660D01*
X041965Y026634D01*
X041924Y026611D01*
X041881Y026592D01*
X041837Y026576D01*
X041792Y026564D01*
X041746Y026556D01*
X041699Y026552D01*
X041653Y026552D01*
X041606Y026556D01*
X041560Y026564D01*
X041515Y026576D01*
X041471Y026592D01*
X041428Y026611D01*
X041387Y026634D01*
X041348Y026660D01*
X041312Y026689D01*
X041278Y026722D01*
X041247Y026757D01*
X041219Y026794D01*
X041195Y026834D01*
X041174Y026876D01*
X041156Y026919D01*
X041143Y026964D01*
X041133Y027010D01*
X041127Y027056D01*
X041125Y027103D01*
X041125Y014930D02*
X041127Y014977D01*
X041133Y015023D01*
X041143Y015069D01*
X041156Y015114D01*
X041174Y015157D01*
X041195Y015199D01*
X041219Y015239D01*
X041247Y015276D01*
X041278Y015311D01*
X041312Y015344D01*
X041348Y015373D01*
X041387Y015399D01*
X041428Y015422D01*
X041471Y015441D01*
X041515Y015457D01*
X041560Y015469D01*
X041606Y015477D01*
X041653Y015481D01*
X041699Y015481D01*
X041746Y015477D01*
X041792Y015469D01*
X041837Y015457D01*
X041881Y015441D01*
X041924Y015422D01*
X041965Y015399D01*
X042004Y015373D01*
X042040Y015344D01*
X042074Y015311D01*
X042105Y015276D01*
X042133Y015239D01*
X042157Y015199D01*
X042178Y015157D01*
X042196Y015114D01*
X042209Y015069D01*
X042219Y015023D01*
X042225Y014977D01*
X042227Y014930D01*
X042225Y014883D01*
X042219Y014837D01*
X042209Y014791D01*
X042196Y014746D01*
X042178Y014703D01*
X042157Y014661D01*
X042133Y014621D01*
X042105Y014584D01*
X042074Y014549D01*
X042040Y014516D01*
X042004Y014487D01*
X041965Y014461D01*
X041924Y014438D01*
X041881Y014419D01*
X041837Y014403D01*
X041792Y014391D01*
X041746Y014383D01*
X041699Y014379D01*
X041653Y014379D01*
X041606Y014383D01*
X041560Y014391D01*
X041515Y014403D01*
X041471Y014419D01*
X041428Y014438D01*
X041387Y014461D01*
X041348Y014487D01*
X041312Y014516D01*
X041278Y014549D01*
X041247Y014584D01*
X041219Y014621D01*
X041195Y014661D01*
X041174Y014703D01*
X041156Y014746D01*
X041143Y014791D01*
X041133Y014837D01*
X041127Y014883D01*
X041125Y014930D01*
D11*
X034430Y019855D03*
X034430Y021755D03*
X025909Y017701D03*
X025727Y016883D03*
X025201Y018409D03*
X024383Y018227D03*
D12*
X021775Y018180D03*
X021775Y019090D03*
X021775Y017270D03*
D13*
X019335Y018180D03*
D14*
X019680Y028767D03*
X019680Y029593D03*
X021430Y029593D03*
X021430Y028767D03*
X016805Y028767D03*
X016805Y029593D03*
D15*
X017330Y024680D03*
X018530Y024680D03*
D16*
X037680Y023930D03*
X037680Y022930D03*
X038680Y022930D03*
X038680Y023930D03*
X038680Y021930D03*
X038680Y020930D03*
X037680Y020930D03*
X037680Y021930D03*
X037680Y019930D03*
X037680Y018930D03*
X038680Y018930D03*
X038680Y019930D03*
X038680Y017930D03*
X037680Y017930D03*
D17*
X016930Y018710D03*
X016930Y016150D03*
D18*
X017930Y020124D03*
X017930Y022486D03*
D19*
X022900Y029040D03*
X022900Y030820D03*
X025460Y030820D03*
X026400Y030820D03*
X026400Y029040D03*
X025460Y029040D03*
X028960Y029040D03*
X029900Y029040D03*
X029900Y030820D03*
X028960Y030820D03*
X032460Y030820D03*
X033400Y030820D03*
X033400Y029040D03*
X032460Y029040D03*
X035960Y029040D03*
X036900Y029040D03*
X036900Y030820D03*
X035960Y030820D03*
X039460Y030820D03*
X039460Y029040D03*
X033180Y011430D03*
X025180Y011430D03*
X021180Y011430D03*
X013180Y011430D03*
D20*
X014330Y026867D02*
X014330Y027339D01*
X015330Y027339D02*
X015330Y026867D01*
X016330Y026867D02*
X016330Y027339D01*
X017330Y027339D02*
X017330Y026867D01*
X018330Y026867D02*
X018330Y027339D01*
X019330Y027339D02*
X019330Y026867D01*
X020330Y026867D02*
X020330Y027339D01*
X021330Y027339D02*
X021330Y026867D01*
X022330Y026867D02*
X022330Y027339D01*
X023330Y027339D02*
X023330Y026867D01*
X024330Y026867D02*
X024330Y027339D01*
X025330Y027339D02*
X025330Y026867D01*
X026330Y026867D02*
X026330Y027339D01*
X027330Y027339D02*
X027330Y026867D01*
X028330Y026867D02*
X028330Y027339D01*
X029330Y027339D02*
X029330Y026867D01*
D21*
X041676Y027103D03*
X041676Y014930D03*
X012180Y014930D03*
X012180Y027103D03*
D22*
X012180Y027055D03*
X013180Y029430D03*
X012180Y014930D03*
X013180Y009430D03*
X040680Y009430D03*
X041680Y014930D03*
X041680Y027055D03*
X040680Y029430D03*
D23*
X037491Y008930D03*
X029491Y008930D03*
X025991Y008930D03*
X018491Y008930D03*
X014991Y008930D03*
D24*
X016369Y008930D03*
X019869Y008930D03*
X027369Y008930D03*
X030869Y008930D03*
X038869Y008930D03*
D25*
X039180Y011430D03*
X038180Y011430D03*
X037180Y011430D03*
X034680Y010430D03*
X034680Y009430D03*
X034680Y008430D03*
X032680Y008430D03*
X032680Y009430D03*
X032680Y010430D03*
X023680Y010430D03*
X023680Y009430D03*
X023680Y008430D03*
X021680Y008430D03*
X021680Y009430D03*
X021680Y010430D03*
D26*
X015460Y021938D03*
X014680Y021938D03*
X014680Y022922D03*
X015460Y022922D03*
D27*
X013610Y024800D03*
X013610Y020060D03*
D28*
X024775Y023835D03*
X026585Y022025D03*
D29*
X021155Y016180D03*
X019955Y016180D03*
D30*
X020180Y020224D03*
X020180Y021386D03*
X022430Y021386D03*
X022430Y020224D03*
D31*
X023305Y020470D03*
X023305Y021140D03*
X021180Y021140D03*
X021180Y020470D03*
X029055Y021595D03*
X029055Y022265D03*
X020680Y028845D03*
X020680Y029515D03*
X018930Y029515D03*
X018930Y028845D03*
X017555Y028845D03*
X017555Y029515D03*
D32*
X028622Y023930D03*
X029488Y023556D03*
X029488Y024304D03*
D33*
X018481Y023680D03*
X017379Y023680D03*
D34*
X015606Y028814D03*
X014504Y028814D03*
D35*
X015055Y030546D03*
D36*
X030337Y027414D02*
X030337Y026814D01*
X031337Y026814D02*
X031337Y027414D01*
X032337Y027414D02*
X032337Y026814D01*
X033337Y026814D02*
X033337Y027414D01*
X014480Y018430D02*
X013880Y018430D01*
X013880Y017430D02*
X014480Y017430D01*
X014480Y016430D02*
X013880Y016430D01*
X037547Y013450D02*
X037547Y012850D01*
X038547Y012850D02*
X038547Y013450D01*
X039547Y013450D02*
X039547Y012850D01*
X040547Y012850D02*
X040547Y013450D01*
X041547Y013450D02*
X041547Y012850D01*
D37*
X036680Y023430D03*
X036180Y023430D03*
X035680Y023430D03*
X035180Y023430D03*
X035180Y024055D03*
X035680Y024055D03*
X036180Y024055D03*
X036680Y024055D03*
X036680Y026055D03*
X036180Y026055D03*
X035680Y026055D03*
X035180Y026055D03*
X035180Y026680D03*
X035680Y026680D03*
X036180Y026680D03*
X036680Y026680D03*
X032180Y025180D03*
X031680Y025180D03*
X031180Y025180D03*
X030680Y025180D03*
D38*
X030555Y023055D03*
X031180Y022430D03*
X030430Y022305D03*
X031055Y020555D03*
X030180Y020430D03*
X026680Y020680D03*
X026680Y018805D03*
X028055Y016430D03*
X028180Y014305D03*
X027180Y014305D03*
X024805Y012430D03*
X022180Y014430D03*
X023305Y014930D03*
X023555Y019430D03*
X024305Y021180D03*
X021555Y023305D03*
X020305Y023555D03*
X020305Y022680D03*
X020805Y021555D03*
X018680Y021555D03*
X017305Y021305D03*
X016430Y021305D03*
X016430Y020055D03*
X013305Y021430D03*
X012305Y023680D03*
X014305Y025930D03*
X013555Y027930D03*
X022055Y030805D03*
X022930Y029930D03*
X022805Y028055D03*
X026430Y029930D03*
X028805Y028055D03*
X029930Y029930D03*
X033430Y029930D03*
X036930Y029930D03*
X039555Y027680D03*
X038305Y026430D03*
X041805Y025305D03*
X039930Y020805D03*
X035805Y021930D03*
X032805Y017180D03*
X030305Y015930D03*
X032305Y015180D03*
X039055Y016930D03*
X041555Y016930D03*
X036180Y008305D03*
X024680Y008305D03*
X016805Y014305D03*
X015430Y012555D03*
X012305Y016680D03*
M02*
