G75*
G70*
%OFA0B0*%
%FSLAX24Y24*%
%IPPOS*%
%LPD*%
%AMOC8*
5,1,8,0,0,1.08239X$1,22.5*
%
%ADD10C,0.0000*%
%ADD11R,0.0880X0.0480*%
%ADD12R,0.0866X0.1417*%
%ADD13R,0.0472X0.0472*%
%ADD14R,0.0600X0.0660*%
%ADD15R,0.0984X0.1378*%
%ADD16R,0.1280X0.0984*%
%ADD17R,0.0768X0.0984*%
%ADD18R,0.0709X0.0846*%
%ADD19R,0.0591X0.0512*%
%ADD20R,0.0551X0.0394*%
%ADD21R,0.0394X0.0709*%
%ADD22R,0.0354X0.0787*%
%ADD23R,0.0512X0.0787*%
D10*
X011180Y009430D02*
X011180Y029430D01*
X011182Y029525D01*
X011189Y029620D01*
X011200Y029715D01*
X011216Y029809D01*
X011236Y029902D01*
X011261Y029993D01*
X011290Y030084D01*
X011323Y030173D01*
X011361Y030261D01*
X011402Y030346D01*
X011448Y030430D01*
X011497Y030511D01*
X011551Y030590D01*
X011608Y030666D01*
X011669Y030740D01*
X011733Y030810D01*
X011800Y030877D01*
X011870Y030941D01*
X011944Y031002D01*
X012020Y031059D01*
X012099Y031113D01*
X012180Y031162D01*
X012264Y031208D01*
X012349Y031249D01*
X012437Y031287D01*
X012526Y031320D01*
X012617Y031349D01*
X012708Y031374D01*
X012801Y031394D01*
X012895Y031410D01*
X012990Y031421D01*
X013085Y031428D01*
X013180Y031430D01*
X040679Y031430D01*
X040774Y031428D01*
X040869Y031421D01*
X040964Y031410D01*
X041057Y031394D01*
X041150Y031374D01*
X041242Y031349D01*
X041333Y031320D01*
X041422Y031287D01*
X041510Y031249D01*
X041596Y031208D01*
X041679Y031162D01*
X041760Y031112D01*
X041839Y031059D01*
X041915Y031002D01*
X041989Y030941D01*
X042059Y030877D01*
X042127Y030810D01*
X042191Y030740D01*
X042251Y030666D01*
X042308Y030590D01*
X042362Y030511D01*
X042411Y030430D01*
X042457Y030346D01*
X042498Y030261D01*
X042536Y030173D01*
X042569Y030084D01*
X042598Y029993D01*
X042623Y029901D01*
X042643Y029808D01*
X042659Y029714D01*
X042670Y029620D01*
X042677Y029525D01*
X042679Y029429D01*
X042679Y029430D02*
X042673Y009430D01*
X042671Y009335D01*
X042664Y009240D01*
X042653Y009146D01*
X042637Y009052D01*
X042617Y008959D01*
X042592Y008867D01*
X042563Y008776D01*
X042530Y008687D01*
X042492Y008599D01*
X042451Y008514D01*
X042405Y008430D01*
X042356Y008349D01*
X042302Y008270D01*
X042245Y008194D01*
X042185Y008120D01*
X042121Y008050D01*
X042053Y007983D01*
X041983Y007919D01*
X041909Y007858D01*
X041833Y007801D01*
X041754Y007748D01*
X041673Y007698D01*
X041590Y007652D01*
X041504Y007611D01*
X041416Y007573D01*
X041327Y007540D01*
X041237Y007511D01*
X041145Y007486D01*
X041052Y007466D01*
X040958Y007450D01*
X040863Y007439D01*
X040768Y007432D01*
X040673Y007430D01*
X013180Y007430D01*
X013085Y007432D01*
X012990Y007439D01*
X012895Y007450D01*
X012801Y007466D01*
X012708Y007486D01*
X012617Y007511D01*
X012526Y007540D01*
X012437Y007573D01*
X012349Y007611D01*
X012264Y007652D01*
X012180Y007698D01*
X012099Y007747D01*
X012020Y007801D01*
X011944Y007858D01*
X011870Y007919D01*
X011800Y007983D01*
X011733Y008050D01*
X011669Y008120D01*
X011608Y008194D01*
X011551Y008270D01*
X011497Y008349D01*
X011448Y008430D01*
X011402Y008514D01*
X011361Y008599D01*
X011323Y008687D01*
X011290Y008776D01*
X011261Y008867D01*
X011236Y008958D01*
X011216Y009051D01*
X011200Y009145D01*
X011189Y009240D01*
X011182Y009335D01*
X011180Y009430D01*
X011629Y014930D02*
X011631Y014977D01*
X011637Y015023D01*
X011647Y015069D01*
X011660Y015114D01*
X011678Y015157D01*
X011699Y015199D01*
X011723Y015239D01*
X011751Y015276D01*
X011782Y015311D01*
X011816Y015344D01*
X011852Y015373D01*
X011891Y015399D01*
X011932Y015422D01*
X011975Y015441D01*
X012019Y015457D01*
X012064Y015469D01*
X012110Y015477D01*
X012157Y015481D01*
X012203Y015481D01*
X012250Y015477D01*
X012296Y015469D01*
X012341Y015457D01*
X012385Y015441D01*
X012428Y015422D01*
X012469Y015399D01*
X012508Y015373D01*
X012544Y015344D01*
X012578Y015311D01*
X012609Y015276D01*
X012637Y015239D01*
X012661Y015199D01*
X012682Y015157D01*
X012700Y015114D01*
X012713Y015069D01*
X012723Y015023D01*
X012729Y014977D01*
X012731Y014930D01*
X012729Y014883D01*
X012723Y014837D01*
X012713Y014791D01*
X012700Y014746D01*
X012682Y014703D01*
X012661Y014661D01*
X012637Y014621D01*
X012609Y014584D01*
X012578Y014549D01*
X012544Y014516D01*
X012508Y014487D01*
X012469Y014461D01*
X012428Y014438D01*
X012385Y014419D01*
X012341Y014403D01*
X012296Y014391D01*
X012250Y014383D01*
X012203Y014379D01*
X012157Y014379D01*
X012110Y014383D01*
X012064Y014391D01*
X012019Y014403D01*
X011975Y014419D01*
X011932Y014438D01*
X011891Y014461D01*
X011852Y014487D01*
X011816Y014516D01*
X011782Y014549D01*
X011751Y014584D01*
X011723Y014621D01*
X011699Y014661D01*
X011678Y014703D01*
X011660Y014746D01*
X011647Y014791D01*
X011637Y014837D01*
X011631Y014883D01*
X011629Y014930D01*
X011629Y027103D02*
X011631Y027150D01*
X011637Y027196D01*
X011647Y027242D01*
X011660Y027287D01*
X011678Y027330D01*
X011699Y027372D01*
X011723Y027412D01*
X011751Y027449D01*
X011782Y027484D01*
X011816Y027517D01*
X011852Y027546D01*
X011891Y027572D01*
X011932Y027595D01*
X011975Y027614D01*
X012019Y027630D01*
X012064Y027642D01*
X012110Y027650D01*
X012157Y027654D01*
X012203Y027654D01*
X012250Y027650D01*
X012296Y027642D01*
X012341Y027630D01*
X012385Y027614D01*
X012428Y027595D01*
X012469Y027572D01*
X012508Y027546D01*
X012544Y027517D01*
X012578Y027484D01*
X012609Y027449D01*
X012637Y027412D01*
X012661Y027372D01*
X012682Y027330D01*
X012700Y027287D01*
X012713Y027242D01*
X012723Y027196D01*
X012729Y027150D01*
X012731Y027103D01*
X012729Y027056D01*
X012723Y027010D01*
X012713Y026964D01*
X012700Y026919D01*
X012682Y026876D01*
X012661Y026834D01*
X012637Y026794D01*
X012609Y026757D01*
X012578Y026722D01*
X012544Y026689D01*
X012508Y026660D01*
X012469Y026634D01*
X012428Y026611D01*
X012385Y026592D01*
X012341Y026576D01*
X012296Y026564D01*
X012250Y026556D01*
X012203Y026552D01*
X012157Y026552D01*
X012110Y026556D01*
X012064Y026564D01*
X012019Y026576D01*
X011975Y026592D01*
X011932Y026611D01*
X011891Y026634D01*
X011852Y026660D01*
X011816Y026689D01*
X011782Y026722D01*
X011751Y026757D01*
X011723Y026794D01*
X011699Y026834D01*
X011678Y026876D01*
X011660Y026919D01*
X011647Y026964D01*
X011637Y027010D01*
X011631Y027056D01*
X011629Y027103D01*
X041125Y027103D02*
X041127Y027150D01*
X041133Y027196D01*
X041143Y027242D01*
X041156Y027287D01*
X041174Y027330D01*
X041195Y027372D01*
X041219Y027412D01*
X041247Y027449D01*
X041278Y027484D01*
X041312Y027517D01*
X041348Y027546D01*
X041387Y027572D01*
X041428Y027595D01*
X041471Y027614D01*
X041515Y027630D01*
X041560Y027642D01*
X041606Y027650D01*
X041653Y027654D01*
X041699Y027654D01*
X041746Y027650D01*
X041792Y027642D01*
X041837Y027630D01*
X041881Y027614D01*
X041924Y027595D01*
X041965Y027572D01*
X042004Y027546D01*
X042040Y027517D01*
X042074Y027484D01*
X042105Y027449D01*
X042133Y027412D01*
X042157Y027372D01*
X042178Y027330D01*
X042196Y027287D01*
X042209Y027242D01*
X042219Y027196D01*
X042225Y027150D01*
X042227Y027103D01*
X042225Y027056D01*
X042219Y027010D01*
X042209Y026964D01*
X042196Y026919D01*
X042178Y026876D01*
X042157Y026834D01*
X042133Y026794D01*
X042105Y026757D01*
X042074Y026722D01*
X042040Y026689D01*
X042004Y026660D01*
X041965Y026634D01*
X041924Y026611D01*
X041881Y026592D01*
X041837Y026576D01*
X041792Y026564D01*
X041746Y026556D01*
X041699Y026552D01*
X041653Y026552D01*
X041606Y026556D01*
X041560Y026564D01*
X041515Y026576D01*
X041471Y026592D01*
X041428Y026611D01*
X041387Y026634D01*
X041348Y026660D01*
X041312Y026689D01*
X041278Y026722D01*
X041247Y026757D01*
X041219Y026794D01*
X041195Y026834D01*
X041174Y026876D01*
X041156Y026919D01*
X041143Y026964D01*
X041133Y027010D01*
X041127Y027056D01*
X041125Y027103D01*
X041125Y014930D02*
X041127Y014977D01*
X041133Y015023D01*
X041143Y015069D01*
X041156Y015114D01*
X041174Y015157D01*
X041195Y015199D01*
X041219Y015239D01*
X041247Y015276D01*
X041278Y015311D01*
X041312Y015344D01*
X041348Y015373D01*
X041387Y015399D01*
X041428Y015422D01*
X041471Y015441D01*
X041515Y015457D01*
X041560Y015469D01*
X041606Y015477D01*
X041653Y015481D01*
X041699Y015481D01*
X041746Y015477D01*
X041792Y015469D01*
X041837Y015457D01*
X041881Y015441D01*
X041924Y015422D01*
X041965Y015399D01*
X042004Y015373D01*
X042040Y015344D01*
X042074Y015311D01*
X042105Y015276D01*
X042133Y015239D01*
X042157Y015199D01*
X042178Y015157D01*
X042196Y015114D01*
X042209Y015069D01*
X042219Y015023D01*
X042225Y014977D01*
X042227Y014930D01*
X042225Y014883D01*
X042219Y014837D01*
X042209Y014791D01*
X042196Y014746D01*
X042178Y014703D01*
X042157Y014661D01*
X042133Y014621D01*
X042105Y014584D01*
X042074Y014549D01*
X042040Y014516D01*
X042004Y014487D01*
X041965Y014461D01*
X041924Y014438D01*
X041881Y014419D01*
X041837Y014403D01*
X041792Y014391D01*
X041746Y014383D01*
X041699Y014379D01*
X041653Y014379D01*
X041606Y014383D01*
X041560Y014391D01*
X041515Y014403D01*
X041471Y014419D01*
X041428Y014438D01*
X041387Y014461D01*
X041348Y014487D01*
X041312Y014516D01*
X041278Y014549D01*
X041247Y014584D01*
X041219Y014621D01*
X041195Y014661D01*
X041174Y014703D01*
X041156Y014746D01*
X041143Y014791D01*
X041133Y014837D01*
X041127Y014883D01*
X041125Y014930D01*
D11*
X021775Y017270D03*
X021775Y018180D03*
X021775Y019090D03*
D12*
X019335Y018180D03*
D13*
X019680Y028767D03*
X019680Y029593D03*
X021430Y029593D03*
X021430Y028767D03*
X016805Y028767D03*
X016805Y029593D03*
D14*
X017330Y024680D03*
X018530Y024680D03*
D15*
X016930Y018710D03*
X016930Y016150D03*
D16*
X017930Y020124D03*
X017930Y022486D03*
D17*
X019955Y016180D03*
X021155Y016180D03*
D18*
X020180Y020224D03*
X020180Y021386D03*
X022430Y021386D03*
X022430Y020224D03*
D19*
X023305Y020470D03*
X023305Y021140D03*
X021180Y021140D03*
X021180Y020470D03*
X029055Y021595D03*
X029055Y022265D03*
X020680Y028845D03*
X020680Y029515D03*
X018930Y029515D03*
X018930Y028845D03*
X017555Y028845D03*
X017555Y029515D03*
D20*
X028622Y023930D03*
X029488Y023556D03*
X029488Y024304D03*
D21*
X018481Y023680D03*
X017379Y023680D03*
D22*
X015606Y028814D03*
X014504Y028814D03*
D23*
X015055Y030546D03*
M02*
